<svg xmlns="http://www.w3.org/2000/svg" width="18" height="16" viewBox="0 0 18 16">
  <path fill="#2CA7F8" fill-rule="evenodd" d="M64.32,956.5 C64.32,957.314286 65.0057143,958 65.82,958 C66.6342857,958 67.32,957.314286 67.32,956.5 C67.32,955.664286 66.6342857,955 65.82,955 C65.0057143,955 64.32,955.664286 64.32,956.5 Z M57,962 L57,964 L75,964 L75,962 L57,962 Z M64.32,969.5 C64.32,970.314286 65.0057143,970.978571 65.82,970.978571 C66.6342857,970.978571 67.32,970.314286 67.32,969.5 C67.32,968.664286 66.6342857,968 65.82,968 C65.0057143,968 64.32,968.664286 64.32,969.5 Z" transform="translate(-57 -955)"/>
</svg>
