<?xml version="1.0" encoding="UTF-8"?>
<svg width="30px" height="30px" viewBox="0 0 30 30" version="1.1" xmlns="http://www.w3.org/2000/svg" xmlns:xlink="http://www.w3.org/1999/xlink">
    <!-- Generator: Sketch 58 (84663) - https://sketch.com -->
    <title>clear_normal</title>
    <desc>Created with Sketch.</desc>
    <g id="计算器" stroke="none" stroke-width="1" fill="none" fill-rule="evenodd">
        <g id="计算器1" transform="translate(-352.000000, -954.000000)">
            <g id="clear_normal" transform="translate(352.000000, 954.000000)">
                <g id="clear" transform="translate(3.000000, 3.000000)">
                    <path d="M5.30901699,4.5 L1.55901699,12 L5.30901699,19.5 L22.5,19.5 L22.5,4.5 L5.30901699,4.5 Z" id="Rectangle" stroke="#303030" stroke-width="1"></path>
                    <polygon id="Combined-Shape" fill="#303030" fill-rule="nonzero" points="10.767767 15.4246212 10.4142136 15.7781746 9.70710678 15.0710678 10.0606602 14.7175144 12.5355339 12.2426407 10.0606602 9.76776695 9.70710678 9.41421356 10.4142136 8.70710678 10.767767 9.06066017 13.2426407 11.5355339 15.7175144 9.06066017 16.0710678 8.70710678 16.7781746 9.41421356 16.4246212 9.76776695 13.9497475 12.2426407 16.4246212 14.7175144 16.7781746 15.0710678 16.0710678 15.7781746 15.7175144 15.4246212 13.2426407 12.9497475"></polygon>
                </g>
                <rect id="矩形" x="0" y="0" width="30" height="30"></rect>
            </g>
        </g>
    </g>
</svg>