<?xml version="1.0" encoding="UTF-8"?>
<svg width="30px" height="30px" viewBox="0 0 30 30" version="1.1" xmlns="http://www.w3.org/2000/svg" xmlns:xlink="http://www.w3.org/1999/xlink">
    <!-- Generator: Sketch 58 (84663) - https://sketch.com -->
    <title>clear_hover</title>
    <desc>Created with Sketch.</desc>
    <g id="计算器" stroke="none" stroke-width="1" fill="none" fill-rule="evenodd">
        <g id="计算器1" transform="translate(-352.000000, -990.000000)">
            <g id="clear_hover" transform="translate(352.000000, 990.000000)">
                <g id="clear" transform="translate(3.000000, 2.000000)">
                    <path d="M5.51735033,4.66666667 L1.60068366,12.5 L5.51735033,20.3333333 L23.4583333,20.3333333 L23.4583333,4.66666667 L5.51735033,4.66666667 Z" id="Rectangle" stroke="#303030" stroke-width="1"></path>
                    <polygon id="Combined-Shape" fill="#303030" fill-rule="nonzero" points="11.2164239 16.0673138 10.8481391 16.4355985 10.1115696 15.699029 10.4798543 15.3307442 13.0578478 12.7527507 10.4798543 10.1747572 10.1115696 9.80647246 10.8481391 9.0699029 11.2164239 9.43818768 13.7944174 12.0161812 16.3724109 9.43818768 16.7406956 9.0699029 17.4772652 9.80647246 17.1089804 10.1747572 14.5309869 12.7527507 17.1089804 15.3307442 17.4772652 15.699029 16.7406956 16.4355985 16.3724109 16.0673138 13.7944174 13.4893203"></polygon>
                </g>
                <rect id="矩形" x="0" y="0" width="30" height="30"></rect>
            </g>
        </g>
    </g>
</svg>