<?xml version="1.0" encoding="UTF-8"?>
<svg width="30px" height="30px" viewBox="0 0 30 30" version="1.1" xmlns="http://www.w3.org/2000/svg" xmlns:xlink="http://www.w3.org/1999/xlink">
    <!-- Generator: Sketch 58 (84663) - https://sketch.com -->
    <title>÷_press</title>
    <desc>Created with Sketch.</desc>
    <g id="计算器" stroke="none" stroke-width="1" fill="none" fill-rule="evenodd">
        <g id="计算器1" transform="translate(-141.000000, -948.000000)" fill="#0081FF">
            <path d="M154.32,956.502012 C154.32,957.317389 155.005714,958.004023 155.82,958.004023 C156.634286,958.004023 157.32,957.317389 157.32,956.502012 C157.32,955.665177 156.634286,955 155.82,955 C155.005714,955 154.32,955.665177 154.32,956.502012 Z M147,962.009388 L147,964.01207 L165,964.01207 L165,962.009388 L147,962.009388 Z M154.32,969.519446 C154.32,970.334823 155.005714,971 155.82,971 C156.634286,971 157.32,970.334823 157.32,969.519446 C157.32,968.682611 156.634286,968.017434 155.82,968.017434 C155.005714,968.017434 154.32,968.682611 154.32,969.519446 Z" id="÷_press"></path>
        </g>
    </g>
</svg>