<?xml version="1.0" encoding="UTF-8"?>
<svg width="36px" height="36px" viewBox="0 0 36 36" version="1.1" xmlns="http://www.w3.org/2000/svg" xmlns:xlink="http://www.w3.org/1999/xlink">
    <!-- Generator: Sketch 64 (93537) - https://sketch.com -->
    <title>empty_press</title>
    <desc>Created with Sketch.</desc>
    <g id="科学计数模式" stroke="none" stroke-width="1" fill="none" fill-rule="evenodd">
        <g id="计算器-切图light" transform="translate(-460.000000, -639.000000)">
            <g id="empty_press" transform="translate(460.000000, 639.000000)">
                <g>
                    <path d="M20.475,9 C21.5181818,9 22.3772727,9.85909091 22.3772727,10.9022727 L22.3772727,10.9022727 L22.3772727,11.7613636 L25.9977273,11.7613636 C26.3045455,11.7613636 26.4272727,12.0068182 26.4886364,12.2522727 C26.4886364,12.5590909 26.2431818,12.7431818 25.9977273,12.7431818 L25.9977273,12.7431818 L25.0159091,12.7431818 L25.0159091,24.8931818 C25.0159091,25.9363636 24.1568182,26.7954545 23.1136364,26.7954545 L23.1136364,26.7954545 L13.5590909,26.7954545 C12.5159091,26.7954545 11.6568182,25.9363636 11.6568182,24.8931818 L11.6568182,24.8931818 L11.6568182,12.7431818 L10.4909091,12.7431818 C10.1840909,12.7431818 10,12.4977273 10,12.2522727 C10,11.9454545 10.2454545,11.7613636 10.4909091,11.7613636 L10.4909091,11.7613636 L13.9272727,11.7613636 L13.9272727,10.9022727 C13.9272727,9.85909091 14.7863636,9 15.8295455,9 L15.8295455,9 Z M24.0340909,12.7431818 L12.7,12.7431818 L12.6386364,24.9545455 C12.6386364,25.4454545 13.1909091,25.8136364 13.6818182,25.8136364 L13.6818182,25.8136364 L23.2363636,25.8136364 C23.7272727,25.8136364 24.0340909,25.2613636 24.0340909,24.7090909 L24.0340909,24.7090909 L24.0340909,12.7431818 Z M14.9522727,15.3818182 C15.2590909,15.3818182 15.3818182,15.6272727 15.4431818,15.8727273 L15.4431818,15.8727273 L15.4431818,22.4386364 C15.4431818,22.7454545 15.1977273,22.9295455 14.9522727,22.9295455 C14.7068182,22.9295455 14.4613636,22.7454545 14.4613636,22.4386364 L14.4613636,22.4386364 L14.4613636,15.8727273 C14.4613636,15.5659091 14.6454545,15.3818182 14.9522727,15.3818182 Z M18.4794034,15.3818182 C18.7862216,15.3818182 18.9089489,15.6272727 18.9703125,15.8727273 L18.9703125,15.8727273 L18.9703125,22.4386364 C18.9703125,22.7454545 18.724858,22.9295455 18.4794034,22.9295455 C18.2339489,22.9295455 17.9884943,22.7454545 17.9884943,22.4386364 L17.9884943,22.4386364 L17.9884943,15.8727273 C17.9884943,15.5659091 18.1725852,15.3818182 18.4794034,15.3818182 Z M21.4794034,15.3818182 C21.7862216,15.3818182 21.9089489,15.6272727 21.9703125,15.8727273 L21.9703125,15.8727273 L21.9703125,22.4386364 C21.9703125,22.7454545 21.724858,22.9295455 21.4794034,22.9295455 C21.2339489,22.9295455 20.9884943,22.7454545 20.9884943,22.4386364 L20.9884943,22.4386364 L20.9884943,15.8727273 C20.9884943,15.5659091 21.1725852,15.3818182 21.4794034,15.3818182 Z M20.5363636,9.98181818 L15.8909091,9.98181818 C15.4,9.98181818 14.9704545,10.4113636 14.9704545,10.9022727 L14.9704545,10.9022727 L14.9704545,11.7613636 L21.4568182,11.7613636 L21.4568182,10.9022727 C21.4568182,10.4113636 21.0272727,9.98181818 20.5363636,9.98181818 L20.5363636,9.98181818 Z" id="形状结合" fill="#0081FF" fill-rule="nonzero"></path>
                    <rect id="矩形" x="0" y="0" width="36" height="36"></rect>
                </g>
            </g>
        </g>
    </g>
</svg>