<?xml version="1.0" encoding="UTF-8"?>
<svg width="30px" height="30px" viewBox="0 0 30 30" version="1.1" xmlns="http://www.w3.org/2000/svg" xmlns:xlink="http://www.w3.org/1999/xlink">
    <!-- Generator: Sketch 58 (84663) - https://sketch.com -->
    <title>÷_hover</title>
    <desc>Created with Sketch.</desc>
    <g id="计算器" stroke="none" stroke-width="1" fill="none" fill-rule="evenodd">
        <g id="计算器1" transform="translate(-96.000000, -948.000000)" fill="#56BCFF">
            <path d="M109.32,956.502012 C109.32,957.317389 110.005714,958.004023 110.82,958.004023 C111.634286,958.004023 112.32,957.317389 112.32,956.502012 C112.32,955.665177 111.634286,955 110.82,955 C110.005714,955 109.32,955.665177 109.32,956.502012 Z M102,962.009388 L102,964.01207 L120,964.01207 L120,962.009388 L102,962.009388 Z M109.32,969.519446 C109.32,970.334823 110.005714,971 110.82,971 C111.634286,971 112.32,970.334823 112.32,969.519446 C112.32,968.682611 111.634286,968.017434 110.82,968.017434 C110.005714,968.017434 109.32,968.682611 109.32,969.519446 Z" id="÷_hover"></path>
        </g>
    </g>
</svg>