<?xml version="1.0" encoding="UTF-8"?>
<svg width="30px" height="30px" viewBox="0 0 30 30" version="1.1" xmlns="http://www.w3.org/2000/svg" xmlns:xlink="http://www.w3.org/1999/xlink">
    <title>clear_hover</title>
    <g id="科学计数模式" stroke="none" stroke-width="1" fill="none" fill-rule="evenodd">
        <g id="计算器-切图light" transform="translate(-324.000000, -440.000000)">
            <g id="clear_normal备份-2" transform="translate(324.000000, 440.000000)">
                <g id="clear_normal" transform="translate(3.500000, 6.600000)" fill="#303030" fill-rule="nonzero" stroke="#303030" stroke-width="0.3">
                    <path d="M23,0 L23,16.7272727 L4.18181818,16.7272727 L0,8.36363636 L4.18181818,0 L23,0 Z M21.9545455,1.04545455 L5.22727273,1.04545455 L1.04545455,8.36363636 L5.22727273,15.6818182 L21.9545455,15.6818182 L21.9545455,1.04545455 Z" id="Rectangle"></path>
                    <polygon id="Combined-Shape" points="10.5068182 12.1795455 10.1409091 12.5454545 9.40909091 11.8136364 9.775 11.4477273 12.3363636 8.88636364 9.775 6.325 9.40909091 5.95909091 10.1409091 5.22727273 10.5068182 5.59318182 13.0681818 8.15454545 15.6295455 5.59318182 15.9954545 5.22727273 16.7272727 5.95909091 16.3613636 6.325 13.8 8.88636364 16.3613636 11.4477273 16.7272727 11.8136364 15.9954545 12.5454545 15.6295455 12.1795455 13.0681818 9.61818182"></polygon>
                </g>
                <rect id="矩形" x="0" y="0" width="30" height="30"></rect>
            </g>
        </g>
    </g>
</svg>