<?xml version="1.0" encoding="UTF-8"?>
<svg width="34px" height="34px" viewBox="0 0 34 34" version="1.1" xmlns="http://www.w3.org/2000/svg" xmlns:xlink="http://www.w3.org/1999/xlink">
    <title>cos-1_hover</title>
    <g id="科学计数模式" stroke="none" stroke-width="1" fill="none" fill-rule="evenodd">
        <g id="计算器-切图light" transform="translate(-273.000000, -1116.000000)">
            <g id="cos-1_hover" transform="translate(273.000000, 1116.000000)">
                <path d="M6.35204287,16.4629672 C5.13289018,16.4629672 3.98715104,16.9438608 3.17011917,17.8357353 C2.42285856,18.6514473 1.95,19.8114907 1.95,21.2636705 C1.95,22.7303159 2.39055292,23.8954662 3.11888315,24.7066261 C3.89208344,25.567759 4.99029208,26.031152 6.23576691,26.031152 C7.34438931,26.031152 8.4011658,25.5985182 9.21265398,24.8383131 L8.35521828,23.8780821 C7.81523878,24.3371103 7.13530551,24.6687274 6.36865372,24.6687274 C5.55222006,24.6687274 4.86658415,24.3293077 4.38581916,23.7340748 C3.90408915,23.1376472 3.62803081,22.2859714 3.62803081,21.2636705 C3.62803081,20.2470507 3.91733127,19.3911851 4.40633566,18.7871209 C4.89993379,18.177382 5.59704125,17.8253918 6.40187542,17.8253918 C7.14097403,17.8253918 7.68880344,18.1732785 8.22510244,18.6686677 L8.91582454,17.4443699 C8.27797727,16.9125018 7.47989664,16.4629672 6.35204287,16.4629672 Z M14.2421969,16.4629672 C15.4108661,16.4629672 16.515217,16.9451076 17.3034352,17.8396727 C18.0218812,18.6550519 18.4781313,19.8137058 18.4781313,21.2636705 C18.4781313,22.705235 18.0221753,23.8556736 17.3041235,24.6649066 C16.515884,25.55324 15.4112357,26.031152 14.2421969,26.031152 C13.0731581,26.031152 11.9685098,25.55324 11.1802703,24.6649066 C10.4622185,23.8556736 10.0062626,22.705235 10.0062626,21.2636705 C10.0062626,19.8137058 10.4625127,18.6550519 11.1809587,17.8396727 C11.9691769,16.9451076 13.0735278,16.4629672 14.2421969,16.4629672 Z M14.2421969,17.8253918 C13.4790466,17.8253918 12.8417721,18.1702415 12.3947613,18.768154 C11.9421548,19.3735513 11.6842934,20.2366599 11.6842934,21.2636705 C11.6842934,22.2880293 11.9408194,23.1411469 12.3913441,23.7380204 C12.8385612,24.3305119 13.4771919,24.6687274 14.2421969,24.6687274 C15.008552,24.6687274 15.6521814,24.3293566 16.1036507,23.7350172 C16.5569124,23.1383182 16.8167113,22.2863421 16.8167113,21.2636705 C16.8167113,20.2383471 16.5555589,19.3764051 16.1002074,18.771191 C15.6489511,18.17142 15.0066963,17.8253918 14.2421969,17.8253918 Z M23.3449431,16.4629672 C22.3808282,16.4629672 21.6115197,16.7336408 21.0742054,17.1761349 C20.4994587,17.6494557 20.188714,18.3196828 20.188714,19.0710382 C20.188714,19.7312522 20.4490047,20.2249973 20.8472137,20.610916 C21.3846401,21.1317551 22.1760806,21.4545883 22.9123865,21.7258589 C23.4839383,21.9449583 24.0788377,22.1744126 24.4775277,22.5055825 C24.7573244,22.7379943 24.9394173,23.0211046 24.9394173,23.3898593 C24.9394173,23.7835151 24.7862382,24.137999 24.4740982,24.3859607 C24.1868294,24.6141648 23.766804,24.7517816 23.2120563,24.7517816 C22.1224577,24.7517816 21.3072798,24.305565 20.5209475,23.6605519 L19.9044764,24.8903055 C20.7659668,25.5519173 21.9416901,26.031152 23.1622237,26.031152 C24.1950246,26.031152 25.0028262,25.7475178 25.564666,25.2906682 C26.1793325,24.7908637 26.5011721,24.0833459 26.5011721,23.3068051 C26.5011721,22.5814018 26.2464915,22.0637244 25.8534579,21.6696043 C25.3156324,21.130292 24.514917,20.8242497 23.5424701,20.4558653 C23.0028653,20.2540112 22.4877304,20.0625859 22.147002,19.7827943 C21.9031723,19.5825718 21.7504689,19.3363436 21.7504689,19.0045948 C21.7504689,18.650301 21.8885897,18.3225172 22.1801063,18.0928375 C22.4428284,17.8858443 22.8282618,17.7589484 23.3449431,17.7589484 C24.168006,17.7589484 24.8009163,18.1049936 25.4390551,18.5817043 L26.046765,17.3856492 C25.3385442,16.8765799 24.4007859,16.4629672 23.3449431,16.4629672 Z M31.4891697,5.94487241 L30.5185538,6.03978172 C30.1222204,6.24442865 29.6548572,6.3985452 29.0319975,6.5104132 L29.0319975,7.21796821 L30.4123236,7.21796821 L30.4123236,12.9259556 L28.6816071,12.9259556 L28.6816071,13.8329155 L33.05,13.8329155 L33.05,12.9259556 L31.4891697,12.9259556 L31.4891697,5.94487241 Z M27.3694273,10.3882792 L24.5512467,10.3882792 L24.5512467,11.2315317 L27.3694273,11.2315317 L27.3694273,10.3882792 Z" id="形状结合" stroke="#303030" stroke-width="0.01" fill="#303030" fill-rule="nonzero"></path>
                <rect id="矩形" x="0" y="0" width="34" height="34"></rect>
            </g>
        </g>
    </g>
</svg>
