<?xml version="1.0" encoding="UTF-8"?>
<svg width="34px" height="34px" viewBox="0 0 34 34" version="1.1" xmlns="http://www.w3.org/2000/svg" xmlns:xlink="http://www.w3.org/1999/xlink">
    <title>cot-1_normal</title>
    <g id="科学计数模式" stroke="none" stroke-width="1" fill="none" fill-rule="evenodd">
        <g id="计算器-切图light" transform="translate(-89.000000, -1216.000000)">
            <g id="cot-1_normal" transform="translate(89.000000, 1216.000000)">
                <path d="M6.416,16.038 C5.24115785,16.038 4.1370675,16.5014258 3.34973318,17.3608824 C2.62968172,18.1468927 2.174,19.2646849 2.174,20.664 C2.174,22.0772497 2.59856265,23.1999526 3.30036899,23.9815722 C4.04547485,24.8114156 5.10377109,25.258 6.304,25.258 C7.37315791,25.258 8.39227961,24.8404459 9.17451079,24.1068059 L8.33230252,23.1910412 C7.81445047,23.6276268 7.16433151,23.942 6.432,23.942 C5.64618194,23.942 4.98625142,23.6153161 4.52351299,23.0424019 C4.0597235,22.4681863 3.794,21.6482141 3.794,20.664 C3.794,19.6852527 4.07248052,18.8612485 4.54327373,18.2796805 C5.0183667,17.6928009 5.68933717,17.354 6.464,17.354 C7.17621978,17.354 7.70388203,17.6896839 8.22063865,18.1673542 L8.88785486,16.9847204 C8.2729756,16.4717387 7.50358261,16.038 6.416,16.038 Z M14.016,16.038 C15.1422197,16.038 16.2064559,16.5026301 16.9660433,17.3647014 C17.658324,18.1503852 18.098,19.2668298 18.098,20.664 C18.098,22.0530816 17.6586057,23.1616143 16.966702,23.9413788 C16.2070954,24.7974434 15.1425748,25.258 14.016,25.258 C12.8894252,25.258 11.8249046,24.7974434 11.065298,23.9413788 C10.3733943,23.1616143 9.934,22.0530816 9.934,20.664 C9.934,19.2668298 10.373676,18.1503852 11.0659567,17.3647014 C11.8255441,16.5026301 12.8897803,16.038 14.016,16.038 Z M14.016,17.354 C13.2815177,17.354 12.668191,17.685907 12.237975,18.2613551 C11.8022124,18.8442223 11.554,19.6752234 11.554,20.664 C11.554,21.6502162 11.800923,22.4715932 12.2346784,23.04625 C12.6650948,23.6164833 13.2797317,23.942 14.016,23.942 C14.7535728,23.942 15.3730243,23.6153683 15.8075361,23.0433528 C16.2439255,22.4688654 16.494,21.6485897 16.494,20.664 C16.494,19.67685 16.2426187,18.8469743 15.8042143,18.264285 C15.3699095,17.6870443 14.7517858,17.354 14.016,17.354 Z M21.794,13.83 L20.4814877,13.83 L20.3052951,16.2646609 L18.942,16.3448547 L18.942,17.546 L20.2380241,17.546 L20.2404155,22.4965905 C20.2638027,23.3745085 20.458426,24.0897178 20.8991689,24.5720606 C21.2986699,25.0092689 21.9008121,25.258 22.768,25.258 C23.3201633,25.258 23.9244752,25.085344 24.437043,24.918167 L23.9219622,23.8045767 C23.6587572,23.8950411 23.3398499,23.974 23.088,23.974 C22.6239876,23.974 22.3062132,23.8426438 22.1029263,23.5885352 C21.8795246,23.309283 21.794,22.8869419 21.794,22.344 L21.794,17.546 L24.146,17.546 L24.146,16.262 L21.794,16.262 L21.794,13.83 Z M30.44,6.61487241 L29.522119,6.70462516 C29.1484558,6.89763927 28.7077239,7.04289899 28.12,7.14827643 L28.12,7.82 L29.42,7.82 L29.42,13.19 L27.79,13.19 L27.79,14.05 L31.91,14.05 L31.91,13.19 L30.44,13.19 L30.44,6.61487241 Z M26.56,10.8 L23.9,10.8 L23.9,11.6 L26.56,11.6 L26.56,10.8 Z" id="形状结合" stroke="#000000" stroke-width="0.01" fill="#000000" fill-rule="nonzero"></path>
                <rect id="矩形" x="0" y="0" width="34" height="34"></rect>
            </g>
        </g>
    </g>
</svg>
