<?xml version="1.0" encoding="UTF-8"?>
<svg width="34px" height="34px" viewBox="0 0 34 34" version="1.1" xmlns="http://www.w3.org/2000/svg" xmlns:xlink="http://www.w3.org/1999/xlink">
    <title>cot-1_hover</title>
    <g id="科学计数模式" stroke="none" stroke-width="1" fill="none" fill-rule="evenodd">
        <g id="计算器-切图light" transform="translate(-273.000000, -1216.000000)">
            <g id="cot-1_hover" transform="translate(273.000000, 1216.000000)">
                <path d="M6.60893724,16.4714644 C5.38067719,16.4714644 4.22637779,16.9559483 3.40324204,17.8544858 C2.650389,18.6763025 2.174,19.8450301 2.174,21.3080753 C2.174,22.7856954 2.61783948,23.9595701 3.35162129,24.7768016 C4.13059596,25.6443656 5.23700799,26.1112134 6.49178243,26.1112134 C7.6085657,26.1112134 8.67312649,25.6754414 9.49064225,24.909713 L8.62721716,23.9427745 C8.08313483,24.405205 7.39807974,24.7392469 6.62567364,24.7392469 C5.80294741,24.7392469 5.11202816,24.3972095 4.62755808,23.7973894 C4.14214067,23.1963964 3.86395816,22.3382044 3.86395816,21.3080753 C3.86395816,20.2836714 4.15548249,19.4212573 4.64822991,18.8125693 C5.1456315,18.198132 5.84811101,17.843431 6.65914644,17.843431 C7.40376958,17.843431 7.95574395,18.1938259 8.49605964,18.6928568 L9.19161304,17.4599956 C8.54904506,16.9242457 7.74506815,16.4714644 6.60893724,16.4714644 Z M14.558728,16.4714644 C15.736122,16.4714644 16.8487179,16.9572038 17.6428207,17.8584475 C18.3666446,18.6799302 18.8263013,19.8472595 18.8263013,21.3080753 C18.8263013,22.760427 18.3669413,23.9194786 17.6435151,24.7347684 C16.8493906,25.6297341 15.7364947,26.1112134 14.558728,26.1112134 C13.3809614,26.1112134 12.2680655,25.6297341 11.4739409,24.7347684 C10.7505148,23.9194786 10.2911548,22.760427 10.2911548,21.3080753 C10.2911548,19.8472595 10.7508115,18.6799302 11.4746354,17.8584475 C12.2687382,16.9572038 13.3813341,16.4714644 14.558728,16.4714644 Z M14.558728,17.843431 C13.7896855,17.843431 13.1474889,18.1909408 12.6970262,18.7934705 C12.2409576,19.4034985 11.981113,20.2732064 11.981113,21.3080753 C11.981113,22.3402737 12.2396127,23.1999152 12.6935842,23.801355 C13.1442544,24.3984213 13.7878166,24.7392469 14.558728,24.7392469 C15.3309989,24.7392469 15.9795976,24.3972577 16.4345523,23.7983301 C16.8912819,23.1970658 17.1530795,22.3385741 17.1530795,21.3080753 C17.1530795,20.274906 16.8899188,19.4063732 16.431084,18.7965296 C15.9763436,18.1921278 15.3291291,17.843431 14.558728,17.843431 Z M22.69241,14.161841 L21.3239312,14.161841 L21.1396382,16.708435 L19.713749,16.7923108 L19.713749,18.0442678 L21.06942,18.0442678 L21.0717519,23.2184316 C21.0953707,24.1380075 21.2981355,24.8874254 21.758898,25.3928131 C22.1764148,25.8507666 22.8061894,26.1112134 23.7135397,26.1112134 C24.2894268,26.1112134 24.9195596,25.9315609 25.4546275,25.7571766 L24.95423,24.5839151 C24.6726735,24.6833665 24.3225056,24.7727197 24.0482678,24.7727197 C23.5619892,24.7727197 23.229073,24.6349176 23.016059,24.3686501 C22.7821172,24.0762228 22.69241,23.6339985 22.69241,23.0653975 L22.69241,18.0442678 L25.1526611,18.0442678 L25.1526611,16.7057741 L22.69241,16.7057741 L22.69241,14.161841 Z M31.4891697,5.94487241 L30.5185538,6.03978172 C30.1222204,6.24442865 29.6548572,6.3985452 29.0319975,6.5104132 L29.0319975,7.21796821 L30.4123236,7.21796821 L30.4123236,12.9259556 L28.6816071,12.9259556 L28.6816071,13.8329155 L33.05,13.8329155 L33.05,12.9259556 L31.4891697,12.9259556 L31.4891697,5.94487241 Z M27.3694273,10.3882792 L24.5512467,10.3882792 L24.5512467,11.2315317 L27.3694273,11.2315317 L27.3694273,10.3882792 Z" id="形状结合" stroke="#000000" stroke-width="0.01" fill="#000000" fill-rule="nonzero"></path>
                <rect id="矩形" x="0" y="0" width="34" height="34"></rect>
            </g>
        </g>
    </g>
</svg>
