<?xml version="1.0" encoding="UTF-8"?>
<svg width="30px" height="30px" viewBox="0 0 30 30" version="1.1" xmlns="http://www.w3.org/2000/svg" xmlns:xlink="http://www.w3.org/1999/xlink">
    <title>cube root_press</title>
    <g id="科学计数模式" stroke="none" stroke-width="1" fill="none" fill-rule="evenodd">
        <g id="计算器-切图light" transform="translate(-463.000000, -769.000000)">
            <g id="cube-root_press" transform="translate(463.000000, 769.000000)">
                <path d="M24.5,7.16 L24.5,7.88 L17.12,7.88 L11.324,24.53 L10.784,24.53 L8.858,19.472 L7.598,21.272 L7.13,20.93 L9.56,17.51 L11.36,22.226 L16.598,7.16 L24.5,7.16 Z M19.732,13.28 L21.1,15.494 C21.406,16.034 21.748,16.574 22.09,17.114 L22.09,17.114 L22.162,17.114 L23.062,15.494 L24.34,13.28 L25.852,13.28 L22.9,18.068 L26.104,23 L24.502,23 L23.008,20.642 C22.666,20.048 22.306,19.454 21.946,18.878 L21.946,18.878 L21.856,18.878 C21.496,19.454 21.172,20.048 20.83,20.642 L20.83,20.642 L19.444,23 L17.896,23 L21.118,17.924 L18.148,13.28 L19.732,13.28 Z M8.8295,4.794 C10.1495,4.805 11.1175,5.52 11.1175,6.796 C11.1175,7.797 10.5345,8.446 9.6765,8.754 L9.6765,8.754 L9.6765,8.798 C10.6225,9.018 11.3925,9.744 11.3925,10.855 C11.3925,12.285 10.2705,13.143 8.8625,13.143 C7.6085,13.143 6.8275,12.604 6.3105,12.043 L6.3105,12.043 L6.7725,11.46 C7.2455,11.944 7.8505,12.395 8.8075,12.395 C9.7865,12.395 10.4905,11.79 10.4905,10.833 C10.4905,9.832 9.8085,9.161 7.9385,9.161 L7.9385,9.161 L7.9385,8.457 C9.6215,8.457 10.2045,7.764 10.2045,6.862 C10.2045,6.059 9.6655,5.531 8.7965,5.52 C8.1365,5.531 7.5535,5.872 7.1025,6.334 L7.1025,6.334 L6.6075,5.751 C7.2015,5.212 7.9055,4.805 8.8295,4.794 Z" id="形状结合" fill="#0081FF" fill-rule="nonzero"></path>
                <rect id="矩形" x="0" y="0" width="30" height="30"></rect>
            </g>
        </g>
    </g>
</svg>