<?xml version="1.0" encoding="UTF-8"?>
<svg width="34px" height="34px" viewBox="0 0 34 34" version="1.1" xmlns="http://www.w3.org/2000/svg" xmlns:xlink="http://www.w3.org/1999/xlink">
    <title>deg_normal</title>
    <g id="科学计数模式" stroke="none" stroke-width="1" fill="none" fill-rule="evenodd">
        <g id="计算器-切图light" transform="translate(-94.000000, -905.000000)" fill="#303030" fill-rule="nonzero" stroke="#303030" stroke-width="0.01">
            <g id="deg_normal" transform="translate(94.000000, 905.000000)">
                <path d="M22.2207302,21.818 C22.9711733,21.818 23.5203778,22.0540567 23.8948702,22.4684223 C24.2962561,22.912545 24.497282,23.5643239 24.5237342,24.3608523 L24.5237342,24.3608523 L24.5267659,28.602 L23.5325067,28.602 L23.4418357,27.8652979 C22.7908135,28.3634001 22.0712921,28.758 21.2847302,28.758 C20.7098798,28.758 20.2103324,28.5752057 19.8597286,28.2356271 C19.5266039,27.9129781 19.3267302,27.4482235 19.3267302,26.86 C19.3267302,26.1393388 19.6380071,25.5968345 20.3000876,25.1944323 C20.952694,24.7977883 21.9513713,24.5381374 23.3344667,24.3793061 C23.3292923,23.9434158 23.2469644,23.5202955 23.0062081,23.225799 C22.8072202,22.9823941 22.4992872,22.83 22.0407302,22.83 C21.3538339,22.83 20.7276879,23.1225761 20.2357049,23.4366813 L20.2357049,23.4366813 L19.5760961,22.7099639 C20.1803683,22.3163902 21.1367494,21.818 22.2207302,21.818 Z M23.3347302,25.2004693 C22.3138081,25.3268106 21.6148644,25.5136817 21.1639031,25.765852 C20.9309424,25.8961198 20.7652709,26.0434556 20.6571229,26.2093565 C20.544359,26.3823381 20.4947302,26.5751637 20.4947302,26.788 C20.4947302,27.1207371 20.5989861,27.3612542 20.7759524,27.5216298 C20.9766527,27.7035145 21.2679476,27.782 21.5967302,27.782 C22.1605206,27.782 22.6270825,27.5388107 23.3347302,26.9447233 L23.3347302,25.2004693 Z M31.8227302,18.95 L31.8227302,28.602 L30.8412694,28.602 L30.7404459,27.8850329 C30.2026447,28.3682788 29.5319345,28.758 28.7727302,28.758 C27.9300998,28.758 27.2385283,28.4342518 26.7605443,27.8282364 C26.2974391,27.2410851 26.0347302,26.3866576 26.0347302,25.3 C26.0347302,24.2708437 26.3478233,23.4277941 26.8394355,22.8294916 C27.3732714,22.179802 28.1177779,21.818 28.9047302,21.818 C29.5826502,21.818 30.0497428,22.0375229 30.5442992,22.4147257 L30.5442992,22.4147257 L30.6307302,21.508 L30.6307302,18.95 L31.8227302,18.95 Z M29.0967302,22.842 C28.5760772,22.842 28.1131206,23.0952262 27.783073,23.5324867 C27.4588754,23.961997 27.2627302,24.5681026 27.2627302,25.288 C27.2627302,26.0651473 27.4219146,26.6851638 27.7261473,27.1090613 C28.0226827,27.522234 28.4575236,27.746 29.0127302,27.746 C29.5433218,27.746 30.0147716,27.5029012 30.6307302,26.8755983 L30.6307302,23.4984895 C30.0971047,23.0277602 29.6202939,22.842 29.0967302,22.842 Z M18.3327302,21.818 C17.6250822,21.818 16.9801198,22.2971072 16.4862808,23.067922 L16.3988527,21.986 L15.4027302,21.986 L15.4027302,28.602 L16.5938399,28.602 L16.6731899,24.185674 C16.8658409,23.7559034 17.0967668,23.4525941 17.3386497,23.250078 C17.6233168,23.0117408 17.9224576,22.914 18.1887302,22.914 C18.4699163,22.914 18.6250593,22.941648 18.8691632,23.043908 L18.9584037,21.923055 C18.7770534,21.845815 18.5866102,21.818 18.3327302,21.818 Z M29.4327302,7.818 C29.735216,7.818 30.0127789,7.87611489 30.2311145,7.94452247 L30.2311145,7.94452247 L32.6627302,7.98686305 L32.6627302,8.926 L31.3980579,8.926 C31.6734687,9.23584727 31.8587302,9.69178693 31.8587302,10.22 C31.8587302,10.9140399 31.601331,11.4822094 31.1819171,11.882559 C30.7420423,12.3024396 30.1229975,12.538 29.4327302,12.538 C29.1124187,12.538 28.7577238,12.457719 28.4683392,12.3193914 C28.2523574,12.5072454 28.0907302,12.7091535 28.0907302,13.04 C28.0907302,13.230761 28.1484757,13.3929935 28.3065017,13.5073812 C28.4528641,13.6133262 28.6806176,13.6783763 29.0137189,13.6942064 L29.0137189,13.6942064 L30.4527302,13.698 C31.2284169,13.698 31.8073934,13.8245172 32.1915936,14.0867491 C32.5762803,14.349313 32.7707302,14.747033 32.7707302,15.296 C32.7707302,15.9371319 32.4251515,16.5337159 31.803971,16.9599274 C31.229907,17.3538107 30.4196239,17.602 29.4327302,17.602 C28.6061465,17.602 27.9103505,17.4354782 27.4268764,17.1217572 C26.9548941,16.8154931 26.6827302,16.3697616 26.6827302,15.8 C26.6827302,15.291958 26.9765852,14.8017675 27.4912343,14.412211 C27.2338109,13.9717903 27.0547302,13.6499651 27.0547302,13.208 C27.0547302,12.7206027 27.3650179,12.3168033 27.6757256,12.0572532 C27.3365859,11.5880564 26.9347302,10.9665494 26.9347302,10.196 C26.9347302,9.48965239 27.2052532,8.91001231 27.636765,8.49965306 C28.0958626,8.06306023 28.7380415,7.818 29.4327302,7.818 Z M28.3753328,14.6061042 C27.9375942,14.9264761 27.7427302,15.2902479 27.7427302,15.656 C27.7427302,15.9900098 27.915729,16.2647148 28.2301204,16.4557374 C28.5492356,16.6496302 29.0115083,16.758 29.5887302,16.758 C30.1756134,16.758 30.6681842,16.610044 31.0217557,16.3811422 C31.3959688,16.1388771 31.6147302,15.8057359 31.6147302,15.464 C31.6147302,15.2085949 31.5246824,15.0294251 31.328733,14.9111494 C31.1166856,14.7831567 30.7882249,14.7242957 30.3311644,14.7099755 L29.2047302,14.71 C28.9675704,14.71 28.661094,14.6754089 28.3753328,14.6061042 Z M29.4327302,8.722 C29.0507628,8.722 28.7054469,8.86634091 28.4610305,9.13393473 C28.2308366,9.38595734 28.0907302,9.74649087 28.0907302,10.196 C28.0907302,10.6416231 28.2348134,11.0084296 28.4679208,11.2676611 C28.713652,11.5409312 29.0579095,11.694 29.4327302,11.694 C29.8020943,11.694 30.1438103,11.5403559 30.3881045,11.2663215 C30.619152,11.0071465 30.7627302,10.6408452 30.7627302,10.196 C30.7627302,9.7496276 30.6237788,9.3877515 30.3941622,9.13417486 C30.1530682,8.86792321 29.8125745,8.722 29.4327302,8.722 Z M2.45979797,7.93395744 L1.54056526,8.85319016 L4.65129545,11.9649939 L1.54055919,15.075736 L2.45979797,15.9949747 L6.49030663,11.9644661 L2.45979797,7.93395744 Z M18.5507302,4.95 L18.5507302,14.602 L17.5692694,14.602 L17.4684459,13.8850329 C16.9306447,14.3682788 16.2599345,14.758 15.5007302,14.758 C14.6580998,14.758 13.9665283,14.4342518 13.4885443,13.8282364 C13.0254391,13.2410851 12.7627302,12.3866576 12.7627302,11.3 C12.7627302,10.2708437 13.0758233,9.42779412 13.5674355,8.82949164 C14.1012714,8.17980199 14.8457779,7.818 15.6327302,7.818 C16.3106502,7.818 16.7777428,8.03752291 17.2722992,8.41472565 L17.2722992,8.41472565 L17.3587302,7.508 L17.3587302,4.95 L18.5507302,4.95 Z M15.8247302,8.842 C15.3040772,8.842 14.8411206,9.0952262 14.511073,9.53248673 C14.1868754,9.96199699 13.9907302,10.5681026 13.9907302,11.288 C13.9907302,12.0651473 14.1499146,12.6851638 14.4541473,13.1090613 C14.7506827,13.522234 15.1855236,13.746 15.7407302,13.746 C16.2713218,13.746 16.7427716,13.5029012 17.3587302,12.8755983 L17.3587302,9.49848946 C16.8251047,9.02776024 16.3482939,8.842 15.8247302,8.842 Z M23.1687302,7.818 C24.0033027,7.818 24.6578806,8.11781996 25.1073215,8.64840994 C25.5655177,9.18933596 25.8107302,9.97235002 25.8107302,10.928 C25.8107302,11.1415606 25.7919656,11.3457334 25.770918,11.4992376 L25.770918,11.4992376 L21.3736943,11.6007901 C21.4173068,12.2583284 21.6395287,12.7985627 21.9980876,13.1770416 C22.3657694,13.5651501 22.8764295,13.782 23.4807302,13.782 C24.0422127,13.782 24.5084724,13.6296158 24.9394318,13.3677689 L24.9394318,13.3677689 L25.5864393,14.0449552 C24.9934586,14.4367728 24.2739333,14.758 23.3487302,14.758 C22.4421969,14.758 21.6270011,14.4162769 21.0500864,13.7861084 C20.5104895,13.1967026 20.1787302,12.3541383 20.1787302,11.3 C20.1787302,10.2772053 20.5099322,9.43809902 21.022034,8.84029859 C21.5843585,8.18387074 22.3650581,7.818 23.1687302,7.818 Z M23.1807302,8.794 C22.7371482,8.794 22.3194035,8.97103466 21.9914884,9.32627603 C21.6953061,9.64714025 21.4726271,10.1122997 21.3676479,10.722 L24.7504378,10.722 C24.7431934,10.1059394 24.6014609,9.62875531 24.3410466,9.30275522 C24.0724231,8.96647842 23.6776557,8.794 23.1807302,8.794 Z" id="形状结合"></path>
            </g>
        </g>
    </g>
</svg>
