<?xml version="1.0" encoding="UTF-8"?>
<svg width="34px" height="34px" viewBox="0 0 34 34" version="1.1" xmlns="http://www.w3.org/2000/svg" xmlns:xlink="http://www.w3.org/1999/xlink">
    <title>deg_hover</title>
    <g id="科学计数模式" stroke="none" stroke-width="1" fill="none" fill-rule="evenodd">
        <g id="计算器-切图light" transform="translate(-279.000000, -905.000000)" fill="#303030" fill-rule="nonzero" stroke="#303030" stroke-width="0.01">
            <g id="deg_hover" transform="translate(279.000000, 905.000000)">
                <path d="M22.756645,23.0255802 C23.5613029,23.0255802 24.1499639,23.2789178 24.5509977,23.7237994 C24.9810098,24.2008276 25.1956367,24.9009202 25.2229512,25.7560443 L25.2229512,25.7560443 L25.225963,30.293355 L24.1665662,30.293355 L24.0689513,29.5002343 C23.3701535,30.0356978 22.5976465,30.460646 21.7528991,30.460646 C21.1374857,30.460646 20.6026369,30.2650408 20.2272765,29.9014842 C19.8706704,29.5560922 19.6568018,29.0585481 19.6568018,28.4288914 C19.6568018,27.6573836 19.9900984,27.0766458 20.6988696,26.6458657 C21.3988699,26.2204164 22.4703579,25.942112 23.9546481,25.77193 C23.949463,25.3024284 23.8610384,24.8464969 23.601776,24.5293635 C23.3878083,24.2676352 23.0567637,24.103589 22.5636169,24.103589 C21.8274788,24.103589 21.1563077,24.4165487 20.628575,24.7531064 L20.628575,24.7531064 L19.9261333,23.9791983 C20.5738803,23.5578009 21.5971252,23.0255802 22.756645,23.0255802 Z M23.954893,26.6451533 C22.8572264,26.7807267 22.1060353,26.9814821 21.6215606,27.2523925 C21.3711344,27.3924267 21.1930869,27.5508473 21.0768352,27.7291793 C20.9555246,27.9152718 20.9021016,28.1227057 20.9021016,28.3516802 C20.9021016,28.7097729 21.0144453,28.9685207 21.2048669,29.1410902 C21.4206877,29.3366779 21.7338815,29.4212428 22.0874811,29.4212428 C22.6931205,29.4212428 23.1943519,29.1601046 23.954893,28.5214336 L23.954893,26.6451533 Z M33.05,19.95 L33.05,30.293355 L32.0042676,30.293355 L31.8956375,29.5208744 C31.3187217,30.0406092 30.5985038,30.460646 29.7828659,30.460646 C28.8804592,30.460646 28.139788,30.1139875 27.6278834,29.4649657 C27.13167,28.835838 26.8503137,27.9202891 26.8503137,26.7559816 C26.8503137,25.6533143 27.1857023,24.7500102 27.7124392,24.1089602 C28.2841904,23.4131269 29.0815609,23.0255802 29.9244198,23.0255802 C30.6528806,23.0255802 31.1540355,23.2622952 31.6856404,23.6687079 L31.6856404,23.6687079 L31.7789632,22.6895241 L31.7789632,19.95 L33.05,19.95 Z M30.1303164,24.1164575 C29.5708594,24.1164575 29.0733523,24.388489 28.7186908,24.858359 C28.3706258,25.3194898 28.1599561,25.9701956 28.1599561,26.7431131 C28.1599561,27.5774461 28.3309884,28.2430198 28.6575933,28.6980894 C28.9762691,29.1421109 29.4435576,29.3826372 30.0402366,29.3826372 C30.614994,29.3826372 31.1252788,29.1173795 31.7789632,28.4471907 L31.7789632,24.8224483 C31.2053857,24.3161156 30.6929649,24.1164575 30.1303164,24.1164575 Z M18.5872392,23.0255802 C17.8266508,23.0255802 17.1339146,23.5427166 16.6044063,24.3733586 L16.5100532,23.2057397 L15.4487904,23.2057397 L15.4487904,30.293355 L16.7189369,30.293355 L16.8039797,25.5601981 C17.0109095,25.0983517 17.2590298,24.7724798 17.5188859,24.5549155 C17.8249347,24.2986766 18.1465589,24.1936687 18.4328167,24.1936687 C18.733164,24.1936687 18.8996704,24.2230539 19.1592871,24.3313323 L19.2543834,23.1369319 C19.0610373,23.0550492 18.8577924,23.0255802 18.5872392,23.0255802 Z M29.5121864,7.99229 C29.8329037,7.99229 30.127179,8.0539495 30.3585982,8.12649322 L30.3585982,8.12649322 L32.9354368,8.1713625 L32.9354368,9.16154673 L31.5901641,9.16154673 C31.88437,9.48982133 32.0825772,9.97486674 32.0825772,10.5372224 C32.0825772,11.2725079 31.8099218,11.8744683 31.3655744,12.2986182 C30.8994957,12.7435114 30.2435586,12.99305 29.5121864,12.99305 C29.172183,12.99305 28.7956103,12.9076685 28.4886734,12.7606173 C28.2581383,12.9608547 28.0855937,13.1758897 28.0855937,13.5285954 C28.0855937,13.7329371 28.1478652,13.9064919 28.3180794,14.0285302 C28.4753074,14.1412577 28.7199415,14.2102026 29.0782749,14.2260814 L29.0782749,14.2260814 L30.5941723,14.229621 C31.4161954,14.229621 32.0298248,14.3635561 32.4369945,14.6414657 C32.8442605,14.9194409 33.05,15.3405534 33.05,15.9216938 C33.05,16.6008637 32.6838044,17.2327627 32.0258097,17.6842335 C31.4172757,18.1017678 30.5583224,18.3647922 29.5121864,18.3647922 C28.636074,18.3647922 27.8985461,18.1883817 27.3860897,17.8558544 C26.8863349,17.5315691 26.5981058,17.0596277 26.5981058,16.4563222 C26.5981058,15.9175209 26.9103382,15.3977916 27.4566917,14.9849968 C27.1832181,14.5171828 26.9927125,14.1758733 26.9927125,13.7068048 C26.9927125,13.1895993 27.3228201,12.7613927 27.6525129,12.4866189 C27.2927364,11.9890902 26.86542,11.3296763 26.86542,10.5117639 C26.86542,9.76341815 27.1519984,9.1492952 27.6091733,8.71453083 C28.0956352,8.25191503 28.7761024,7.99229 29.5121864,7.99229 Z M28.3899383,15.1866022 C27.9237244,15.5273518 27.7164456,15.9144697 27.7164456,16.3035712 C27.7164456,16.6589217 27.9003976,16.9512545 28.2349155,17.1545059 C28.5737942,17.3604069 29.0646756,17.4755789 29.6776666,17.4755789 C30.3009034,17.4755789 30.8239635,17.3184075 31.1994292,17.0753314 C31.5974241,16.8176699 31.8298263,16.4632817 31.8298263,16.0999033 C31.8298263,15.8268168 31.7331239,15.6355944 31.5244013,15.5096087 C31.2987071,15.3733788 30.9495826,15.3112458 30.4654116,15.2970222 L29.2703307,15.2970437 C29.0186012,15.2970437 28.6931912,15.2602709 28.3899383,15.1866022 Z M29.5121864,8.94514954 C29.1061134,8.94514954 28.7390265,9.09863361 28.4791924,9.3831071 C28.2345654,9.65093153 28.0855937,10.0340469 28.0855937,10.5117639 C28.0855937,10.9853308 28.2387702,11.3751056 28.4864856,11.6505821 C28.7477255,11.9410989 29.1137075,12.1038367 29.5121864,12.1038367 C29.9048742,12.1038367 30.2681674,11.9404896 30.5278875,11.6491514 C30.7734123,11.3737365 30.9260498,10.9845007 30.9260498,10.5117639 C30.9260498,10.0373851 30.7783091,9.6528452 30.5342975,9.38337151 C30.2779873,9.10031585 29.9160139,8.94514954 29.5121864,8.94514954 Z M0.900093677,8.11655284 L-0.0707045788,9.0873511 L3.22906647,12.388261 L-0.0707106453,15.6880442 L0.900093677,16.6588485 L5.17124151,12.3877007 L0.900093677,8.11655284 Z M17.9658425,4.95 L17.9658425,15.1824805 L16.9304175,15.1824805 L16.8230395,14.4189034 C16.2523963,14.9327864 15.5401181,15.3479607 14.7335308,15.3479607 C13.8407105,15.3479607 13.1079136,15.0049764 12.601449,14.3628516 C12.1105452,13.7404558 11.8321795,12.8347091 11.8321795,11.6828546 C11.8321795,10.5919764 12.1639924,9.69833555 12.6850963,9.06414105 C13.2507669,8.37570791 14.0396595,7.99229 14.8735525,7.99229 C15.593908,7.99229 16.0896006,8.2262475 16.6152635,8.62797548 L16.6152635,8.62797548 L16.707481,7.66041259 L16.707481,4.95 L17.9658425,4.95 Z M15.0772204,9.07244201 C14.5239865,9.07244201 14.0320205,9.34145762 13.6813064,9.80609796 C13.337069,10.2621577 13.1287287,10.9057108 13.1287287,11.6701254 C13.1287287,12.4952873 13.2978609,13.1535549 13.6208779,13.6036253 C13.9360029,14.0426995 14.3980877,14.2805379 14.9881157,14.2805379 C15.5518557,14.2805379 16.0528364,14.0223688 16.707481,13.3554451 L16.707481,9.77049409 C16.1403107,9.2698713 15.6336008,9.07244201 15.0772204,9.07244201 Z M22.8675195,7.99229 C23.7517838,7.99229 24.4453854,8.30989018 24.9216016,8.87208983 C25.4072479,9.44542221 25.6670368,10.275378 25.6670368,11.2882479 C25.6670368,11.5134448 25.6473529,11.7287942 25.6251843,11.8912221 L25.6251843,11.8912221 L20.9601579,11.9989594 C21.0059702,12.698699 21.2421764,13.2735144 21.6235304,13.6760548 C22.0141035,14.0883263 22.5565418,14.3187257 23.1984799,14.3187257 C23.8035372,14.3187257 24.3044593,14.1520753 24.7677503,13.8664279 L24.7677503,13.8664279 L25.4260456,14.595014 C24.7983212,15.0090208 24.0368965,15.3479607 23.0584582,15.3479607 C22.0977298,15.3479607 21.2337774,14.9858432 20.6223657,14.3179934 C20.0504225,13.6932555 19.698854,12.8001606 19.698854,11.6828546 C19.698854,10.5987407 20.049864,9.70930119 20.5926749,9.07565252 C21.1885678,8.3800388 22.0158613,7.99229 22.8675195,7.99229 Z M22.8802488,9.02152502 C22.4078728,9.02152502 21.9630569,9.21042664 21.6144862,9.58804494 C21.2990719,9.92974377 21.0626812,10.4248928 20.9532374,11.0727677 L24.5484218,11.0727677 C24.5411618,10.4169374 24.3904657,9.9091194 24.1134523,9.56233968 C23.8279548,9.2049391 23.4084245,9.02152502 22.8802488,9.02152502 Z" id="形状结合"></path>
            </g>
        </g>
    </g>
</svg>
