<?xml version="1.0" encoding="UTF-8"?>
<svg width="30px" height="30px" viewBox="0 0 30 30" version="1.1" xmlns="http://www.w3.org/2000/svg" xmlns:xlink="http://www.w3.org/1999/xlink">
    <!-- Generator: Sketch 58 (84663) - https://sketch.com -->
    <title>÷_normal</title>
    <desc>Created with Sketch.</desc>
    <g id="计算器" stroke="none" stroke-width="1" fill="none" fill-rule="evenodd">
        <g id="计算器1" transform="translate(-51.000000, -948.000000)" fill="#2CA7F8">
            <path d="M64.32,956.502012 C64.32,957.317389 65.0057143,958.004023 65.82,958.004023 C66.6342857,958.004023 67.32,957.317389 67.32,956.502012 C67.32,955.665177 66.6342857,955 65.82,955 C65.0057143,955 64.32,955.665177 64.32,956.502012 Z M57,962.009388 L57,964.01207 L75,964.01207 L75,962.009388 L57,962.009388 Z M64.32,969.519446 C64.32,970.334823 65.0057143,971 65.82,971 C66.6342857,971 67.32,970.334823 67.32,969.519446 C67.32,968.682611 66.6342857,968.017434 65.82,968.017434 C65.0057143,968.017434 64.32,968.682611 64.32,969.519446 Z" id="÷_normal"></path>
        </g>
    </g>
</svg>