<?xml version="1.0" encoding="UTF-8"?>
<svg width="36px" height="36px" viewBox="0 0 36 36" version="1.1" xmlns="http://www.w3.org/2000/svg" xmlns:xlink="http://www.w3.org/1999/xlink">
    <title>empty_hover</title>
    <g id="科学计数模式" stroke="none" stroke-width="1" fill="none" fill-rule="evenodd">
        <g id="计算器-切图light" transform="translate(-284.000000, -637.000000)">
            <g id="empty_hover" transform="translate(284.000000, 637.000000)">
                <rect id="矩形" fill-opacity="0.1" fill="#000000" x="0" y="0" width="36" height="36" rx="8"></rect>
                <path d="M20,10 L17,10 L16,10 L16,11 L17,11 L20,11 L21,11 L21,10 L20,10 Z M11,13 L12,13 L25,13 L26,13 L26,12 L25,12 L12,12 L11,12 L11,13 Z M13,15 L13,26 L14,26 L23,26 L24,26 L24,15 L24,14 L23,14 L23,15 L23,25 L14,25 L14,15 L14,14 L13,14 L13,15 Z M16,16 L16,23 L16,24 L17,24 L17,23 L17,16 L17,15 L16,15 L16,16 Z M18,16 L18,23 L18,24 L19,24 L19,23 L19,16 L19,15 L18,15 L18,16 Z M20,16 L20,23 L20,24 L21,24 L21,23 L21,16 L21,15 L20,15 L20,16 Z" id="line34500" fill="#001A2E" fill-rule="nonzero"></path>
                <rect id="矩形" x="0" y="0" width="36" height="36"></rect>
            </g>
        </g>
    </g>
</svg>