<?xml version="1.0" encoding="UTF-8"?>
<svg width="34px" height="34px" viewBox="0 0 34 34" version="1.1" xmlns="http://www.w3.org/2000/svg" xmlns:xlink="http://www.w3.org/1999/xlink">
    <title>grad_hover</title>
    <g id="科学计数模式" stroke="none" stroke-width="1" fill="none" fill-rule="evenodd">
        <g id="计算器-切图light" transform="translate(-279.000000, -1013.000000)" fill-rule="nonzero">
            <g id="grad_hover" transform="translate(279.000000, 1013.000000)">
                <polygon id="down-copy-2" fill="#0B204A" transform="translate(2.550265, 12.387701) rotate(-90.000000) translate(-2.550265, -12.387701) " points="5.8506089 9.83743526 6.75070258 10.7375289 2.55026542 14.9379661 -1.65017174 10.7375289 -0.750078064 9.83743526 2.54969907 13.1372063"></polygon>
                <path d="M22.756645,21.0255802 C23.5912804,21.0255802 24.1935257,21.2980578 24.5950202,21.7742985 C25.0261958,22.2857463 25.2259298,23.0355431 25.2259298,23.9452638 L25.2259298,23.9452638 L25.2259298,28.293355 L24.1665662,28.293355 L24.0689513,27.5002343 C23.3701535,28.0356978 22.5976465,28.460646 21.7528991,28.460646 C21.1374857,28.460646 20.6026369,28.2650408 20.2272765,27.9014842 C19.8706704,27.5560922 19.6568018,27.0585481 19.6568018,26.4288914 C19.6568018,25.6573836 19.9900984,25.0766458 20.6988696,24.6458657 C21.3988699,24.2204164 22.4703579,23.942112 23.9546481,23.77193 C23.949463,23.3024284 23.8610384,22.8464969 23.601776,22.5293635 C23.3878083,22.2676352 23.0567637,22.103589 22.5636169,22.103589 C21.741452,22.103589 21.0003296,22.4937672 20.4494605,22.8717186 L20.4494605,22.8717186 L19.9358445,21.9728906 C20.5840814,21.55251 21.6029032,21.0255802 22.756645,21.0255802 Z M23.954893,24.6451533 C22.8572264,24.7807267 22.1060353,24.9814821 21.6215606,25.2523925 C21.3711344,25.3924267 21.1930869,25.5508473 21.0768352,25.7291793 C20.9555246,25.9152718 20.9021016,26.1227057 20.9021016,26.3516802 C20.9021016,26.7097729 21.0144453,26.9685207 21.2048669,27.1410902 C21.4206877,27.3366779 21.7338815,27.4212428 22.0874811,27.4212428 C22.752849,27.4212428 23.2923752,27.1069903 23.954893,26.5221854 L23.954893,24.6451533 Z M33.05,17.95 L33.05,28.293355 L32.0042676,28.293355 L31.8956375,27.5208744 C31.3187217,28.0406092 30.5985038,28.460646 29.7828659,28.460646 C28.8804592,28.460646 28.139788,28.1139875 27.6278834,27.4649657 C27.13167,26.835838 26.8503137,25.9202891 26.8503137,24.7559816 C26.8503137,23.6533143 27.1857023,22.7500102 27.7124392,22.1089602 C28.2841904,21.4131269 29.0815609,21.0255802 29.9244198,21.0255802 C30.7216059,21.0255802 31.2464646,21.3089949 31.8373495,21.7883911 L31.8373495,21.7883911 L31.7789632,20.6895241 L31.7789632,17.95 L33.05,17.95 Z M30.1303164,22.1164575 C29.5708594,22.1164575 29.0733523,22.388489 28.7186908,22.858359 C28.3706258,23.3194898 28.1599561,23.9701956 28.1599561,24.7431131 C28.1599561,25.5774461 28.3309884,26.2430198 28.6575933,26.6980894 C28.9762691,27.1421109 29.4435576,27.3826372 30.0402366,27.3826372 C30.6664084,27.3826372 31.2163867,27.0688963 31.7789632,26.4482595 L31.7789632,22.8224483 C31.2053857,22.3161156 30.6929649,22.1164575 30.1303164,22.1164575 Z M18.5872392,21.0255802 C17.8266508,21.0255802 17.1339146,21.5427166 16.6044063,22.3733586 L16.5100532,21.2057397 L15.4487904,21.2057397 L15.4487904,28.293355 L16.7198272,28.293355 L16.7198272,23.7616013 C16.9261299,23.2317998 17.1832807,22.858752 17.4563686,22.6095843 C17.7808006,22.3135697 18.1269454,22.1936687 18.4328167,22.1936687 C18.7301095,22.1936687 18.8962699,22.2224592 19.151395,22.3280532 L19.3902597,21.2039837 C19.1533019,21.0704703 18.9216072,21.0255802 18.5872392,21.0255802 Z M10.6087466,7.96649471 C10.9972078,7.96649471 11.3472841,8.05602368 11.595633,8.14665422 L11.595633,8.14665422 L14.0689087,8.14665422 L14.0689087,9.14745177 L12.708237,9.14745177 C13.0060348,9.47924387 13.2067168,9.96984933 13.2067168,10.5387279 C13.2067168,11.2818915 12.9311474,11.8903061 12.4820375,12.3190019 C12.0109537,12.7686727 11.34797,13.0208812 10.6087466,13.0208812 C10.2649717,13.0208812 9.88420797,12.9345203 9.57393184,12.7858163 C9.34062149,12.9884166 9.16599633,13.2059579 9.16599633,13.5628339 C9.16599633,13.7839879 9.238456,13.9693029 9.43867328,14.0936484 C9.6236456,14.208526 9.91176924,14.2720776 10.3385073,14.2720776 L10.3385073,14.2720776 L11.7025722,14.2720776 C12.5334456,14.2720776 13.1536939,14.4074296 13.5652509,14.6883337 C13.9768297,14.9692525 14.1847256,15.3948331 14.1847256,15.9821188 C14.1847256,16.6685541 13.814592,17.3071985 13.1495657,17.7634939 C12.5344477,18.1855456 11.6661982,18.4514036 10.6087466,18.4514036 C9.72317396,18.4514036 8.97767512,18.2731043 8.45968297,17.936985 C7.95462348,17.6092575 7.66332586,17.1323099 7.66332586,16.5225973 C7.66332586,15.9344173 8.03179356,15.3685115 8.66884088,14.9371843 C8.31318388,14.6614669 8.06225049,14.2858418 8.06225049,13.7429934 C8.06225049,13.1730917 8.45938896,12.7101601 8.81898133,12.4385818 C8.36300606,12.0042957 7.93356513,11.3382508 7.93356513,10.5129908 C7.93356513,9.7566232 8.22321014,9.13591386 8.68528682,8.696488 C9.17697551,8.22890169 9.86475585,7.96649471 10.6087466,7.96649471 Z M9.47406003,15.2383819 C9.00244624,15.58306 8.79280878,15.9746254 8.79280878,16.3681749 C8.79280878,16.7276015 8.97885287,17.0233013 9.31721508,17.2288885 C9.65986868,17.4370831 10.1562145,17.5535544 10.7760375,17.5535544 C11.4062181,17.5535544 11.9351018,17.3946227 12.3147494,17.1488393 C12.7172868,16.8882371 12.9522943,16.5297905 12.9522943,16.1622783 C12.9522943,15.8727866 12.8449412,15.6741435 12.6345165,15.5471304 C12.3989278,15.4049282 12.041345,15.3500863 11.5738868,15.3500863 L10.3642444,15.3500863 C10.1097177,15.3500863 9.78066854,15.3128926 9.47406003,15.2383819 Z M10.6087466,8.92868665 C10.1980694,8.92868665 9.826824,9.08391711 9.5640451,9.37161469 C9.31666126,9.64245735 9.16599633,10.029886 9.16599633,10.5129908 C9.16599633,10.9918951 9.32090965,11.3860569 9.57141523,11.6646364 C9.83561736,11.9584474 10.2057488,12.123032 10.6087466,12.123032 C11.0058894,12.123032 11.3733039,11.9578315 11.6359704,11.6631882 C11.8842605,11.3846715 12.0386283,10.991055 12.0386283,10.5129908 C12.0386283,10.0332627 11.8892088,9.64439385 11.6424477,9.37188375 C11.3832311,9.08561844 11.0171549,8.92868665 10.6087466,8.92868665 Z M22.756645,8.02558021 C23.5912804,8.02558021 24.1935257,8.29805778 24.5950202,8.77429854 C25.0261958,9.28574626 25.2259298,10.0355431 25.2259298,10.9452638 L25.2259298,10.9452638 L25.2259298,15.293355 L24.1665662,15.293355 L24.0689513,14.5002343 C23.3701535,15.0356978 22.5976465,15.460646 21.7528991,15.460646 C21.1374857,15.460646 20.6026369,15.2650408 20.2272765,14.9014842 C19.8706704,14.5560922 19.6568018,14.0585481 19.6568018,13.4288914 C19.6568018,12.6573836 19.9900984,12.0766458 20.6988696,11.6458657 C21.3988699,11.2204164 22.4703579,10.942112 23.9546481,10.77193 C23.949463,10.3024284 23.8610384,9.84649692 23.601776,9.52936351 C23.3878083,9.26763515 23.0567637,9.10358898 22.5636169,9.10358898 C21.741452,9.10358898 21.0003296,9.49376717 20.4494605,9.87171862 L20.4494605,9.87171862 L19.9358445,8.97289055 C20.5840814,8.55250996 21.6029032,8.02558021 22.756645,8.02558021 Z M23.954893,11.6451533 C22.8572264,11.7807267 22.1060353,11.9814821 21.6215606,12.2523925 C21.3711344,12.3924267 21.1930869,12.5508473 21.0768352,12.7291793 C20.9555246,12.9152718 20.9021016,13.1227057 20.9021016,13.3516802 C20.9021016,13.7097729 21.0144453,13.9685207 21.2048669,14.1410902 C21.4206877,14.3366779 21.7338815,14.4212428 22.0874811,14.4212428 C22.752849,14.4212428 23.2923752,14.1069903 23.954893,13.5221854 L23.954893,11.6451533 Z M33.05,4.95 L33.05,15.293355 L32.0042676,15.293355 L31.8956375,14.5208744 C31.3187217,15.0406092 30.5985038,15.460646 29.7828659,15.460646 C28.8804592,15.460646 28.139788,15.1139875 27.6278834,14.4649657 C27.13167,13.835838 26.8503137,12.9202891 26.8503137,11.7559816 C26.8503137,10.6533143 27.1857023,9.75001024 27.7124392,9.1089602 C28.2841904,8.41312687 29.0815609,8.02558021 29.9244198,8.02558021 C30.7216059,8.02558021 31.2464646,8.30899492 31.8373495,8.78839114 L31.8373495,8.78839114 L31.7789632,7.68952412 L31.7789632,4.95 L33.05,4.95 Z M30.1303164,9.11645752 C29.5708594,9.11645752 29.0733523,9.38848898 28.7186908,9.858359 C28.3706258,10.3194898 28.1599561,10.9701956 28.1599561,11.7431131 C28.1599561,12.5774461 28.3309884,13.2430198 28.6575933,13.6980894 C28.9762691,14.1421109 29.4435576,14.3826372 30.0402366,14.3826372 C30.6664084,14.3826372 31.2163867,14.0688963 31.7789632,13.4482595 L31.7789632,9.82244832 C31.2053857,9.31611564 30.6929649,9.11645752 30.1303164,9.11645752 Z M18.5872392,8.02558021 C17.8266508,8.02558021 17.1339146,8.54271662 16.6044063,9.37335862 L16.5100532,8.20573972 L15.4487904,8.20573972 L15.4487904,15.293355 L16.7198272,15.293355 L16.7198272,10.7616013 C16.9261299,10.2317998 17.1832807,9.85875201 17.4563686,9.60958429 C17.7808006,9.31356969 18.1269454,9.19366874 18.4328167,9.19366874 C18.7301095,9.19366874 18.8962699,9.22245923 19.151395,9.32805319 L19.3902597,8.20398372 C19.1533019,8.07047035 18.9216072,8.02558021 18.5872392,8.02558021 Z" id="gradrad" stroke="#303030" stroke-width="0.01" fill="#303030"></path>
            </g>
        </g>
    </g>
</svg>
