<?xml version="1.0" encoding="UTF-8"?>
<svg width="34px" height="34px" viewBox="0 0 34 34" version="1.1" xmlns="http://www.w3.org/2000/svg" xmlns:xlink="http://www.w3.org/1999/xlink">
    <title>icon_ls_normal</title>
    <g id="程序员" stroke="none" stroke-width="1" fill="none" fill-rule="evenodd">
        <g id="切图" transform="translate(-259.000000, -242.000000)">
            <g id="icon_ls_normal备份" transform="translate(259.000000, 242.000000)">
                <path d="M17.4686733,10.2119378 C17.2176028,9.9607443 16.8277608,9.9328339 16.5457172,10.1282444 L16.4454855,10.2119916 L10.2117986,16.4454843 C10.0742389,16.583179 10,16.7662846 10,16.9571059 C10,17.1098565 10.0474386,17.2574451 10.1368506,17.3808761 L10.2116942,17.4686231 L16.4454888,23.7022234 C16.728132,23.9848666 17.186219,23.9848666 17.4687238,23.7022234 C17.7197971,23.4511501 17.7476941,23.0611236 17.5524149,22.7791718 L17.4687238,22.6789884 L11.7468413,16.9571059 L17.4686733,11.2352739 C17.719799,10.9840252 17.7477018,10.5941018 17.5524173,10.3121692 L17.4686733,10.2119378 Z M23.7881064,10.2119378 C23.5370359,9.9607443 23.1471939,9.9328339 22.8651504,10.1282444 L22.7649187,10.2119916 L16.5312316,16.4454844 C16.3935559,16.5832951 16.3194331,16.7661675 16.3194331,16.9571059 C16.3194331,17.1097629 16.366946,17.2574819 16.4563283,17.3809095 L16.5311273,17.4686231 L22.7649219,23.7022234 C23.0475651,23.9848666 23.5056521,23.9848666 23.7881569,23.7022234 C24.0392302,23.4511501 24.0671272,23.0611236 23.871848,22.7791718 L23.7881569,22.6789884 L18.0662744,16.9571059 L23.7881064,11.2352739 C24.0706228,10.9526191 24.0706228,10.4944542 23.7881064,10.2119378 Z" id="形状" fill="#000000" fill-rule="nonzero"></path>
                <rect id="矩形" x="0" y="0" width="34" height="34"></rect>
            </g>
        </g>
    </g>
</svg>