<?xml version="1.0" encoding="UTF-8"?>
<svg width="25px" height="25px" viewBox="0 0 25 25" version="1.1" xmlns="http://www.w3.org/2000/svg" xmlns:xlink="http://www.w3.org/1999/xlink">
    <title>icon_history_checked</title>
    <g id="程序员" stroke="none" stroke-width="1" fill="none" fill-rule="evenodd">
        <g id="切图" transform="translate(-1002.000000, -140.000000)">
            <g id="Group-14" transform="translate(970.000000, 140.000000)">
                <g id="icon_history_checked" transform="translate(32.000000, 0.000000)">
                    <path d="M12.5,5 C16.6421356,5 20,8.35786438 20,12.5 C20,16.6421356 16.6421356,20 12.5,20 C8.35786438,20 5,16.6421356 5,12.5 C5,8.35786438 8.35786438,5 12.5,5 Z M12.3073629,7.8125 C12.0484793,7.8125 11.8386129,8.02613797 11.8386129,8.28240922 L11.8386129,12.4960016 C11.8386129,13.0159766 12.261402,13.4375 12.7801113,13.4375 L16.9937037,13.4375 C17.2532271,13.4375 17.4636129,13.2294383 17.4636129,12.96875 C17.4636129,12.7098664 17.2500204,12.5 16.9970201,12.5 L13.2427057,12.5 C12.9850137,12.5 12.7761129,12.2864075 12.7761129,12.0334072 L12.7761129,8.27909281 C12.7761129,8.02140078 12.5680512,7.8125 12.3073629,7.8125 Z" id="形状结合" fill="#FFFFFF" fill-rule="nonzero"></path>
                    <rect id="矩形" x="0" y="0" width="25" height="25"></rect>
                </g>
            </g>
        </g>
    </g>
</svg>