<?xml version="1.0" encoding="UTF-8"?>
<svg width="25px" height="25px" viewBox="0 0 25 25" version="1.1" xmlns="http://www.w3.org/2000/svg" xmlns:xlink="http://www.w3.org/1999/xlink">
    <title>icon_memory_checked</title>
    <g id="程序员" stroke="none" stroke-width="1" fill="none" fill-rule="evenodd">
        <g id="切图" transform="translate(-973.000000, -140.000000)">
            <g id="Group-14" transform="translate(970.000000, 140.000000)">
                <g id="icon_memory_checked">
                    <g transform="translate(3.000000, 0.000000)">
                        <g id="app_highlight" transform="translate(4.000000, 5.000000)">
                            <g id="Group-13" transform="translate(0.000000, 0.208333)">
                                <path d="M12.0014977,3.125 C12.5529553,3.125 13,3.57418025 13,4.12180736 L13,13.586526 C13,14.1370475 12.5525106,14.5833333 12.0014977,14.5833333 L0.998502329,14.5833333 C0.44704472,14.5833333 0,14.1341531 0,13.586526 L0,4.12180736 C0,3.57128586 0.447489426,3.125 0.998502329,3.125 L12.0014977,3.125 Z M4.70833333,6.125 L3,6.125 L3,12.125 L4.38541667,12.125 L4.38541667,9.62297571 C4.38541667,9.05617409 4.26041667,8.22216599 4.1875,7.65536437 L4.22916667,7.65536437 L4.84375,9.06427126 L6.04166667,11.5824899 L6.92708333,11.5824899 L8.11458333,9.06427126 L8.73958333,7.65536437 L8.79166667,7.65536437 C8.70833333,8.22216599 8.59375,9.05617409 8.59375,9.62297571 L8.59375,12.125 L10,12.125 L10,6.125 L8.29166667,6.125 L7.01041667,8.9347166 C6.84375,9.30718623 6.70833333,9.70394737 6.54166667,10.0845142 L6.48958333,10.0845142 C6.33333333,9.70394737 6.1875,9.30718623 6.02083333,8.9347166 L4.70833333,6.125 Z" id="Combined-Shape" fill="#FFFFFF"></path>
                                <polyline id="Path-7" stroke="#FFFFFF" stroke-linecap="round" stroke-linejoin="round" points="2 0.520833333 15.5 0.520833333 15.5 11.4583333"></polyline>
                                <g id="Group-12" transform="translate(3.000000, 4.166667)"></g>
                            </g>
                        </g>
                        <rect id="矩形" x="0" y="0" width="25" height="25"></rect>
                    </g>
                </g>
            </g>
        </g>
    </g>
</svg>