<?xml version="1.0" encoding="UTF-8"?>
<svg width="34px" height="34px" viewBox="0 0 34 34" version="1.1" xmlns="http://www.w3.org/2000/svg" xmlns:xlink="http://www.w3.org/1999/xlink">
    <title>icon_ro_hover</title>
    <g id="程序员" stroke="none" stroke-width="1" fill="none" fill-rule="evenodd">
        <g id="切图" transform="translate(-303.000000, -287.000000)">
            <g id="icon_ro_hover_list" transform="translate(303.000000, 287.000000)">
                <g id="循环" transform="translate(10.000000, 10.000000)" fill="#FFFFFF" fill-rule="nonzero">
                    <path d="M14.4257579,6.70144087 C14.735798,6.70144087 14.9871351,6.95277802 14.9871351,7.26281811 L14.9871351,8.57269836 C14.9871351,10.5362856 13.3953331,12.1280876 11.4317459,12.1280876 L1.70399674,12.1274409 L3.1280408,13.5511789 C3.32302155,13.7461597 3.34468608,14.0488253 3.19303437,14.2677361 L3.12804078,14.3455277 C2.93306002,14.5405084 2.63039436,14.562173 2.41148361,14.4105213 L2.333692,14.3455277 L0.349223434,12.3629304 C0.137822401,12.1522621 0.0189967444,11.8660945 0.0189967444,11.567646 C0.0189967444,11.3118329 0.106297227,11.0650426 0.264367403,10.867086 L0.349223434,10.7723615 L2.333692,8.78789296 C2.43909879,8.68235482 2.58217363,8.62310501 2.7313342,8.62322214 C2.95864808,8.62304299 3.16363397,8.75996348 3.25052374,8.97001538 C3.32500068,9.15005987 3.30011148,9.35336969 3.1900837,9.50882893 L3.1280408,9.58224176 L1.70499674,11.0044409 L11.4317459,11.0053331 C12.7752529,11.0053331 13.8643806,9.91620542 13.8643806,8.57269836 L13.8643806,7.26281811 C13.8643806,6.95277802 14.1157178,6.70144087 14.4257579,6.70144087 Z M12.250421,0.0154376983 C12.3697495,0.0153440026 12.4851831,0.0532451468 12.5805517,0.122444881 L12.6480632,0.180108539 L14.6325318,2.16270584 C14.8439328,2.37337411 14.9627585,2.65954176 14.9627585,2.95799027 C14.9627585,3.21380329 14.875458,3.46059362 14.7173878,3.6585502 L14.6325318,3.75327471 L12.6480632,5.73774327 C12.5061665,5.87964003 12.2993475,5.93505702 12.1055129,5.88311921 C11.9116783,5.83118139 11.7602763,5.67977936 11.7083385,5.4859448 C11.665057,5.32441599 11.6963274,5.15387021 11.7900694,5.01939235 L11.8537144,4.94339447 L13.2770752,3.51943752 L3.57246445,3.52030315 C2.22895739,3.52030315 1.13982972,4.60943081 1.13982971,5.95293787 L1.13982971,7.26281811 C1.13982971,7.41170462 1.08068478,7.55449312 0.975406121,7.65977177 C0.870127466,7.76505043 0.727338967,7.82419536 0.578452464,7.82419536 C0.268412373,7.82419536 0.0170752187,7.57285821 0.0170752187,7.26281811 L0.0170752187,5.95293787 C0.0170752187,3.98935063 1.6088772,2.39754866 3.57246445,2.39754866 L13.2770752,2.39743752 L11.8537144,0.974457341 C11.7157023,0.836923736 11.6604575,0.639686894 11.7022077,0.453862731 L11.7312315,0.362230947 C11.8181212,0.152179037 12.0231071,0.0152585434 12.250421,0.0154376983 Z" id="形状结合"></path>
                </g>
                <rect id="矩形" x="0" y="0" width="34" height="34"></rect>
            </g>
        </g>
    </g>
</svg>