<?xml version="1.0" encoding="UTF-8"?>
<svg width="34px" height="34px" viewBox="0 0 34 34" version="1.1" xmlns="http://www.w3.org/2000/svg" xmlns:xlink="http://www.w3.org/1999/xlink">
    <title>icon_ls_hover</title>
    <g id="程序员" stroke="none" stroke-width="1" fill="none" fill-rule="evenodd">
        <g id="切图" transform="translate(-303.000000, -246.000000)">
            <g id="icon_ls_hover_list" transform="translate(303.000000, 246.000000)">
                <path d="M17.6040396,11.3256399 L17.6871186,11.3963493 C17.948757,11.6579877 17.948757,12.082352 17.687084,12.3441532 L12.8180032,17.2132339 L17.6871186,22.0823493 C17.9487512,22.3439819 17.9487512,22.768486 17.6871186,23.0301186 C17.4254535,23.2919119 17.0011426,23.2919119 16.7393493,23.0301186 L11.3960974,17.6870332 C11.2686996,17.5595104 11.2,17.3900177 11.2,17.2132339 C11.2,17.0365488 11.2688005,16.8668566 11.396169,16.7393632 L16.7393471,11.3963515 C16.974963,11.1607356 17.3422165,11.137174 17.6040396,11.3256399 Z M23.1037409,11.3963147 C23.3654139,11.6579877 23.3654139,12.082352 23.1037409,12.3441532 L18.2346602,17.2132339 L23.1037755,22.0823493 C23.3654082,22.3439819 23.3654082,22.768486 23.1037755,23.0301186 C22.8421105,23.2919119 22.4177996,23.2919119 22.1560063,23.0301186 L16.8127544,17.6870332 C16.6854575,17.5596113 16.616657,17.3899191 16.616657,17.2132339 C16.616657,17.0364502 16.6853566,16.8669574 16.8128258,16.7393632 L22.1560041,11.3963515 C22.4177996,11.134556 22.8421105,11.134556 23.1037409,11.3963147 Z" id="形状结合" fill="#FFFFFF" fill-rule="nonzero"></path>
                <rect id="矩形" x="0" y="0" width="34" height="34"></rect>
            </g>
        </g>
    </g>
</svg>