<?xml version="1.0" encoding="UTF-8"?>
<svg width="25px" height="25px" viewBox="0 0 25 25" version="1.1" xmlns="http://www.w3.org/2000/svg" xmlns:xlink="http://www.w3.org/1999/xlink">
    <title>icon_memory_normal</title>
    <g id="程序员" stroke="none" stroke-width="1" fill="none" fill-rule="evenodd">
        <g id="切图" transform="translate(-87.000000, -152.000000)">
            <g id="Group-14备份" transform="translate(84.000000, 152.000000)">
                <g id="icon_memory_normal">
                    <g transform="translate(3.000000, 0.000000)">
                        <g id="app_normal" transform="translate(5.000000, 5.000000)" stroke="#536076" stroke-linecap="round" stroke-linejoin="round">
                            <g id="Group-13" transform="translate(0.000000, 0.208333)">
                                <rect id="Rectangle-13" x="-0.5" y="3.5" width="12" height="10.375" rx="0.25"></rect>
                                <polyline id="Path-7" points="1 0.520833333 14.5 0.520833333 14.5 11.4583333"></polyline>
                                <g id="Group-12" transform="translate(2.000000, 5.250000)" fill="#536076" fill-rule="nonzero" stroke-width="0.3">
                                    <path d="M0.825,6.51947021 L0.825,3.53278689 C0.825,3.02459016 0.759,2.31967213 0.715,1.79508197 L0.759,1.79508197 L1.397,3.1557377 L2.981,5.90471612 L3.608,5.90471612 L5.181,3.1557377 L5.819,1.79508197 L5.863,1.79508197 C5.819,2.31967213 5.753,3.02459016 5.753,3.53278689 L5.753,6.51947021 L6.6,6.51947021 L6.6,1 L5.478,1 L3.905,3.79815874 C3.718,4.22438825 3.542,4.65061776 3.344,5.07684726 L3.289,5.07684726 C3.091,4.65061776 2.904,4.22438825 2.706,3.79815874 L1.122,1 L0,1 L0,6.51947021 L0.825,6.51947021 Z" id="M"></path>
                                </g>
                            </g>
                        </g>
                        <rect id="矩形" x="0" y="0" width="25" height="25"></rect>
                    </g>
                </g>
            </g>
        </g>
    </g>
</svg>