<?xml version="1.0" encoding="UTF-8"?>
<svg width="34px" height="34px" viewBox="0 0 34 34" version="1.1" xmlns="http://www.w3.org/2000/svg" xmlns:xlink="http://www.w3.org/1999/xlink">
    <title>icon_rc_normal</title>
    <g id="程序员" stroke="none" stroke-width="1" fill="none" fill-rule="evenodd">
        <g id="切图" transform="translate(-97.000000, -324.000000)">
            <g id="icon_rc_normal" transform="translate(97.000000, 324.000000)">
                <g id="进出库" transform="translate(9.000000, 9.000000)">
                    <path d="M1.411,11.249 L1.41161061,14.5359571 L14.5360299,14.5359571 L14.534,11.249 L15.696,11.249 L15.6962863,14.2859789 L15.6897512,14.4213374 C15.6249,15.0902306 15.0849093,15.6326831 14.4070958,15.6911092 L14.4070958,15.6911092 L14.2752342,15.696538 L1.66156745,15.696308 L1.52607424,15.6897771 C0.856525053,15.6249664 0.313676755,15.0852917 0.25520639,14.4072382 L0.25520639,14.4072382 L0.249769789,14.2752308 L0.25,11.249 L1.411,11.249 Z M11.9733566,8.853125 L12.0709597,8.85894018 C12.1945347,8.87445534 12.2923587,8.92104893 12.3704156,8.99910579 C12.4676966,9.09715441 12.5163964,9.22415584 12.5163964,9.38920455 C12.5163964,9.55610219 12.467453,9.68616817 12.3687965,9.78790767 C12.2706264,9.88991101 12.1421471,9.94001224 11.9720789,9.93920623 L11.9720789,9.93920623 L4.87428496,9.93920455 L5.88172524,11.0851202 L5.94372564,11.1599446 C6.0145788,11.2590821 6.03874569,11.3563683 6.02306438,11.4597488 C6.00132742,11.6030518 5.92657204,11.7396241 5.79385309,11.8723431 C5.75416991,11.9120263 5.69875375,11.9467562 5.62698376,11.9751488 C5.55404005,12.0047999 5.47786902,12.0193182 5.3967941,12.0193182 C5.3175451,12.0193182 5.2407471,12.0044799 5.16660445,11.9751488 C5.09791869,11.9472143 5.05074283,11.9157638 5.02265109,11.8821758 L5.02265109,11.8821758 L3.32475241,9.79082417 L3.26463923,9.72270863 C3.21086205,9.65301303 3.1758688,9.57853681 3.15764284,9.49891576 C3.13588504,9.40575871 3.16063115,9.30103604 3.23988406,9.17819403 C3.28749691,9.07117253 3.34394245,8.99906915 3.42385001,8.93674125 C3.49496514,8.8819863 3.59011433,8.853125 3.7124191,8.853125 L3.7124191,8.853125 L11.9733566,8.853125 Z M10.1855725,4.15 C10.3204266,4.15 10.4483772,4.20945373 10.5756713,4.33674784 L10.5756713,4.33674784 L12.4161185,6.47118814 C12.4617057,6.5347927 12.4848968,6.60262413 12.4898544,6.68029366 C12.4975413,6.80072063 12.4782301,6.9277453 12.430572,7.06205443 C12.400198,7.1273954 12.3433057,7.19675719 12.2626664,7.25884946 C12.1874595,7.31692987 12.0901954,7.34992339 11.9646616,7.35721245 L11.9646616,7.35721245 L3.7124191,7.35696023 L3.61679329,7.34709062 C3.4948431,7.32658067 3.39495024,7.2766491 3.31536012,7.19705898 C3.21807913,7.09901036 3.16937933,6.97200893 3.16937933,6.80696023 C3.16937933,6.64098709 3.21767322,6.51454838 3.31536012,6.41686147 C3.41387796,6.31756954 3.54573271,6.26424162 3.71884178,6.25682266 L3.71884178,6.25682266 L10.7182488,6.25696023 L9.70688507,5.12316156 L9.66164867,5.03063216 C9.62261043,4.93230963 9.60285424,4.81739381 9.60856803,4.69296005 C9.61552245,4.54150835 9.67115698,4.43149962 9.77914408,4.35087911 L9.77914408,4.35087911 L9.86387863,4.27581502 C9.97478862,4.18827486 10.0783407,4.15 10.1855725,4.15 Z M14.2859571,0.25 L14.4212527,0.256529402 C15.0898712,0.321324029 15.6326283,0.860842013 15.691082,1.53799303 L15.691082,1.53799303 L15.696517,1.66982889 L15.696,4.749 L14.534,4.749 L14.5360287,1.40909086 L1.41156745,1.40909086 L1.411,4.732 L0.25,4.732 L0.25,1.65909086 L0.256537539,1.52387068 C0.321413702,0.855651451 0.861628591,0.313601114 1.5402072,0.255199871 L1.5402072,0.255199871 L1.67227324,0.249770667 L14.2859571,0.25 Z" id="形状结合" fill="#000000" fill-rule="nonzero"></path>
                    <g id="进入-(1)"></g>
                </g>
                <rect id="矩形" x="0" y="0" width="34" height="34"></rect>
            </g>
        </g>
    </g>
</svg>