<?xml version="1.0" encoding="UTF-8"?>
<svg width="34px" height="34px" viewBox="0 0 34 34" version="1.1" xmlns="http://www.w3.org/2000/svg" xmlns:xlink="http://www.w3.org/1999/xlink">
    <title>icon_rc_normal</title>
    <g id="程序员" stroke="none" stroke-width="1" fill="none" fill-rule="evenodd">
        <g id="切图" transform="translate(-259.000000, -324.000000)">
            <g id="icon_rc_normal备份" transform="translate(259.000000, 324.000000)">
                <g id="进出库" transform="translate(8.000000, 8.000000)">
                    <path d="M1.587375,12.655125 L1.58806194,16.3529517 L16.3530337,16.3529517 L16.35075,12.655125 L17.658,12.655125 L17.658322,16.0717262 L17.6509701,16.2240046 C17.5780125,16.9765094 16.970523,17.5867685 16.2079827,17.6524979 L16.2079827,17.6524979 L16.0596384,17.6586053 L1.86926338,17.6583465 L1.71683352,17.6509992 C0.963590684,17.5780872 0.352886349,16.9709531 0.287107189,16.208143 L0.287107189,16.208143 L0.280991013,16.0596347 L0.28125,12.655125 L1.587375,12.655125 Z M13.4700262,9.95976562 L13.5798296,9.9663077 C13.7188515,9.98376226 13.8289036,10.0361801 13.9167175,10.123994 C14.0261587,10.2342987 14.0809459,10.3771753 14.0809459,10.5628551 C14.0809459,10.750615 14.0258847,10.8969392 13.9148961,11.0113961 C13.8044547,11.1261499 13.6599155,11.1825138 13.4685887,11.181607 L13.4685887,11.181607 L5.48357058,11.1816051 L6.6169409,12.4707603 L6.68669134,12.5549377 C6.76640115,12.6664674 6.79358891,12.7759144 6.77594743,12.8922174 C6.75149334,13.0534333 6.66739355,13.2070771 6.51808472,13.356386 C6.47344115,13.4010295 6.41109797,13.4401008 6.33035673,13.4720424 C6.24829505,13.5053999 6.16260265,13.521733 6.07139337,13.521733 C5.98223824,13.521733 5.89584049,13.5050399 5.81243,13.4720424 C5.73515852,13.4406161 5.68208569,13.4052342 5.65048248,13.3674478 L5.65048248,13.3674478 L3.74034647,11.0146772 L3.67271913,10.9380472 C3.6122198,10.8596397 3.5728524,10.7758539 3.55234819,10.6862802 C3.52787067,10.5814785 3.55571004,10.4636655 3.64486956,10.3254683 C3.69843402,10.2050691 3.76193526,10.1239528 3.85183126,10.0538339 C3.93183578,9.99223459 4.03887862,9.95976562 4.17647149,9.95976562 L4.17647149,9.95976562 L13.4700262,9.95976562 Z M11.4587691,4.66875 C11.6104799,4.66875 11.7544243,4.73563544 11.8976302,4.87884131 L11.8976302,4.87884131 L13.9681333,7.28008666 C14.0194189,7.35164179 14.0455089,7.42795214 14.0510862,7.51533037 C14.0597339,7.6508107 14.0380088,7.79371346 13.9843935,7.94481124 C13.9502227,8.01831983 13.886219,8.09635184 13.7954997,8.16620564 C13.7108919,8.2315461 13.6014698,8.26866382 13.4602443,8.27686401 L13.4602443,8.27686401 L4.17647149,8.27658026 L4.06889245,8.26547694 C3.93169848,8.24240325 3.81931902,8.18623023 3.72978014,8.09669136 C3.62033902,7.98638666 3.56555175,7.84351005 3.56555175,7.65783026 C3.56555175,7.47111048 3.61988237,7.32886692 3.72978014,7.21896916 C3.8406127,7.10726574 3.9889493,7.04727182 4.183697,7.03892549 L4.183697,7.03892549 L12.0580299,7.03908026 L10.9202457,5.76355675 L10.8693548,5.65946118 C10.8254367,5.54884833 10.803211,5.41956804 10.809639,5.27958006 C10.8174628,5.10919689 10.8800516,4.98543707 11.0015371,4.894739 L11.0015371,4.894739 L11.0968635,4.8102919 C11.2216372,4.71180921 11.3381333,4.66875 11.4587691,4.66875 Z M16.0717017,0.28125 L16.2239093,0.288595577 C16.9761051,0.361489532 17.5867068,0.968447264 17.6524672,1.73024216 L17.6524672,1.73024216 L17.6585816,1.8785575 L17.658,5.342625 L16.35075,5.342625 L16.3530323,1.58522722 L1.58801338,1.58522722 L1.587375,5.3235 L0.28125,5.3235 L0.28125,1.86647722 L0.288604731,1.71435452 C0.361590415,0.962607882 0.969332164,0.352801253 1.7327331,0.287099855 L1.7327331,0.287099855 L1.8813074,0.280992 L16.0717017,0.28125 Z" id="形状结合" fill="#000000" fill-rule="nonzero"></path>
                    <g id="进入-(1)"></g>
                </g>
                <rect id="矩形" x="0" y="0" width="34" height="34"></rect>
            </g>
        </g>
    </g>
</svg>