<?xml version="1.0" encoding="UTF-8"?>
<svg width="30px" height="30px" viewBox="0 0 30 30" version="1.1" xmlns="http://www.w3.org/2000/svg" xmlns:xlink="http://www.w3.org/1999/xlink">
    <title>square root_press</title>
    <g id="科学计数模式" stroke="none" stroke-width="1" fill="none" fill-rule="evenodd">
        <g id="计算器-切图light" transform="translate(-463.000000, -712.000000)">
            <g id="square-root_press" transform="translate(463.000000, 712.000000)">
                <path d="M24.5,7.16 L24.5,7.88 L17.12,7.88 L11.324,24.53 L10.784,24.53 L8.858,19.472 L7.598,21.272 L7.13,20.93 L9.56,17.51 L11.36,22.226 L16.598,7.16 L24.5,7.16 Z M19.732,13.28 L21.1,15.494 C21.406,16.034 21.748,16.574 22.09,17.114 L22.09,17.114 L22.162,17.114 L23.062,15.494 L24.34,13.28 L25.852,13.28 L22.9,18.068 L26.104,23 L24.502,23 L23.008,20.642 C22.666,20.048 22.306,19.454 21.946,18.878 L21.946,18.878 L21.856,18.878 C21.496,19.454 21.172,20.048 20.83,20.642 L20.83,20.642 L19.444,23 L17.896,23 L21.118,17.924 L18.148,13.28 L19.732,13.28 Z M8.7635,4.805 C10.1935,4.805 11.0735,5.729 11.0735,7.159 C11.0735,8.787 9.7975,10.448 7.8285,12.296 C8.2575,12.252 8.7415,12.23 9.1485,12.23 L9.1485,12.23 L11.4585,12.23 L11.4585,13 L6.4755,13 L6.4755,12.461 C9.0495,10.217 10.1935,8.589 10.1935,7.192 C10.1935,6.246 9.6985,5.531 8.6645,5.531 C7.9935,5.531 7.4105,5.949 6.9485,6.488 L6.9485,6.488 L6.4205,5.982 C7.0695,5.278 7.7625,4.805 8.7635,4.805 Z" id="形状结合" fill="#0081FF" fill-rule="nonzero"></path>
                <rect id="矩形" x="0" y="0" width="30" height="30"></rect>
            </g>
        </g>
    </g>
</svg>