<?xml version="1.0" encoding="UTF-8"?>
<svg width="30px" height="30px" viewBox="0 0 30 30" version="1.1" xmlns="http://www.w3.org/2000/svg" xmlns:xlink="http://www.w3.org/1999/xlink">
    <title>square root_hover</title>
    <g id="科学计数模式" stroke="none" stroke-width="1" fill="none" fill-rule="evenodd">
        <g id="计算器-切图light" transform="translate(-287.000000, -722.000000)">
            <g id="square-root_hover" transform="translate(287.000000, 722.000000)">
                <path d="M23.2573298,7.25890052 L14.8785997,7.25890052 L9.4460643,22.8633901 L7.59561407,18.0036219 L4.93068198,21.7578692 L5.50155678,22.175047 L6.79636335,20.3438206 L8.81072142,25.5662304 L9.44604498,25.5662304 L15.4963068,8.13167539 L23.2573298,8.13167539 L23.2573298,7.25890052 Z M18.318161,13.610733 L16.3519826,13.610733 L19.4936892,18.561301 L16.0882699,23.945288 L18.017413,23.945288 L19.4077469,21.5264878 L19.7610807,20.9057105 C19.9824084,20.5147428 20.200952,20.1287823 20.7540498,20.1447832 C21.0342875,20.594224 21.3094464,21.0598673 21.5634351,21.5255133 L23.087585,23.945288 L25.0923882,23.945288 L21.6853515,18.7300474 L24.8254514,13.610733 L22.9162009,13.610733 L21.6390662,15.8981383 L21.3363587,16.4643863 C21.1456583,16.8194834 20.9525517,17.1747438 20.688265,17.5299366 L20.3830485,17.027446 C20.1529004,16.6508397 19.9228146,16.2743535 19.7094697,15.8978625 L18.318161,13.610733 Z M7.7300218,3.95 C6.60465564,3.95 5.84797057,4.47812827 5.12275764,5.27523772 L5.94955457,5.80132482 C6.39474152,5.30290022 6.95700789,4.92851406 7.60117307,4.92851406 C8.09728087,4.92851406 8.4711775,5.08689302 8.72480117,5.35930363 C8.99948621,5.65433571 9.13249837,6.08094457 9.13249837,6.57697456 C9.13249837,8.04759315 7.88436197,9.74862354 5.1967554,12.0947546 L5.1967554,12.8 L10.6966885,12.8 L10.6966885,11.7744869 L7.92882384,11.7825021 C7.66085053,11.7937553 7.37844297,11.8153097 7.00032528,11.8454939 C8.97119913,9.96124624 10.2750017,8.23304773 10.2750017,6.541834 C10.2750017,5.75600709 10.0265567,5.10659996 9.58258208,4.65428775 C9.14240163,4.205841 8.50913108,3.95 7.7300218,3.95 Z" id="形状结合" stroke="#303030" stroke-width="0.01" fill="#303030" fill-rule="nonzero"></path>
                <rect id="矩形" x="0" y="0" width="30" height="30"></rect>
            </g>
        </g>
    </g>
</svg>
