<?xml version="1.0" encoding="UTF-8"?>
<svg width="34px" height="34px" viewBox="0 0 34 34" version="1.1" xmlns="http://www.w3.org/2000/svg" xmlns:xlink="http://www.w3.org/1999/xlink">
    <title>tan-1_hover</title>
    <g id="科学计数模式" stroke="none" stroke-width="1" fill="none" fill-rule="evenodd">
        <g id="计算器-切图light" transform="translate(-273.000000, -1163.000000)">
            <g id="tan-1_hover" transform="translate(273.000000, 1163.000000)">
                <path d="M4.90706631,14.7778634 L3.54812932,14.7778634 L3.3652174,17.3053736 L1.95,17.3886217 L1.95,18.6319156 L3.29550143,18.6319156 L3.29781569,23.7668896 C3.32126023,24.6796856 3.52254723,25.423559 3.97990493,25.9252121 C4.39434883,26.3797952 5.01948095,26.6383456 5.92016075,26.6383456 C6.49190534,26.6383456 7.11751958,26.4599472 7.64869312,26.2868193 L7.15175074,25.1216587 C6.87228878,25.2203968 6.52462877,25.3091427 6.25237776,25.3091427 C5.76989542,25.3091427 5.43956079,25.1724396 5.22820518,24.9082451 C4.99606034,24.618064 4.90706631,24.1792297 4.90706631,23.6150033 L4.90706631,18.6319156 L7.34886135,18.6319156 L7.34886135,17.3027127 L4.90706631,17.3027127 L4.90706631,14.7778634 Z M12.3153382,17.0701608 C13.3539161,17.0701608 14.1127305,17.3981655 14.6281205,17.974883 C15.1814994,18.5941098 15.4545504,19.5029752 15.4852631,20.6113079 L15.4852631,20.6113079 L15.4882035,26.4224046 L14.1481409,26.4224046 L14.0206014,25.3861457 C13.1159575,26.0825746 12.1151537,26.6383456 11.0196919,26.6383456 C10.229502,26.6383456 9.54254773,26.3875415 9.06051731,25.9206692 C8.60273553,25.4772831 8.32856664,24.8384574 8.32856664,24.0302746 C8.32856664,23.039681 8.75674036,22.2942044 9.66669088,21.7411507 C10.57105,21.1914953 11.9565748,20.8327927 13.8764008,20.6135482 C13.8711579,19.9993234 13.7564495,19.4021248 13.4175003,18.9875173 C13.1389882,18.6468373 12.7083611,18.4325854 12.0661755,18.4325854 C11.0997118,18.4325854 10.2196027,18.8488568 9.53197824,19.2916031 L9.53197824,19.2916031 L8.68572306,18.2882888 C9.52081726,17.7472348 10.8313682,17.0701608 12.3153382,17.0701608 Z M13.8765908,21.7113648 C12.4482438,21.8867109 11.4719338,22.1472907 10.8430619,22.4989455 C10.5173812,22.6810609 10.2860082,22.8872436 10.1348401,23.1191379 C9.97670357,23.361722 9.90693235,23.6320994 9.90693235,23.9306095 C9.90693235,24.3979536 10.0541242,24.7352532 10.3025214,24.9603632 C10.583493,25.2149937 10.9910439,25.3257535 11.451574,25.3257535 C12.2495089,25.3257535 12.9079701,24.9770282 13.8765908,24.15662 L13.8765908,21.7113648 Z M22.7635633,17.0701608 C21.5546091,17.0701608 20.6304159,17.7193123 19.7301054,18.5439091 L19.6028032,17.3027127 L18.2618553,17.3027127 L18.2618553,26.4224046 L19.8720398,26.4224046 L20.0645038,19.660597 C20.8583962,18.8931455 21.4520575,18.4990288 22.2984595,18.4990288 C22.8774006,18.4990288 23.2934523,18.6693446 23.5629627,19.0487524 C23.8359165,19.4330078 23.9593771,20.0259141 23.9593771,20.8576021 L23.9593771,26.4224046 L25.5709905,26.4224046 L25.5678765,20.423251 C25.5382716,19.3158965 25.2959952,18.4736246 24.8264161,17.9104809 C24.365195,17.3573605 23.6845516,17.0701608 22.7635633,17.0701608 Z M31.4891697,5.94487241 L30.5185538,6.03978171 C30.1222204,6.24442865 29.6548572,6.3985452 29.0319975,6.5104132 L29.0319975,7.21796821 L30.4123236,7.21796821 L30.4123236,12.9259556 L28.6816071,12.9259556 L28.6816071,13.8329155 L33.05,13.8329155 L33.05,12.9259556 L31.4891697,12.9259556 L31.4891697,5.94487241 Z M27.3694273,10.3882792 L24.5512467,10.3882792 L24.5512467,11.2315317 L27.3694273,11.2315317 L27.3694273,10.3882792 Z" id="形状结合" stroke="#000000" stroke-width="0.01" fill="#000000" fill-rule="nonzero"></path>
                <rect id="矩形" x="0" y="0" width="34" height="34"></rect>
            </g>
        </g>
    </g>
</svg>
