<?xml version="1.0" encoding="UTF-8"?>
<svg width="34px" height="34px" viewBox="0 0 34 34" version="1.1" xmlns="http://www.w3.org/2000/svg" xmlns:xlink="http://www.w3.org/1999/xlink">
    <title>tan-1_normal</title>
    <g id="科学计数模式" stroke="none" stroke-width="1" fill="none" fill-rule="evenodd">
        <g id="计算器-切图light" transform="translate(-89.000000, -1165.000000)">
            <g id="tan-1_normal" transform="translate(89.000000, 1165.000000)">
                <path d="M4.802,14.16 L3.48948766,14.16 L3.3132951,16.5946609 L1.95,16.6748547 L1.95,17.876 L3.24602415,17.876 L3.24841546,22.8265905 C3.27180274,23.7045085 3.46642599,24.4197178 3.90716894,24.9020606 C4.30666992,25.3392689 4.90881211,25.588 5.776,25.588 C6.32816332,25.588 6.93247515,25.415344 7.44504302,25.248167 L6.92996218,24.1345767 C6.66675719,24.2250411 6.34784994,24.304 6.096,24.304 C5.63198758,24.304 5.31421321,24.1726438 5.11092633,23.9185352 C4.88752462,23.639283 4.802,23.2169419 4.802,22.674 L4.802,17.876 L7.154,17.876 L7.154,16.592 L4.802,16.592 L4.802,14.16 Z M11.936,16.368 C12.9359501,16.368 13.6667853,16.6835361 14.1634981,17.2382716 C14.6967151,17.8337755 14.9604443,18.7078234 14.9910015,19.7739991 L14.9910015,19.7739991 L14.994027,25.38 L13.6997766,25.38 L13.577122,24.3834318 C12.7060774,25.0535879 11.7425375,25.588 10.688,25.588 C9.92633856,25.588 9.26421213,25.3462059 8.79959324,24.8961977 C8.35832618,24.4688069 8.094,23.8530423 8.094,23.074 C8.094,22.1191673 8.5066871,21.4005808 9.38379952,20.8674855 C10.2547942,20.3381085 11.589044,19.9925302 13.4378029,19.7812907 C13.4325681,19.1906877 13.3221499,18.6165474 12.9962074,18.2178498 C12.7282307,17.8900569 12.3138583,17.684 11.696,17.684 C10.7648109,17.684 9.9168987,18.0853944 9.25463243,18.5120103 L9.25463243,18.5120103 L8.43711079,17.5427624 C9.24164445,17.0212668 10.505165,16.368 11.936,16.368 Z M13.438,20.8424445 C12.0636299,21.0112992 11.1240654,21.2621139 10.5187628,21.6005892 C10.2053658,21.7758357 9.98269697,21.9742223 9.83722825,22.1973737 C9.68510273,22.4307368 9.618,22.6908401 9.618,22.978 C9.618,23.4275112 9.75950362,23.7519889 9.99843765,23.9685229 C10.2687748,24.2135159 10.6609239,24.32 11.104,24.32 C11.8720496,24.32 12.5058312,23.9842884 13.438,23.1948469 L13.438,20.8424445 Z M22,16.368 C20.8362477,16.368 19.9462727,16.992132 19.079551,17.7855651 L18.9571341,16.592 L17.662,16.592 L17.662,25.38 L19.2165971,25.38 L19.4020129,18.865815 C20.1659849,18.1273674 20.7373628,17.748 21.552,17.748 C22.1089158,17.748 22.5092232,17.9117284 22.7685031,18.2767341 C23.0312585,18.6466325 23.15,19.2174162 23.15,20.018 L23.15,25.38 L24.706026,25.38 L24.7030255,19.5996209 C24.6744946,18.5324159 24.4409273,17.7207673 23.9884052,17.1780792 C23.5438295,16.6449207 22.8877811,16.368 22,16.368 Z M30.44,6.61487241 L29.522119,6.70462516 C29.1484558,6.89763927 28.7077239,7.04289899 28.12,7.14827643 L28.12,7.82 L29.42,7.82 L29.42,13.19 L27.79,13.19 L27.79,14.05 L31.91,14.05 L31.91,13.19 L30.44,13.19 L30.44,6.61487241 Z M26.56,10.8 L23.9,10.8 L23.9,11.6 L26.56,11.6 L26.56,10.8 Z" id="形状结合" stroke="#000000" stroke-width="0.01" fill="#000000" fill-rule="nonzero"></path>
                <rect id="矩形" x="0" y="0" width="34" height="34"></rect>
            </g>
        </g>
    </g>
</svg>
