<?xml version="1.0" encoding="UTF-8"?>
<svg width="30px" height="30px" viewBox="0 0 30 30" version="1.1" xmlns="http://www.w3.org/2000/svg" xmlns:xlink="http://www.w3.org/1999/xlink">
    <title>y root_hover</title>
    <g id="科学计数模式" stroke="none" stroke-width="1" fill="none" fill-rule="evenodd">
        <g id="计算器-切图light" transform="translate(-284.000000, -849.000000)">
            <g id="y-root_hover" transform="translate(284.000000, 849.000000)">
                <path d="M24.7286904,6.10856045 L24.7286904,6.89019568 L16.7169293,6.89019568 L10.4247656,24.9655104 L9.83853921,24.9655104 L7.74766496,19.4745229 L6.37980331,21.428611 L5.87174041,21.0573343 L8.50975932,17.3445669 L10.4638474,22.4642777 L16.1502437,6.10856045 L24.7286904,6.10856045 Z M19.5525282,12.7524599 L21.0376351,15.1559883 C21.3698301,15.7422147 21.7411068,16.3284411 22.1123836,16.9146675 L22.1123836,16.9146675 L22.1905471,16.9146675 L23.1675911,15.1559883 L24.5549937,12.7524599 L26.1964277,12.7524599 L22.9917232,17.9503342 L26.47,23.3045356 L24.7308616,23.3045356 L23.1089685,20.7446802 C22.7376918,20.0998311 22.3468741,19.454982 21.9560565,18.8296739 L21.9560565,18.8296739 L21.8583521,18.8296739 C21.4675345,19.454982 21.1157987,20.0998311 20.7445219,20.7446802 L20.7445219,20.7446802 L19.2398741,23.3045356 L17.5593583,23.3045356 L21.057176,17.7940072 L17.8329307,12.7524599 L19.5525282,12.7524599 Z M6.0150402,6 L7.38832988,9.68996966 C7.59133792,10.2512272 7.81822926,10.9199595 8.03317895,11.5051004 L8.03317895,11.5051004 L8.09288719,11.5051004 C8.27201193,10.9199595 8.46307832,10.2512272 8.64220306,9.68996966 L8.64220306,9.68996966 L9.84830965,6 L10.8036416,6 L8.34366183,13.0455731 C7.91376245,14.275563 7.24503009,15.2667199 5.9911569,15.2667199 C5.70455731,15.2667199 5.45378268,15.2189533 5.25077464,15.1353618 L5.25077464,15.1353618 L5.45378268,14.3472129 C5.58514082,14.3949795 5.77620721,14.4427461 5.95533195,14.4427461 C6.69571421,14.4427461 7.17338019,13.8217804 7.45997977,12.9858649 L7.45997977,12.9858649 L7.60327957,12.4843156 L5,6 L6.0150402,6 Z" id="形状结合" fill="#000000" fill-rule="nonzero"></path>
                <rect id="矩形" x="0" y="0" width="30" height="30"></rect>
            </g>
        </g>
    </g>
</svg>