<?xml version="1.0" encoding="UTF-8"?>
<svg width="30px" height="30px" viewBox="0 0 30 30" version="1.1" xmlns="http://www.w3.org/2000/svg" xmlns:xlink="http://www.w3.org/1999/xlink">
    <title>y root_press</title>
    <g id="科学计数模式" stroke="none" stroke-width="1" fill="none" fill-rule="evenodd">
        <g id="计算器-切图light" transform="translate(-463.000000, -849.000000)">
            <g id="y-root_press" transform="translate(463.000000, 849.000000)">
                <path d="M23.5,7.16 L23.5,7.88 L16.12,7.88 L10.324,24.53 L9.784,24.53 L7.858,19.472 L6.598,21.272 L6.13,20.93 L8.56,17.51 L10.36,22.226 L15.598,7.16 L23.5,7.16 Z M18.732,13.28 L20.1,15.494 C20.406,16.034 20.748,16.574 21.09,17.114 L21.09,17.114 L21.162,17.114 L22.062,15.494 L23.34,13.28 L24.852,13.28 L21.9,18.068 L25.104,23 L23.502,23 L22.008,20.642 C21.666,20.048 21.306,19.454 20.946,18.878 L20.946,18.878 L20.856,18.878 C20.496,19.454 20.172,20.048 19.83,20.642 L19.83,20.642 L18.444,23 L16.896,23 L20.118,17.924 L17.148,13.28 L18.732,13.28 Z M6.262,7.06 L7.527,10.459 C7.714,10.976 7.923,11.592 8.121,12.131 L8.121,12.131 L8.176,12.131 C8.341,11.592 8.517,10.976 8.682,10.459 L8.682,10.459 L9.793,7.06 L10.673,7.06 L8.407,13.55 C8.011,14.683 7.395,15.596 6.24,15.596 C5.976,15.596 5.745,15.552 5.558,15.475 L5.558,15.475 L5.745,14.749 C5.866,14.793 6.042,14.837 6.207,14.837 C6.889,14.837 7.329,14.265 7.593,13.495 L7.593,13.495 L7.725,13.033 L5.327,7.06 L6.262,7.06 Z" id="形状结合" fill="#0081FF" fill-rule="nonzero"></path>
                <rect id="矩形" x="0" y="0" width="30" height="30"></rect>
            </g>
        </g>
    </g>
</svg>