<svg xmlns="http://www.w3.org/2000/svg" width="36" height="36" viewBox="0 0 36 36">
  <path fill="#FFF" fill-rule="evenodd" d="M15 5C16.1045695 5 17 5.8954305 17 7L17 15C17 16.1045695 16.1045695 17 15 17L7 17C5.8954305 17 5 16.1045695 5 15L5 7C5 5.8954305 5.8954305 5 7 5L15 5zM12 8L10 8 10 10 8 10 8 12 10 12 10 14 12 14 12 12 14 12 14 10 12 10 12 8zM15 19C16.1045695 19 17 19.8954305 17 21L17 29C17 30.1045695 16.1045695 31 15 31L7 31C5.8954305 31 5 30.1045695 5 29L5 21C5 19.8954305 5.8954305 19 7 19L15 19zM12.9142136 21.6715729L11.1471537 23.4386327 9.37867966 21.6715729 7.96446609 23.0857864 9.73294015 24.8528463 7.96446609 26.6213203 9.37867966 28.0355339 11.1471537 26.2670598 12.9142136 28.0355339 14.3284271 26.6213203 12.5613673 24.8528463 14.3284271 23.0857864 12.9142136 21.6715729zM29 5C30.1045695 5 31 5.8954305 31 7L31 15C31 16.1045695 30.1045695 17 29 17L21 17C19.8954305 17 19 16.1045695 19 15L19 7C19 5.8954305 19.8954305 5 21 5L29 5zM28 10L22 10 22 12 28 12 28 10zM29 19C30.1045695 19 31 19.8954305 31 21L31 29C31 30.1045695 30.1045695 31 29 31L21 31C19.8954305 31 19 30.1045695 19 29L19 21C19 19.8954305 19.8954305 19 21 19L29 19zM28 25L22 25 22 27 28 27 28 25zM28 22L22 22 22 24 28 24 28 22z"/>
</svg>
