<?xml version="1.0" encoding="UTF-8"?>
<svg width="36px" height="36px" viewBox="0 0 36 36" version="1.1" xmlns="http://www.w3.org/2000/svg" xmlns:xlink="http://www.w3.org/1999/xlink">
    <title>fast-icon/calculator_normal_dark</title>
    <g id="fast-icon/calculator_normal_dark" stroke="none" stroke-width="1" fill="none" fill-rule="evenodd">
        <path d="M15,5 C16.1045695,5 17,5.8954305 17,7 L17,15 C17,16.1045695 16.1045695,17 15,17 L7,17 C5.8954305,17 5,16.1045695 5,15 L5,7 C5,5.8954305 5.8954305,5 7,5 L15,5 Z M12,8 L10,8 L10,10 L8,10 L8,12 L10,12 L10,14 L12,14 L12,12 L14,12 L14,10 L12,10 L12,8 Z" id="形状结合" fill="#FFFFFF"></path>
        <path d="M15,19 C16.1045695,19 17,19.8954305 17,21 L17,29 C17,30.1045695 16.1045695,31 15,31 L7,31 C5.8954305,31 5,30.1045695 5,29 L5,21 C5,19.8954305 5.8954305,19 7,19 L15,19 Z M12.9142136,21.6715729 L11.1471537,23.4386327 L9.37867966,21.6715729 L7.96446609,23.0857864 L9.73294015,24.8528463 L7.96446609,26.6213203 L9.37867966,28.0355339 L11.1471537,26.2670598 L12.9142136,28.0355339 L14.3284271,26.6213203 L12.5613673,24.8528463 L14.3284271,23.0857864 L12.9142136,21.6715729 Z" id="形状结合" fill="#FFFFFF"></path>
        <path d="M29,5 C30.1045695,5 31,5.8954305 31,7 L31,15 C31,16.1045695 30.1045695,17 29,17 L21,17 C19.8954305,17 19,16.1045695 19,15 L19,7 C19,5.8954305 19.8954305,5 21,5 L29,5 Z M28,10 L22,10 L22,12 L28,12 L28,10 Z" id="形状结合" fill="#FFFFFF"></path>
        <path d="M29,19 C30.1045695,19 31,19.8954305 31,21 L31,29 C31,30.1045695 30.1045695,31 29,31 L21,31 C19.8954305,31 19,30.1045695 19,29 L19,21 C19,19.8954305 19.8954305,19 21,19 L29,19 Z M28,25 L22,25 L22,27 L28,27 L28,25 Z M28,22 L22,22 L22,24 L28,24 L28,22 Z" id="形状结合" fill="#FFFFFF"></path>
    </g>
</svg>