<?xml version="1.0" encoding="UTF-8"?>
<svg width="30px" height="30px" viewBox="0 0 30 30" version="1.1" xmlns="http://www.w3.org/2000/svg" xmlns:xlink="http://www.w3.org/1999/xlink">
    <!-- Generator: Sketch 64 (93537) - https://sketch.com -->
    <title>clear_press</title>
    <desc>Created with Sketch.</desc>
    <g id="计算器" stroke="none" stroke-width="1" fill="none" fill-rule="evenodd">
        <g id="计算器-切图dark" transform="translate(-349.000000, -138.000000)">
            <g id="clear_press" transform="translate(349.000000, 138.000000)">
                <g id="clear_normal" transform="translate(4.000000, 7.000000)" fill="#0C2E7A" fill-rule="nonzero">
                    <path d="M22,0 L22,16 L4,16 L0,8 L4,0 L22,0 Z M21,1 L5,1 L1,8 L5,15 L21,15 L21,1 Z" id="Rectangle"></path>
                    <polygon id="Combined-Shape" points="10.05 11.65 9.7 12 9 11.3 9.35 10.95 11.8 8.5 9.35 6.05 9 5.7 9.7 5 10.05 5.35 12.5 7.8 14.95 5.35 15.3 5 16 5.7 15.65 6.05 13.2 8.5 15.65 10.95 16 11.3 15.3 12 14.95 11.65 12.5 9.2"></polygon>
                </g>
                <rect id="矩形" x="0" y="0" width="30" height="30"></rect>
            </g>
        </g>
    </g>
</svg>