<?xml version="1.0" encoding="UTF-8"?>
<svg width="34px" height="34px" viewBox="0 0 34 34" version="1.1" xmlns="http://www.w3.org/2000/svg" xmlns:xlink="http://www.w3.org/1999/xlink">
    <title>cos-1_press</title>
    <g id="科学计数模式" stroke="none" stroke-width="1" fill="none" fill-rule="evenodd">
        <g id="计算器-切图dark" transform="translate(-453.000000, -1114.000000)">
            <g id="cos-1_press" transform="translate(453.000000, 1114.000000)">
                <path d="M6.192,16.101 C5.01715785,16.101 3.9130675,16.5644258 3.12573318,17.4238824 C2.40568172,18.2098927 1.95,19.3276849 1.95,20.727 C1.95,22.1402497 2.37456265,23.2629526 3.07636899,24.0445722 C3.82147485,24.8744156 4.87977109,25.321 6.08,25.321 C7.14915791,25.321 8.16827961,24.9034459 8.95051079,24.1698059 L8.10830252,23.2540412 C7.59045047,23.6906268 6.94033151,24.005 6.208,24.005 C5.42218194,24.005 4.76225142,23.6783161 4.29951299,23.1054019 C3.8357235,22.5311863 3.57,21.7112141 3.57,20.727 C3.57,19.7482527 3.84848052,18.9242485 4.31927373,18.3426805 C4.7943667,17.7558009 5.46533717,17.417 6.24,17.417 C6.95221978,17.417 7.47988203,17.7526839 7.99663865,18.2303542 L8.66385486,17.0477204 C8.0489756,16.5347387 7.27958261,16.101 6.192,16.101 Z M13.792,16.101 C14.9182197,16.101 15.9824559,16.5656301 16.7420433,17.4277014 C17.434324,18.2133852 17.874,19.3298298 17.874,20.727 C17.874,22.1160816 17.4346057,23.2246143 16.742702,24.0043788 C15.9830954,24.8604434 14.9185748,25.321 13.792,25.321 C12.6654252,25.321 11.6009046,24.8604434 10.841298,24.0043788 C10.1493943,23.2246143 9.71,22.1160816 9.71,20.727 C9.71,19.3298298 10.149676,18.2133852 10.8419567,17.4277014 C11.6015441,16.5656301 12.6657803,16.101 13.792,16.101 Z M13.792,17.417 C13.0575177,17.417 12.444191,17.748907 12.013975,18.3243551 C11.5782124,18.9072223 11.33,19.7382234 11.33,20.727 C11.33,21.7132162 11.576923,22.5345932 12.0106784,23.10925 C12.4410948,23.6794833 13.0557317,24.005 13.792,24.005 C14.5295728,24.005 15.1490243,23.6783683 15.5835361,23.1063528 C16.0199255,22.5318654 16.27,21.7115897 16.27,20.727 C16.27,19.73985 16.0186187,18.9099743 15.5802143,18.327285 C15.1459095,17.7500443 14.5277858,17.417 13.792,17.417 Z M22.56,16.101 C21.6308288,16.101 20.8894296,16.3619113 20.371598,16.7883609 C19.8175566,17.2446303 19.518,17.8907103 19.518,18.615 C19.518,19.2514996 19.7689363,19.7275127 20.152843,20.0995704 C20.6706782,20.601423 21.4332433,20.9125329 22.1427147,21.1739172 C22.6930272,21.3848748 23.2658666,21.6057771 23.6497599,21.9246562 C23.9188198,22.1481494 24.094,22.4203726 24.094,22.775 C24.094,23.1536034 23.9466978,23.4945461 23.6464876,23.7330308 C23.3700432,23.9526361 22.9658254,24.085 22.432,24.085 C21.3818178,24.085 20.5964337,23.6544193 19.8386148,23.0323421 L19.2566519,24.2306989 C20.0856831,24.8635677 21.2134581,25.321 22.384,25.321 C23.3793344,25.321 24.1578046,25.0476046 24.6992545,24.6073348 C25.2917591,24.1255507 25.602,23.4435442 25.602,22.695 C25.602,21.9956903 25.35646,21.4966468 24.9775682,21.1167075 C24.4593636,20.5970704 23.6878961,20.3021312 22.7509145,19.9471818 C22.2313593,19.7528277 21.735346,19.5685554 21.4072791,19.2991609 C21.1728613,19.106667 21.026,18.86996 21.026,18.551 C21.026,18.2103026 21.1588026,17.8950857 21.4391371,17.6742161 C21.6919412,17.4750371 22.0628435,17.353 22.56,17.353 C23.35313,17.353 23.9628215,17.6868384 24.5777524,18.1464416 L25.1648179,16.9910173 C24.48221,16.5000442 23.578066,16.101 22.56,16.101 Z M30.44,6.61487241 L29.522119,6.70462516 C29.1484558,6.89763927 28.7077239,7.04289899 28.12,7.14827643 L28.12,7.82 L29.42,7.82 L29.42,13.19 L27.79,13.19 L27.79,14.05 L31.91,14.05 L31.91,13.19 L30.44,13.19 L30.44,6.61487241 Z M26.56,10.8 L23.9,10.8 L23.9,11.6 L26.56,11.6 L26.56,10.8 Z" id="形状结合" stroke="#0081FF" stroke-width="0.01" fill="#0081FF" fill-rule="nonzero"></path>
                <rect id="矩形" x="0" y="0" width="34" height="34"></rect>
            </g>
        </g>
    </g>
</svg>
