<?xml version="1.0" encoding="UTF-8"?>
<svg width="30px" height="30px" viewBox="0 0 30 30" version="1.1" xmlns="http://www.w3.org/2000/svg" xmlns:xlink="http://www.w3.org/1999/xlink">
    <title>cube root_hover</title>
    <g id="科学计数模式" stroke="none" stroke-width="1" fill="none" fill-rule="evenodd">
        <g id="计算器-切图dark" transform="translate(-303.000000, -752.000000)">
            <g id="cube-root_hover" transform="translate(303.000000, 752.000000)">
                <path d="M25.040642,7.36039907 L25.040642,8.14138273 L17.0355595,8.14138273 L10.7486411,26.2016298 L10.1629033,26.2016298 L8.07377203,20.7152196 L6.70705064,22.6676787 L6.19941126,22.2967115 L8.8352311,18.5870391 L10.7876902,23.7024821 L16.4693463,7.36039907 L25.040642,7.36039907 Z M19.8687946,13.9987601 L21.3526636,16.4002849 C21.6845816,16.9860226 22.0555489,17.5717604 22.4265161,18.1574981 L22.4265161,18.1574981 L22.5046145,18.1574981 L23.4808441,16.4002849 L24.86709,13.9987601 L26.5071557,13.9987601 L23.3051227,19.1923015 L26.7805,24.5420395 L25.0428114,24.5420395 L23.4222703,21.984318 C23.051303,21.3400065 22.6608112,20.695695 22.2703194,20.0709081 L22.2703194,20.0709081 L22.1726964,20.0709081 C21.7822046,20.695695 21.430762,21.3400065 21.0597947,21.984318 L21.0597947,21.984318 L19.5564012,24.5420395 L17.8772863,24.5420395 L21.3721882,19.0361047 L18.1506306,13.9987601 L19.8687946,13.9987601 Z M8.0428581,4.794 C9.47466147,4.80593169 10.5246506,5.58149185 10.5246506,6.96556844 C10.5246506,8.05135267 9.89227078,8.75532266 8.96159859,9.08941011 L8.96159859,9.08941011 L8.96159859,9.13713689 C9.98772434,9.37577078 10.822943,10.1632626 10.822943,11.3683638 C10.822943,12.9194841 9.60591011,13.8501563 8.07865318,13.8501563 C6.71843998,13.8501563 5.87128965,13.2655033 5.3105,12.6569868 L5.3105,12.6569868 L5.81163118,12.024607 C6.32469405,12.5496016 6.98093726,13.0388011 8.01899471,13.0388011 C9.08091554,13.0388011 9.844544,12.3825579 9.844544,11.3445004 C9.844544,10.2587162 9.10477893,9.53088282 7.07639082,9.53088282 L7.07639082,9.53088282 L7.07639082,8.76725435 C8.90194012,8.76725435 9.53431994,8.01555758 9.53431994,7.03715861 C9.53431994,6.1661449 8.9496669,5.59342355 8.00706301,5.58149185 C7.29116133,5.59342355 6.65878151,5.96330609 6.16958202,6.46443726 L6.16958202,6.46443726 L5.63265576,5.83205744 C6.27696727,5.2474044 7.04059574,4.80593169 8.0428581,4.794 Z" id="形状结合" fill="#FFFFFF" fill-rule="nonzero"></path>
                <rect id="矩形" x="0" y="0" width="30" height="30"></rect>
            </g>
        </g>
    </g>
</svg>