<?xml version="1.0" encoding="UTF-8"?>
<svg width="30px" height="30px" viewBox="0 0 30 30" version="1.1" xmlns="http://www.w3.org/2000/svg" xmlns:xlink="http://www.w3.org/1999/xlink">
    <title>cube root_hover</title>
    <g id="科学计数模式" stroke="none" stroke-width="1" fill="none" fill-rule="evenodd">
        <g id="计算器-切图dark" transform="translate(-287.000000, -776.000000)">
            <g id="cube-root_hover" transform="translate(287.000000, 776.000000)">
                <path d="M23.2573298,7.25890052 L14.8785997,7.25890052 L9.4460643,22.8633901 L7.59561407,18.0036219 L4.93068198,21.7578692 L5.50155678,22.175047 L6.79636335,20.3438206 L8.81072142,25.5662304 L9.44604498,25.5662304 L15.4963068,8.13167539 L23.2573298,8.13167539 L23.2573298,7.25890052 Z M18.318161,13.610733 L16.3519826,13.610733 L19.4936892,18.561301 L16.0882699,23.945288 L18.017413,23.945288 L19.4077469,21.5264878 L19.7610807,20.9057105 C19.9824084,20.5147428 20.200952,20.1287823 20.7540498,20.1447832 C21.0342875,20.594224 21.3094464,21.0598673 21.5634351,21.5255133 L23.087585,23.945288 L25.0923882,23.945288 L21.6853515,18.7300474 L24.8254514,13.610733 L22.9162009,13.610733 L21.6390662,15.8981383 L21.3363587,16.4643863 C21.1456583,16.8194834 20.9525517,17.1747438 20.688265,17.5299366 L20.3830485,17.027446 C20.1529004,16.6508397 19.9228146,16.2743535 19.7094697,15.8978625 L18.318161,13.610733 Z M7.83403141,3.95 C6.81860082,3.95 6.04690101,4.40092503 5.3950296,5.01793736 L6.18565312,5.60869193 C6.62981637,5.20166557 7.17592458,4.91161332 7.78965206,4.89080899 C8.21098555,4.90198731 8.55784011,5.03206021 8.797677,5.26029209 C9.0350544,5.48618348 9.16623037,5.80761586 9.16623037,6.2 C9.16623037,6.66872871 9.00267026,7.08127761 8.5933956,7.36353599 C8.21951729,7.6213831 7.64474346,7.7705219 6.81259136,7.76223758 L7.05850018,8.67087943 C7.90895479,8.69040941 8.49726105,8.84874856 8.87883681,9.11667356 C9.28786117,9.40387172 9.45418848,9.81723785 9.45418848,10.3120419 C9.45418848,10.7731762 9.28728811,11.1482869 9.00087092,11.4097147 C8.70462028,11.6801179 8.28190732,11.828534 7.78795812,11.828534 C6.81697768,11.828534 6.17299859,11.3561067 5.68000865,10.8257648 L5.20745126,11.7227946 C5.76707125,12.2953957 6.59010939,12.8039267 7.86858639,12.8039267 C8.65395851,12.8039267 9.36087349,12.5599219 9.86185881,12.1143647 C10.3347724,11.6937735 10.6253927,11.0935759 10.6253927,10.3465969 C10.6253927,9.80754905 10.454992,9.35246418 10.1882067,8.98377718 C9.89723848,8.58167047 9.49124077,8.28248106 9.06636914,8.08997326 C9.44752351,7.9054672 9.76319495,7.65037158 9.98463674,7.32542347 C10.2093788,6.99563252 10.3374346,6.59371717 10.3374346,6.11937173 C10.3374346,5.4409455 10.0845384,4.90872946 9.65854359,4.54073398 C9.21244992,4.15537606 8.57462331,3.95 7.83403141,3.95 Z" id="形状结合" stroke="#FFFFFF" stroke-width="0.1" fill="#FFFFFF" fill-rule="nonzero"></path>
                <rect id="矩形" x="0" y="0" width="30" height="30"></rect>
            </g>
        </g>
    </g>
</svg>