<?xml version="1.0" encoding="UTF-8"?>
<svg width="30px" height="30px" viewBox="0 0 30 30" version="1.1" xmlns="http://www.w3.org/2000/svg" xmlns:xlink="http://www.w3.org/1999/xlink">
    <title>cube root_normal</title>
    <g id="科学计数模式" stroke="none" stroke-width="1" fill="none" fill-rule="evenodd">
        <g id="计算器-切图dark" transform="translate(-96.000000, -776.000000)">
            <g id="cube-root_normal" transform="translate(96.000000, 776.000000)">
                <path d="M22.55,7.11 L14.5444636,7.11 L9.35789676,22.0079661 L7.59141511,17.3687213 L5.04268198,20.9592724 L5.59150443,21.3603349 L6.82693926,19.6130771 L8.74969524,24.598 L9.35957378,24.598 L15.1375738,7.948 L22.55,7.948 L22.55,7.11 Z M17.8321086,13.176 L15.9490506,13.176 L18.9508096,17.9060445 L15.6972123,23.05 L17.5449313,23.05 L18.873349,20.7389171 L19.2107875,20.1460665 C19.4216195,19.7736391 19.6297941,19.4059682 20.1552176,19.4194734 C20.4228124,19.8486376 20.6855668,20.2932888 20.9281052,20.7379426 L22.3844017,23.05 L24.3043882,23.05 L21.0491735,18.0671573 L24.0493257,13.176 L22.2206511,13.176 L21.0003437,15.3616252 L20.7112383,15.9024282 C20.5296519,16.2405545 20.3457841,16.5788432 20.0944814,16.9170653 L19.4767344,15.9000428 C19.3690893,15.720633 19.2632984,15.5409916 19.1615011,15.3613494 L17.8321086,13.176 Z M7.8185,4.733 C6.84712903,4.733 6.1091257,5.16475323 5.48576632,5.75533345 L6.24444529,6.32221903 C6.66846928,5.93321467 7.18999004,5.65584262 7.77619394,5.6359713 C8.17778389,5.64663004 8.50854059,5.77058465 8.73723047,5.98820888 C8.96351415,6.20354335 9.0885,6.50997228 9.0885,6.884 C9.0885,7.33086906 8.93262118,7.72421721 8.5424154,7.99332464 C8.18509117,8.23975514 7.63544163,8.38202426 6.83940942,8.37364984 L7.08464493,9.2460991 C7.89399112,9.26546639 8.4538798,9.41683796 8.81693801,9.67263043 C9.20551766,9.94640402 9.3635,10.3400334 9.3635,10.811 C9.3635,11.2506703 9.20440968,11.6083479 8.93131489,11.8576157 C8.64876601,12.1155126 8.24558556,12.257 7.7745,12.257 C6.84616655,12.257 6.23111019,11.8043962 5.76034001,11.2971492 L5.31464675,12.1661103 C5.84930179,12.71072 6.63444116,13.193 7.8515,13.193 C8.60213331,13.193 9.27775363,12.9597409 9.75657042,12.5338996 C10.2086526,12.131835 10.4865,11.5580846 10.4865,10.844 C10.4865,10.3286867 10.3235984,9.89364111 10.0685602,9.5411882 C9.79144499,9.15822576 9.40517501,8.87291918 9.00065983,8.68884974 C9.36311272,8.51264409 9.66333039,8.26946227 9.8741874,7.96004648 C10.0890522,7.64474965 10.2115,7.26050272 10.2115,6.807 C10.2115,6.15835564 9.96966446,5.64953087 9.56237999,5.29769828 C9.1360009,4.9293708 8.52638178,4.733 7.8185,4.733 Z" id="形状结合" stroke="#E0E0E0" stroke-width="0.1" fill="#E0E0E0" fill-rule="nonzero"></path>
                <rect id="矩形" x="0" y="0" width="30" height="30"></rect>
            </g>
        </g>
    </g>
</svg>