<?xml version="1.0" encoding="UTF-8"?>
<svg width="30px" height="30px" viewBox="0 0 30 30" version="1.1" xmlns="http://www.w3.org/2000/svg" xmlns:xlink="http://www.w3.org/1999/xlink">
    <!-- Generator: Sketch 58 (84663) - https://sketch.com -->
    <title>÷_hover</title>
    <desc>Created with Sketch.</desc>
    <g id="计算器" stroke="none" stroke-width="1" fill="none" fill-rule="evenodd">
        <g id="计算器dark" transform="translate(-96.000000, -948.000000)" fill="#0063EA">
            <path d="M109.133333,955.668902 C109.133333,956.574877 109.895238,957.337804 110.8,957.337804 C111.704762,957.337804 112.466667,956.574877 112.466667,955.668902 C112.466667,954.739085 111.704762,954 110.8,954 C109.895238,954 109.133333,954.739085 109.133333,955.668902 Z M101,961.788208 L101,964.013411 L121,964.013411 L121,961.788208 L101,961.788208 Z M109.133333,970.132717 C109.133333,971.038693 109.895238,971.777778 110.8,971.777778 C111.704762,971.777778 112.466667,971.038693 112.466667,970.132717 C112.466667,969.202901 111.704762,968.463816 110.8,968.463816 C109.895238,968.463816 109.133333,969.202901 109.133333,970.132717 Z" id="÷_hover"></path>
        </g>
    </g>
</svg>