<?xml version="1.0" encoding="UTF-8"?>
<svg width="36px" height="36px" viewBox="0 0 36 36" version="1.1" xmlns="http://www.w3.org/2000/svg" xmlns:xlink="http://www.w3.org/1999/xlink">
    <title>empty_hover</title>
    <g id="科学计数模式" stroke="none" stroke-width="1" fill="none" fill-rule="evenodd">
        <g id="计算器-切图dark" transform="translate(-300.000000, -620.000000)">
            <g id="empty_hover" transform="translate(300.000000, 620.000000)">
                <g>
                    <path d="M19.6,10 L16.4,10 L15.3333333,10 L15.3333333,11.0666667 L16.4,11.0666667 L19.6,11.0666667 L20.6666667,11.0666667 L20.6666667,10 L19.6,10 Z M10,13.2 L11.0666667,13.2 L24.9333333,13.2 L26,13.2 L26,12.1333333 L24.9333333,12.1333333 L11.0666667,12.1333333 L10,12.1333333 L10,13.2 Z M12.1333333,15.3333333 L12.1333333,27.0666667 L13.2,27.0666667 L22.8,27.0666667 L23.8666667,27.0666667 L23.8666667,15.3333333 L23.8666667,14.2666667 L22.8,14.2666667 L22.8,15.3333333 L22.8,26 L13.2,26 L13.2,15.3333333 L13.2,14.2666667 L12.1333333,14.2666667 L12.1333333,15.3333333 Z M15.3333333,16.4 L15.3333333,23.8666667 L15.3333333,24.9333333 L16.4,24.9333333 L16.4,23.8666667 L16.4,16.4 L16.4,15.3333333 L15.3333333,15.3333333 L15.3333333,16.4 Z M17.4666667,16.4 L17.4666667,23.8666667 L17.4666667,24.9333333 L18.5333333,24.9333333 L18.5333333,23.8666667 L18.5333333,16.4 L18.5333333,15.3333333 L17.4666667,15.3333333 L17.4666667,16.4 Z M19.6,16.4 L19.6,23.8666667 L19.6,24.9333333 L20.6666667,24.9333333 L20.6666667,23.8666667 L20.6666667,16.4 L20.6666667,15.3333333 L19.6,15.3333333 L19.6,16.4 Z" id="line34500" fill="#FFFFFF" fill-rule="nonzero"></path>
                    <rect id="矩形" x="0" y="0" width="36" height="36"></rect>
                </g>
            </g>
        </g>
    </g>
</svg>