<?xml version="1.0" encoding="UTF-8"?>
<svg width="36px" height="36px" viewBox="0 0 36 36" version="1.1" xmlns="http://www.w3.org/2000/svg" xmlns:xlink="http://www.w3.org/1999/xlink">
    <title>empty_press</title>
    <g id="科学计数模式" stroke="none" stroke-width="1" fill="none" fill-rule="evenodd">
        <g id="计算器-切图dark" transform="translate(-463.000000, -620.000000)">
            <g id="empty_press" transform="translate(463.000000, 620.000000)">
                <g>
                    <rect id="矩形" fill-opacity="0.5" fill="#000000" x="0" y="0" width="36" height="36" rx="8"></rect>
                    <path d="M19.6,9 L16.4,9 L15.3333333,9 L15.3333333,10.0666667 L16.4,10.0666667 L19.6,10.0666667 L20.6666667,10.0666667 L20.6666667,9 L19.6,9 Z M10,12.2 L11.0666667,12.2 L24.9333333,12.2 L26,12.2 L26,11.1333333 L24.9333333,11.1333333 L11.0666667,11.1333333 L10,11.1333333 L10,12.2 Z M12.1333333,14.3333333 L12.1333333,26.0666667 L13.2,26.0666667 L22.8,26.0666667 L23.8666667,26.0666667 L23.8666667,14.3333333 L23.8666667,13.2666667 L22.8,13.2666667 L22.8,14.3333333 L22.8,25 L13.2,25 L13.2,14.3333333 L13.2,13.2666667 L12.1333333,13.2666667 L12.1333333,14.3333333 Z M15.3333333,15.4 L15.3333333,22.8666667 L15.3333333,23.9333333 L16.4,23.9333333 L16.4,22.8666667 L16.4,15.4 L16.4,14.3333333 L15.3333333,14.3333333 L15.3333333,15.4 Z M17.4666667,15.4 L17.4666667,22.8666667 L17.4666667,23.9333333 L18.5333333,23.9333333 L18.5333333,22.8666667 L18.5333333,15.4 L18.5333333,14.3333333 L17.4666667,14.3333333 L17.4666667,15.4 Z M19.6,15.4 L19.6,22.8666667 L19.6,23.9333333 L20.6666667,23.9333333 L20.6666667,22.8666667 L20.6666667,15.4 L20.6666667,14.3333333 L19.6,14.3333333 L19.6,15.4 Z" id="line34500" fill="#0081FF" fill-rule="nonzero"></path>
                    <rect id="矩形" x="0" y="0" width="36" height="36"></rect>
                </g>
            </g>
        </g>
    </g>
</svg>