<?xml version="1.0" encoding="UTF-8"?>
<svg width="34px" height="34px" viewBox="0 0 34 34" version="1.1" xmlns="http://www.w3.org/2000/svg" xmlns:xlink="http://www.w3.org/1999/xlink">
    <title>grad_hover_dark</title>
    <g id="页面-1" stroke="none" stroke-width="1" fill="none" fill-rule="evenodd">
        <g id="画板" transform="translate(-138.000000, -160.000000)">
            <g id="grad_hover_dark" transform="translate(137.055635, 160.000000)">
                <g id="编组" transform="translate(1.000000, 5.000000)" fill="#FFFFFF" fill-rule="nonzero">
                    <path d="M29.8098879,16.898 C30.1923879,16.898 30.5238879,16.98725 30.7661379,17.0765 L30.7661379,17.0765 L33.1503879,17.0765 L33.1503879,17.87975 L31.6968879,17.87975 C32.0411379,18.21125 32.2961379,18.74675 32.2961379,19.3715 C32.2961379,20.83775 31.1996379,21.78125 29.8098879,21.78125 C29.4656379,21.78125 29.0703879,21.692 28.7516379,21.52625 C28.4966379,21.743 28.2926379,21.98525 28.2926379,22.39325 C28.2926379,22.8395 28.5731379,23.171 29.5166379,23.171 L29.5166379,23.171 L30.8936379,23.171 C32.4746379,23.171 33.2651379,23.66825 33.2651379,24.803 C33.2651379,26.0525 31.9263879,27.16175 29.8353879,27.16175 C28.1396379,27.16175 26.9921379,26.486 26.9921379,25.30025 C26.9921379,24.71375 27.3746379,24.14 28.0121379,23.71925 L28.0121379,23.71925 L28.0121379,23.66825 C27.6551379,23.4515 27.3873879,23.08175 27.3873879,22.5335 C27.3873879,21.95975 27.8081379,21.5135 28.1523879,21.2585 L28.1523879,21.2585 L28.1523879,21.2075 C27.7061379,20.8505 27.2598879,20.17475 27.2598879,19.346 C27.2598879,17.867 28.4201379,16.898 29.8098879,16.898 Z M28.6623879,23.936 C28.1396379,24.30575 27.9101379,24.752 27.9101379,25.17275 C27.9101379,25.93775 28.6878879,26.435 29.9756379,26.435 C31.3526379,26.435 32.2451379,25.6955 32.2451379,24.956 C32.2451379,24.28025 31.7478879,24.05075 30.8043879,24.05075 L30.8043879,24.05075 L29.5421379,24.05075 C29.3253879,24.05075 28.9811379,24.0125 28.6623879,23.936 Z M18.2711379,13.8125 L18.2711379,23.9615 L17.4168879,23.9615 L17.3276379,23.13275 L17.2893879,23.13275 C16.7411379,23.681 16.0016379,24.12725 15.1601379,24.12725 C13.4261379,24.12725 12.3168879,22.82675 12.3168879,20.519 C12.3168879,18.3005 13.7321379,16.898 15.3131379,16.898 C16.1291379,16.898 16.6646379,17.204 17.2893879,17.714 L17.2893879,17.714 L17.2383879,16.5155 L17.2383879,13.8125 L18.2711379,13.8125 Z M23.2181379,16.898 C24.9393879,16.898 25.9338879,18.13475 25.9338879,20.12375 C25.9338879,20.35325 25.9211379,20.58275 25.8828879,20.7485 L25.8828879,20.7485 L21.1781379,20.7485 C21.2418879,22.2785 22.1598879,23.2985 23.5368879,23.2985 C24.2126379,23.2985 24.7736379,23.08175 25.2836379,22.7375 L25.2836379,22.7375 L25.6661379,23.426 C25.0668879,23.8085 24.3656379,24.12725 23.4093879,24.12725 C21.5988879,24.12725 20.1453879,22.7885 20.1453879,20.519 C20.1453879,18.28775 21.6371379,16.898 23.2181379,16.898 Z M15.4788879,17.77775 C14.3058879,17.77775 13.4006379,18.9125 13.4006379,20.519 C13.4006379,22.21475 14.1146379,23.2475 15.3768879,23.2475 C16.0398879,23.2475 16.6263879,22.916 17.2383879,22.26575 L17.2383879,22.26575 L17.2383879,18.54275 C16.6136379,17.9945 16.0781379,17.77775 15.4788879,17.77775 Z M29.8098879,17.67575 C28.9556379,17.67575 28.2671379,18.3005 28.2671379,19.346 C28.2671379,20.3915 28.9811379,21.06725 29.8098879,21.06725 C30.6386379,21.06725 31.3526379,20.3915 31.3526379,19.346 C31.3526379,18.31325 30.6513879,17.67575 29.8098879,17.67575 Z M23.2308879,17.7395 C22.2108879,17.7395 21.3056379,18.56825 21.1653879,19.9835 L21.1653879,19.9835 L25.0158879,19.9835 C25.0158879,18.51725 24.3528879,17.7395 23.2308879,17.7395 Z M10.8591379,3.0855 C11.2416379,3.0855 11.5731379,3.17475 11.8153879,3.264 L11.8153879,3.264 L14.1996379,3.264 L14.1996379,4.06725 L12.7461379,4.06725 C13.0903879,4.39875 13.3453879,4.93425 13.3453879,5.559 C13.3453879,7.02525 12.2488879,7.96875 10.8591379,7.96875 C10.5148879,7.96875 10.1196379,7.8795 9.8008879,7.71375 C9.5458879,7.9305 9.3418879,8.17275 9.3418879,8.58075 C9.3418879,9.027 9.6223879,9.3585 10.5658879,9.3585 L10.5658879,9.3585 L11.9428879,9.3585 C13.5238879,9.3585 14.3143879,9.85575 14.3143879,10.9905 C14.3143879,12.24 12.9756379,13.34925 10.8846379,13.34925 C9.1888879,13.34925 8.0413879,12.6735 8.0413879,11.48775 C8.0413879,10.90125 8.4238879,10.3275 9.0613879,9.90675 L9.0613879,9.90675 L9.0613879,9.85575 C8.7043879,9.639 8.4366379,9.26925 8.4366379,8.721 C8.4366379,8.14725 8.8573879,7.701 9.2016379,7.446 L9.2016379,7.446 L9.2016379,7.395 C8.7553879,7.038 8.3091379,6.36225 8.3091379,5.5335 C8.3091379,4.0545 9.4693879,3.0855 10.8591379,3.0855 Z M9.7116379,10.1235 C9.1888879,10.49325 8.9593879,10.9395 8.9593879,11.36025 C8.9593879,12.12525 9.7371379,12.6225 11.0248879,12.6225 C12.4018879,12.6225 13.2943879,11.883 13.2943879,11.1435 C13.2943879,10.46775 12.7971379,10.23825 11.8536379,10.23825 L11.8536379,10.23825 L10.5913879,10.23825 C10.3746379,10.23825 10.0303879,10.2 9.7116379,10.1235 Z M22.7166379,3.0855 C24.3868879,3.0855 25.0498879,4.22025 25.0498879,5.87775 L25.0498879,5.87775 L25.0498879,10.149 L24.1956379,10.149 L24.1063879,9.3075 L24.0681379,9.3075 C23.4051379,9.8685 22.6146379,10.31475 21.7476379,10.31475 C20.6128879,10.31475 19.7458879,9.62625 19.7458879,8.37675 C19.7458879,6.87225 21.0591379,6.13275 24.0171379,5.80125 C24.0298879,4.8705 23.7366379,3.9525 22.5508879,3.9525 C21.7221379,3.9525 20.9826379,4.34775 20.4598879,4.7175 L20.4598879,4.7175 L20.0391379,3.99075 C20.6383879,3.5955 21.6073879,3.0855 22.7166379,3.0855 Z M32.7508879,-1.86517468e-14 L32.7508879,10.149 L31.8966379,10.149 L31.8073879,9.32025 L31.7691379,9.32025 C31.2208879,9.8685 30.4813879,10.31475 29.6398879,10.31475 C27.9058879,10.31475 26.7966379,9.01425 26.7966379,6.7065 C26.7966379,4.488 28.2118879,3.0855 29.7928879,3.0855 C30.6088879,3.0855 31.1443879,3.3915 31.7691379,3.9015 L31.7691379,3.9015 L31.7181379,2.703 L31.7181379,-1.86517468e-14 L32.7508879,-1.86517468e-14 Z M18.6238879,3.0855 C18.9171379,3.0855 19.1211379,3.12375 19.3506379,3.2385 L19.3506379,3.2385 L19.1466379,4.14375 C18.9171379,4.06725 18.7641379,4.029 18.4963879,4.029 C17.9098879,4.029 17.1958879,4.4625 16.7241379,5.661 L16.7241379,5.661 L16.7241379,10.149 L15.6913879,10.149 L15.6913879,3.264 L16.5328879,3.264 L16.6348879,4.52625 L16.6731379,4.52625 C17.1448879,3.65925 17.8461379,3.0855 18.6238879,3.0855 Z M24.0171379,6.5025 C21.5818879,6.783 20.7531379,7.3695 20.7531379,8.313 C20.7531379,9.14175 21.3268879,9.47325 22.0281379,9.47325 C22.7293879,9.47325 23.3158879,9.14175 24.0171379,8.517 L24.0171379,8.517 Z M29.9586379,3.96525 C28.7856379,3.96525 27.8803879,5.1 27.8803879,6.7065 C27.8803879,8.40225 28.5943879,9.435 29.8566379,9.435 C30.5196379,9.435 31.1061379,9.1035 31.7181379,8.45325 L31.7181379,8.45325 L31.7181379,4.73025 C31.0933879,4.182 30.5578879,3.96525 29.9586379,3.96525 Z M10.8591379,3.86325 C10.0048879,3.86325 9.3163879,4.488 9.3163879,5.5335 C9.3163879,6.579 10.0303879,7.25475 10.8591379,7.25475 C11.6878879,7.25475 12.4018879,6.579 12.4018879,5.5335 C12.4018879,4.50075 11.7006379,3.86325 10.8591379,3.86325 Z" id="形状结合" stroke="#FFFFFF" stroke-width="0.2"></path>
                    <polygon id="down-copy-2" transform="translate(3.144785, 6.923745) rotate(-90.000000) translate(-3.144785, -6.923745) " points="6.45050955 4.36932198 7.3520707 5.27088312 3.14478535 9.47816847 -1.0625 5.27088312 -0.160938854 4.36932198 3.14421807 7.67447278"></polygon>
                </g>
                <rect id="矩形" x="1" y="0" width="34" height="34"></rect>
            </g>
        </g>
    </g>
</svg>