<?xml version="1.0" encoding="UTF-8"?>
<svg width="34px" height="34px" viewBox="0 0 34 34" version="1.1" xmlns="http://www.w3.org/2000/svg" xmlns:xlink="http://www.w3.org/1999/xlink">
    <title>grad_press_dark</title>
    <g id="页面-1" stroke="none" stroke-width="1" fill="none" fill-rule="evenodd">
        <g id="画板" transform="translate(-194.000000, -160.000000)">
            <g id="grad_press_dark" transform="translate(193.055635, 160.000000)">
                <path d="M30.0563651,21.352 C30.4163651,21.352 30.7283651,21.436 30.9563651,21.52 L30.9563651,21.52 L33.2003651,21.52 L33.2003651,22.276 L31.8323651,22.276 C32.1563651,22.588 32.3963651,23.092 32.3963651,23.68 C32.3963651,25.06 31.3643651,25.948 30.0563651,25.948 C29.7323651,25.948 29.3603651,25.864 29.0603651,25.708 C28.8203651,25.912 28.6283651,26.14 28.6283651,26.524 C28.6283651,26.944 28.8923651,27.256 29.7803651,27.256 L29.7803651,27.256 L31.0763651,27.256 C32.5643651,27.256 33.3083651,27.724 33.3083651,28.792 C33.3083651,29.968 32.0483651,31.012 30.0803651,31.012 C28.4843651,31.012 27.4043651,30.376 27.4043651,29.26 C27.4043651,28.708 27.7643651,28.168 28.3643651,27.772 L28.3643651,27.772 L28.3643651,27.724 C28.0283651,27.52 27.7763651,27.172 27.7763651,26.656 C27.7763651,26.116 28.1723651,25.696 28.4963651,25.456 L28.4963651,25.456 L28.4963651,25.408 C28.0763651,25.072 27.6563651,24.436 27.6563651,23.656 C27.6563651,22.264 28.7483651,21.352 30.0563651,21.352 Z M28.9763651,27.976 C28.4843651,28.324 28.2683651,28.744 28.2683651,29.14 C28.2683651,29.86 29.0003651,30.328 30.2123651,30.328 C31.5083651,30.328 32.3483651,29.632 32.3483651,28.936 C32.3483651,28.3 31.8803651,28.084 30.9923651,28.084 L30.9923651,28.084 L29.8043651,28.084 C29.6003651,28.084 29.2763651,28.048 28.9763651,27.976 Z M19.1963651,18.448 L19.1963651,28 L18.3923651,28 L18.3083651,27.22 L18.2723651,27.22 C17.7563651,27.736 17.0603651,28.156 16.2683651,28.156 C14.6363651,28.156 13.5923651,26.932 13.5923651,24.76 C13.5923651,22.672 14.9243651,21.352 16.4123651,21.352 C17.1803651,21.352 17.6843651,21.64 18.2723651,22.12 L18.2723651,22.12 L18.2243651,20.992 L18.2243651,18.448 L19.1963651,18.448 Z M23.8523651,21.352 C25.4723651,21.352 26.4083651,22.516 26.4083651,24.388 C26.4083651,24.604 26.3963651,24.82 26.3603651,24.976 L26.3603651,24.976 L21.9323651,24.976 C21.9923651,26.416 22.8563651,27.376 24.1523651,27.376 C24.7883651,27.376 25.3163651,27.172 25.7963651,26.848 L25.7963651,26.848 L26.1563651,27.496 C25.5923651,27.856 24.9323651,28.156 24.0323651,28.156 C22.3283651,28.156 20.9603651,26.896 20.9603651,24.76 C20.9603651,22.66 22.3643651,21.352 23.8523651,21.352 Z M16.5683651,22.18 C15.4643651,22.18 14.6123651,23.248 14.6123651,24.76 C14.6123651,26.356 15.2843651,27.328 16.4723651,27.328 C17.0963651,27.328 17.6483651,27.016 18.2243651,26.404 L18.2243651,26.404 L18.2243651,22.9 C17.6363651,22.384 17.1323651,22.18 16.5683651,22.18 Z M30.0563651,22.084 C29.2523651,22.084 28.6043651,22.672 28.6043651,23.656 C28.6043651,24.64 29.2763651,25.276 30.0563651,25.276 C30.8363651,25.276 31.5083651,24.64 31.5083651,23.656 C31.5083651,22.684 30.8483651,22.084 30.0563651,22.084 Z M23.8643651,22.144 C22.9043651,22.144 22.0523651,22.924 21.9203651,24.256 L21.9203651,24.256 L25.5443651,24.256 C25.5443651,22.876 24.9203651,22.144 23.8643651,22.144 Z M12.2203651,8.352 C12.5803651,8.352 12.8923651,8.436 13.1203651,8.52 L13.1203651,8.52 L15.3643651,8.52 L15.3643651,9.276 L13.9963651,9.276 C14.3203651,9.588 14.5603651,10.092 14.5603651,10.68 C14.5603651,12.06 13.5283651,12.948 12.2203651,12.948 C11.8963651,12.948 11.5243651,12.864 11.2243651,12.708 C10.9843651,12.912 10.7923651,13.14 10.7923651,13.524 C10.7923651,13.944 11.0563651,14.256 11.9443651,14.256 L11.9443651,14.256 L13.2403651,14.256 C14.7283651,14.256 15.4723651,14.724 15.4723651,15.792 C15.4723651,16.968 14.2123651,18.012 12.2443651,18.012 C10.6483651,18.012 9.56836508,17.376 9.56836508,16.26 C9.56836508,15.708 9.92836508,15.168 10.5283651,14.772 L10.5283651,14.772 L10.5283651,14.724 C10.1923651,14.52 9.94036508,14.172 9.94036508,13.656 C9.94036508,13.116 10.3363651,12.696 10.6603651,12.456 L10.6603651,12.456 L10.6603651,12.408 C10.2403651,12.072 9.82036508,11.436 9.82036508,10.656 C9.82036508,9.264 10.9123651,8.352 12.2203651,8.352 Z M11.1403651,14.976 C10.6483651,15.324 10.4323651,15.744 10.4323651,16.14 C10.4323651,16.86 11.1643651,17.328 12.3763651,17.328 C13.6723651,17.328 14.5123651,16.632 14.5123651,15.936 C14.5123651,15.3 14.0443651,15.084 13.1563651,15.084 L13.1563651,15.084 L11.9683651,15.084 C11.7643651,15.084 11.4403651,15.048 11.1403651,14.976 Z M23.3803651,8.352 C24.9523651,8.352 25.5763651,9.42 25.5763651,10.98 L25.5763651,10.98 L25.5763651,15 L24.7723651,15 L24.6883651,14.208 L24.6523651,14.208 C24.0283651,14.736 23.2843651,15.156 22.4683651,15.156 C21.4003651,15.156 20.5843651,14.508 20.5843651,13.332 C20.5843651,11.916 21.8203651,11.22 24.6043651,10.908 C24.6163651,10.032 24.3403651,9.168 23.2243651,9.168 C22.4443651,9.168 21.7483651,9.54 21.2563651,9.888 L21.2563651,9.888 L20.8603651,9.204 C21.4243651,8.832 22.3363651,8.352 23.3803651,8.352 Z M32.8243651,5.448 L32.8243651,15 L32.0203651,15 L31.9363651,14.22 L31.9003651,14.22 C31.3843651,14.736 30.6883651,15.156 29.8963651,15.156 C28.2643651,15.156 27.2203651,13.932 27.2203651,11.76 C27.2203651,9.672 28.5523651,8.352 30.0403651,8.352 C30.8083651,8.352 31.3123651,8.64 31.9003651,9.12 L31.9003651,9.12 L31.8523651,7.992 L31.8523651,5.448 L32.8243651,5.448 Z M19.5283651,8.352 C19.8043651,8.352 19.9963651,8.388 20.2123651,8.496 L20.2123651,8.496 L20.0203651,9.348 C19.8043651,9.276 19.6603651,9.24 19.4083651,9.24 C18.8563651,9.24 18.1843651,9.648 17.7403651,10.776 L17.7403651,10.776 L17.7403651,15 L16.7683651,15 L16.7683651,8.52 L17.5603651,8.52 L17.6563651,9.708 L17.6923651,9.708 C18.1363651,8.892 18.7963651,8.352 19.5283651,8.352 Z M24.6043651,11.568 C22.3123651,11.832 21.5323651,12.384 21.5323651,13.272 C21.5323651,14.052 22.0723651,14.364 22.7323651,14.364 C23.3923651,14.364 23.9443651,14.052 24.6043651,13.464 L24.6043651,13.464 Z M30.1963651,9.18 C29.0923651,9.18 28.2403651,10.248 28.2403651,11.76 C28.2403651,13.356 28.9123651,14.328 30.1003651,14.328 C30.7243651,14.328 31.2763651,14.016 31.8523651,13.404 L31.8523651,13.404 L31.8523651,9.9 C31.2643651,9.384 30.7603651,9.18 30.1963651,9.18 Z M12.2203651,9.084 C11.4163651,9.084 10.7683651,9.672 10.7683651,10.656 C10.7683651,11.64 11.4403651,12.276 12.2203651,12.276 C13.0003651,12.276 13.6723651,11.64 13.6723651,10.656 C13.6723651,9.684 13.0123651,9.084 12.2203651,9.084 Z" id="形状结合" stroke="#0081FF" stroke-width="0.2" fill="#0081FF" fill-rule="nonzero"></path>
                <polygon id="down-copy-2" fill="#0081FF" fill-rule="nonzero" transform="translate(4.959798, 11.964466) rotate(-90.000000) translate(-4.959798, -11.964466) " points="8.07106781 9.56030304 8.91959595 10.4088312 4.95979797 14.3686292 1 10.4088312 1.84852814 9.56030304 4.95926407 12.6710332"></polygon>
                <rect id="矩形" x="0.944365081" y="0" width="34" height="34"></rect>
            </g>
        </g>
    </g>
</svg>