<?xml version="1.0" encoding="UTF-8"?>
<svg width="34px" height="34px" viewBox="0 0 34 34" version="1.1" xmlns="http://www.w3.org/2000/svg" xmlns:xlink="http://www.w3.org/1999/xlink">
    <title>icon_ls_normal</title>
    <g id="程序员" stroke="none" stroke-width="1" fill="none" fill-rule="evenodd">
        <g id="切图-dark" transform="translate(-97.000000, -278.000000)">
            <g id="icon_ls_normal" transform="translate(97.000000, 278.000000)">
                <path d="M17.65172,11.4316613 C17.4365167,11.2163526 17.1023664,11.1924294 16.8606148,11.3599241 L16.7747019,11.4317074 L11.4315416,16.7747012 C11.3136333,16.8927252 11.25,17.0496728 11.25,17.2132339 C11.25,17.3441631 11.2906616,17.4706675 11.3673005,17.5764656 L11.4314522,17.6516773 L16.7747046,22.9947633 C17.0169703,23.2370289 17.4096162,23.2370289 17.6517632,22.9947633 C17.8669689,22.7795576 17.8908807,22.4452491 17.7234985,22.2035762 L17.6517632,22.1177047 L12.7472925,17.2132339 L17.65172,12.3088065 C17.8669705,12.0934505 17.8908873,11.7592305 17.7235006,11.517574 L17.65172,11.4316613 Z M23.0683769,11.4316613 C22.8531736,11.2163526 22.5190233,11.1924294 22.2772717,11.3599241 L22.1913588,11.4317074 L16.8481985,16.7747012 C16.7301907,16.8928247 16.666657,17.0495725 16.666657,17.2132339 C16.666657,17.3440829 16.7073823,17.4706991 16.7839957,17.5764942 L16.8481092,17.6516773 L22.1913616,22.9947633 C22.4336272,23.2370289 22.8262732,23.2370289 23.0684202,22.9947633 C23.2836259,22.7795576 23.3075376,22.4452491 23.1401554,22.2035762 L23.0684202,22.1177047 L18.1639495,17.2132339 L23.0683769,12.3088065 C23.3105338,12.066531 23.3105338,11.6738182 23.0683769,11.4316613 Z" id="形状" fill="#E0E0E0" fill-rule="nonzero"></path>
                <rect id="矩形" x="0" y="0" width="34" height="34"></rect>
            </g>
        </g>
    </g>
</svg>