<?xml version="1.0" encoding="UTF-8"?>
<svg width="34px" height="34px" viewBox="0 0 34 34" version="1.1" xmlns="http://www.w3.org/2000/svg" xmlns:xlink="http://www.w3.org/1999/xlink">
    <title>icon_ro_normal</title>
    <g id="程序员" stroke="none" stroke-width="1" fill="none" fill-rule="evenodd">
        <g id="切图-dark" transform="translate(-97.000000, -317.000000)">
            <g id="icon_ro_normal" transform="translate(97.000000, 317.000000)">
                <g id="循环" transform="translate(10.000000, 10.000000)" fill="#E0E0E0" fill-rule="nonzero">
                    <path d="M2.7313342,8.62322214 C2.58217363,8.62310501 2.43909879,8.68235482 2.333692,8.78789296 L0.349223434,10.7723615 C0.137822401,10.9830298 0.0189967444,11.2691974 0.0189967444,11.567646 C0.0189967444,11.8660945 0.137822401,12.1522621 0.349223434,12.3629304 L2.333692,14.3455277 C2.55304536,14.564881 2.90868742,14.564881 3.12804078,14.3455277 C3.34739414,14.1261743 3.34739415,13.7705323 3.1280408,13.5511789 L1.14357224,11.5667103 L3.1280408,9.58224176 C3.28905492,9.42178589 3.33741351,9.18006728 3.25052374,8.97001538 C3.16363397,8.75996348 2.95864808,8.62304299 2.7313342,8.62322214 L2.7313342,8.62322214 Z M12.250421,0.0154376983 C12.0231071,0.0152585434 11.8181212,0.152179037 11.7312315,0.362230947 C11.6443417,0.572282857 11.6927003,0.814001469 11.8537144,0.974457341 L13.838183,2.9589259 L11.8537144,4.94339447 C11.7118177,5.08529121 11.6564007,5.29211023 11.7083385,5.4859448 C11.7602763,5.67977936 11.9116783,5.83118139 12.1055129,5.88311921 C12.2993475,5.93505702 12.5061665,5.87964003 12.6480632,5.73774327 L14.6325318,3.75327471 C14.8439328,3.54260644 14.9627585,3.25643879 14.9627585,2.95799027 C14.9627585,2.65954176 14.8439328,2.37337411 14.6325318,2.16270584 L12.6480632,0.180108539 C12.5426565,0.0745703964 12.3995816,0.0153205786 12.250421,0.0154376983 L12.250421,0.0154376983 Z" id="形状"></path>
                    <path d="M0.578452464,7.82419536 C0.268412373,7.82419536 0.0170752187,7.57285821 0.0170752187,7.26281811 L0.0170752187,5.95293787 C0.0170752187,3.98935063 1.6088772,2.39754866 3.57246445,2.39754866 L14.0515064,2.39754866 C14.3615464,2.39754866 14.6128836,2.64888582 14.6128836,2.9589259 C14.6128836,3.26896599 14.3615464,3.52030314 14.0515064,3.52030315 L3.57246445,3.52030315 C2.22895739,3.52030315 1.13982972,4.60943081 1.13982971,5.95293787 L1.13982971,7.26281811 C1.13982971,7.41170462 1.08068478,7.55449312 0.975406121,7.65977177 C0.870127466,7.76505043 0.727338967,7.82419536 0.578452464,7.82419536 Z M11.4317459,12.1280876 L0.859141087,12.1280876 C0.549100995,12.1280876 0.297763841,11.8767504 0.297763841,11.5667103 C0.297763841,11.2566702 0.549100995,11.0053331 0.859141087,11.0053331 L11.4317459,11.0053331 C12.7752529,11.0053331 13.8643806,9.91620542 13.8643806,8.57269836 L13.8643806,7.26281811 C13.8643806,6.95277802 14.1157178,6.70144087 14.4257579,6.70144087 C14.735798,6.70144087 14.9871351,6.95277802 14.9871351,7.26281811 L14.9871351,8.57269836 C14.9871351,10.5362856 13.3953331,12.1280876 11.4317459,12.1280876 Z" id="形状"></path>
                </g>
                <rect id="矩形" x="0" y="0" width="34" height="34"></rect>
            </g>
        </g>
    </g>
</svg>