<?xml version="1.0" encoding="UTF-8"?>
<svg width="34px" height="34px" viewBox="0 0 34 34" version="1.1" xmlns="http://www.w3.org/2000/svg" xmlns:xlink="http://www.w3.org/1999/xlink">
    <title>icon_binarysystem_normal</title>
    <g id="程序员" stroke="none" stroke-width="1" fill="none" fill-rule="evenodd">
        <g id="切图-dark" transform="translate(-259.000000, -448.000000)">
            <g id="icon_binarysystem_normal备份" transform="translate(259.000000, 448.000000)">
                <rect id="矩形" x="0" y="0" width="34" height="34"></rect>
                <path d="M16.0576923,21.1255887 L16.0576923,22.8563579 L10,22.8563579 L10,21.1255887 L16.0576923,21.1255887 Z M25,21.1255887 L25,22.8563579 L18.9423077,22.8563579 L18.9423077,21.1255887 L25,21.1255887 Z M16.0576923,16.0627943 L16.0576923,17.7935636 L10,17.7935636 L10,16.0627943 L16.0576923,16.0627943 Z M25,16.0627943 L25,17.7935636 L18.9423077,17.7935636 L18.9423077,16.0627943 L25,16.0627943 Z M16.0576923,11 L16.0576923,12.7307692 L10,12.7307692 L10,11 L16.0576923,11 Z M25,11 L25,12.7307692 L18.9423077,12.7307692 L18.9423077,11 L25,11 Z" id="形状结合" fill="#FFFFFF"></path>
            </g>
        </g>
    </g>
</svg>