<?xml version="1.0" encoding="UTF-8"?>
<svg width="34px" height="34px" viewBox="0 0 34 34" version="1.1" xmlns="http://www.w3.org/2000/svg" xmlns:xlink="http://www.w3.org/1999/xlink">
    <title>icon_generalkeyboard_normal</title>
    <g id="程序员" stroke="none" stroke-width="1" fill="none" fill-rule="evenodd">
        <g id="切图-dark" transform="translate(-97.000000, -399.000000)">
            <g id="icon_generalkeyboard_normal" transform="translate(97.000000, 399.000000)">
                <path d="M14.2,20.8 L14.2,23 L12,23 L12,20.8 L14.2,20.8 Z M18.6,20.8 L18.6,23 L16.4,23 L16.4,20.8 L18.6,20.8 Z M23,20.8 L23,23 L20.8,23 L20.8,20.8 L23,20.8 Z M14.2,16.4 L14.2,18.6 L12,18.6 L12,16.4 L14.2,16.4 Z M18.6,16.4 L18.6,18.6 L16.4,18.6 L16.4,16.4 L18.6,16.4 Z M23,16.4 L23,18.6 L20.8,18.6 L20.8,16.4 L23,16.4 Z M14.2,12 L14.2,14.2 L12,14.2 L12,12 L14.2,12 Z M18.6,12 L18.6,14.2 L16.4,14.2 L16.4,12 L18.6,12 Z M23,12 L23,14.2 L20.8,14.2 L20.8,12 L23,12 Z" id="形状结合" fill="#E0E0E0"></path>
                <rect id="矩形" x="0" y="0" width="34" height="34"></rect>
            </g>
        </g>
    </g>
</svg>