<?xml version="1.0" encoding="UTF-8"?>
<svg width="34px" height="34px" viewBox="0 0 34 34" version="1.1" xmlns="http://www.w3.org/2000/svg" xmlns:xlink="http://www.w3.org/1999/xlink">
    <title>icon_as_normal</title>
    <g id="程序员" stroke="none" stroke-width="1" fill="none" fill-rule="evenodd">
        <g id="切图-dark" transform="translate(-259.000000, -241.000000)">
            <g id="icon_as_normal备份" transform="translate(259.000000, 241.000000)">
                <g id="箭头" transform="translate(9.000000, 10.000000)" fill="#FFFFFF">
                    <path d="M6.57642359,1.60106692 C6.37550755,1.40005243 6.06353928,1.37771749 5.83783052,1.53409875 L5.75761853,1.60111911 L0.462523131,6.8960495 C0.352407347,7.00627335 0.293023427,7.15274011 0.293023427,7.30549081 C0.293023427,7.42777189 0.330966613,7.5458399 0.402521294,7.64460856 L0.462421777,7.71483071 L5.75762165,13.0098656 C5.98381202,13.236056 6.35039304,13.236056 6.57647266,13.0098656 C6.7773914,12.8089469 6.7997157,12.4968181 6.64344557,12.271186 L6.57647266,12.1910146 L1.69094884,7.30549081 L6.57642359,2.42001607 C6.77739322,2.21894798 6.79972317,1.90690301 6.64344793,1.68128565 L6.57642359,1.60106692 Z M11.9443674,1.60106692 C11.7434514,1.40005243 11.4314831,1.37771749 11.2057744,1.53409875 L11.1255624,1.60111911 L5.83046688,6.8960496 C5.7202535,7.00637103 5.66096728,7.15263945 5.66096728,7.30549081 C5.66096728,7.42769137 5.69897298,7.5458702 5.77050266,7.64463641 L5.83036563,7.71483071 L11.1255655,13.0098656 C11.3517559,13.236056 11.7183369,13.236056 11.9444165,13.0098656 C12.1453352,12.8089469 12.1676596,12.4968181 12.0113894,12.271186 L11.9444165,12.1910146 L7.05889269,7.30549081 L11.9443674,2.42001607 C12.1704583,2.19381447 12.1704583,1.82715775 11.9443674,1.60106692 Z" id="形状" fill-rule="nonzero"></path>
                    <rect id="矩形" x="15.8666667" y="0" width="1.13333333" height="14.7333333"></rect>
                </g>
                <rect id="矩形" x="0" y="0" width="34" height="34"></rect>
            </g>
        </g>
    </g>
</svg>