<?xml version="1.0" encoding="UTF-8"?>
<svg width="34px" height="34px" viewBox="0 0 34 34" version="1.1" xmlns="http://www.w3.org/2000/svg" xmlns:xlink="http://www.w3.org/1999/xlink">
    <title>icon_binarysystem_normal</title>
    <g id="程序员" stroke="none" stroke-width="1" fill="none" fill-rule="evenodd">
        <g id="切图-dark" transform="translate(-97.000000, -448.000000)">
            <g id="icon_binarysystem_normal" transform="translate(97.000000, 448.000000)">
                <rect id="矩形" x="0" y="0" width="34" height="34"></rect>
                <path d="M16.25,20.7755102 L16.25,22.2755102 L11,22.2755102 L11,20.7755102 L16.25,20.7755102 Z M24,20.7755102 L24,22.2755102 L18.75,22.2755102 L18.75,20.7755102 L24,20.7755102 Z M16.25,16.3877551 L16.25,17.8877551 L11,17.8877551 L11,16.3877551 L16.25,16.3877551 Z M24,16.3877551 L24,17.8877551 L18.75,17.8877551 L18.75,16.3877551 L24,16.3877551 Z M16.25,12 L16.25,13.5 L11,13.5 L11,12 L16.25,12 Z M24,12 L24,13.5 L18.75,13.5 L18.75,12 L24,12 Z" id="形状结合" fill="#E0E0E0"></path>
            </g>
        </g>
    </g>
</svg>