<?xml version="1.0" encoding="UTF-8"?>
<svg width="34px" height="34px" viewBox="0 0 34 34" version="1.1" xmlns="http://www.w3.org/2000/svg" xmlns:xlink="http://www.w3.org/1999/xlink">
    <title>icon_ro_normal</title>
    <g id="程序员" stroke="none" stroke-width="1" fill="none" fill-rule="evenodd">
        <g id="切图-dark" transform="translate(-259.000000, -317.000000)" fill="#FFFFFF" fill-rule="nonzero">
            <g id="icon_ro_normal备份" transform="translate(259.000000, 317.000000)">
                <g id="循环" transform="translate(9.000000, 9.000000)">
                    <path d="M3.09551209,9.77298509 C2.92646344,9.77285235 2.76431196,9.84000213 2.64485093,9.95961202 L0.395786559,12.2086764 C0.156198721,12.4474338 0.0215296437,12.7717571 0.0215296437,13.1099987 C0.0215296437,13.4482404 0.156198721,13.7725637 0.395786559,14.0113211 L2.64485093,16.2582647 C2.89345141,16.5068652 3.29651241,16.5068652 3.54511289,16.2582647 C3.79371336,16.0096642 3.79371337,15.6066032 3.54511291,15.3580027 L1.29604853,13.1089384 L3.54511291,10.859874 C3.72759557,10.678024 3.78240197,10.4040763 3.68392691,10.1660174 C3.58545184,9.92795861 3.35313449,9.77278205 3.09551209,9.77298509 L3.09551209,9.77298509 Z M13.8838105,0.0174960581 C13.6261881,0.0172930159 13.3938707,0.172469575 13.2953957,0.410528407 C13.1969206,0.648587238 13.251727,0.922534998 13.4342097,1.10438499 L15.6832741,3.35344936 L13.4342097,5.60251373 C13.2733934,5.76333004 13.2105874,5.99772493 13.2694503,6.2174041 C13.3283132,6.43708328 13.4999021,6.60867225 13.7195813,6.6675351 C13.9392605,6.72639796 14.1736554,6.66359203 14.3344717,6.50277571 L16.583536,4.25371133 C16.8231239,4.01495396 16.957793,3.69063063 16.957793,3.35238898 C16.957793,3.01414732 16.8231239,2.68982399 16.583536,2.45106662 L14.3344717,0.204123011 C14.2150106,0.0845131159 14.0528592,0.0173633224 13.8838105,0.0174960581 L13.8838105,0.0174960581 Z" id="形状"></path>
                    <path d="M0.655579459,8.86742141 C0.304200689,8.86742141 0.0193519145,8.58257263 0.0193519145,8.23119386 L0.0193519145,6.74666292 C0.0193519145,4.52126404 1.82339416,2.71722181 4.04879304,2.71722181 L15.9250405,2.71722181 C16.2764193,2.71722181 16.5612681,3.00207059 16.5612681,3.35344936 C16.5612681,3.70482812 16.2764193,3.98967689 15.9250405,3.9896769 L4.04879304,3.9896769 C2.5261517,3.9896769 1.29180702,5.22402158 1.291807,6.74666292 L1.291807,8.23119386 C1.291807,8.3999319 1.22477608,8.56175886 1.10546027,8.68107467 C0.986144461,8.80039048 0.824317496,8.86742141 0.655579459,8.86742141 Z M12.9559787,13.7451659 L0.973693232,13.7451659 C0.622314461,13.7451659 0.337465687,13.4603171 0.337465687,13.1089384 C0.337465687,12.7575596 0.622314461,12.4727108 0.973693232,12.4727108 L12.9559787,12.4727108 C14.47862,12.4727108 15.7129647,11.2383661 15.7129647,9.71572481 L15.7129647,8.23119386 C15.7129647,7.87981509 15.9978135,7.59496632 16.3491922,7.59496632 C16.700571,7.59496632 16.9854198,7.87981509 16.9854198,8.23119386 L16.9854198,9.71572481 C16.9854198,11.9411237 15.1813775,13.7451659 12.9559787,13.7451659 Z" id="形状"></path>
                </g>
            </g>
        </g>
    </g>
</svg>