<?xml version="1.0" encoding="UTF-8"?>
<svg width="34px" height="34px" viewBox="0 0 34 34" version="1.1" xmlns="http://www.w3.org/2000/svg" xmlns:xlink="http://www.w3.org/1999/xlink">
    <title>icon_generalkeyboard_normal</title>
    <g id="程序员" stroke="none" stroke-width="1" fill="none" fill-rule="evenodd">
        <g id="切图-dark" transform="translate(-259.000000, -399.000000)">
            <g id="icon_generalkeyboard_normal备份" transform="translate(259.000000, 399.000000)">
                <path d="M13.6,21.4 L13.6,24 L11,24 L11,21.4 L13.6,21.4 Z M18.8,21.4 L18.8,24 L16.2,24 L16.2,21.4 L18.8,21.4 Z M24,21.4 L24,24 L21.4,24 L21.4,21.4 L24,21.4 Z M13.6,16.2 L13.6,18.8 L11,18.8 L11,16.2 L13.6,16.2 Z M18.8,16.2 L18.8,18.8 L16.2,18.8 L16.2,16.2 L18.8,16.2 Z M24,16.2 L24,18.8 L21.4,18.8 L21.4,16.2 L24,16.2 Z M13.6,11 L13.6,13.6 L11,13.6 L11,11 L13.6,11 Z M18.8,11 L18.8,13.6 L16.2,13.6 L16.2,11 L18.8,11 Z M24,11 L24,13.6 L21.4,13.6 L21.4,11 L24,11 Z" id="形状结合" fill="#FFFFFF"></path>
                <rect id="矩形" x="0" y="0" width="34" height="34"></rect>
            </g>
        </g>
    </g>
</svg>