<?xml version="1.0" encoding="UTF-8"?>
<svg width="18px" height="18px" viewBox="0 0 18 18" version="1.1" xmlns="http://www.w3.org/2000/svg" xmlns:xlink="http://www.w3.org/1999/xlink">
    <title>memory_normal</title>
    <g id="科学计数模式" stroke="none" stroke-width="1" fill="none" fill-rule="evenodd" opacity="0.8">
        <g id="计算器-切图dark" transform="translate(-102.000000, -552.000000)" fill="#FFFFFF" fill-rule="nonzero" stroke="#FFFFFF" stroke-width="0.25">
            <g id="编组-2" transform="translate(85.000000, 534.000000)">
                <g id="memory_normal" transform="translate(17.000000, 18.000000)">
                    <path d="M2.91747665,6.55742375 C3.01517774,6.3673625 3.14355056,6.12584328 3.23859712,5.97676859 C4.40365087,4.14944891 6.44834915,2.9375 8.7761129,2.9375 C12.4004813,2.9375 15.3386129,5.87563156 15.3386129,9.5 C15.3386129,13.1243684 12.4004813,16.0625 8.7761129,16.0625 C6.41954962,16.0625 4.35309993,14.8203772 3.19575993,12.9551272 C3.03773962,12.7004502 2.98424681,12.5743705 2.98424681,12.5743705 C2.86586259,12.342943 2.5798754,12.2376059 2.3402654,12.3360247 C2.09898431,12.4351292 1.99874587,12.7005416 2.11264509,12.930372 C2.11264509,12.930372 2.18841524,13.1025791 2.35636978,13.379885 C3.67062243,15.5498183 6.05401368,17 8.7761129,17 C12.9182485,17 16.2761129,13.6421356 16.2761129,9.5 C16.2761129,5.35786438 12.9182485,2 8.7761129,2 C6.09248024,2 3.73805024,3.40948578 2.41272431,5.52855687 C2.34567243,5.63576609 2.26321696,5.78584297 2.18446556,5.93541641 L1.93118962,4.33629453 C1.89106462,4.08295625 1.65303712,3.91013328 1.39555837,3.95091359 C1.13986181,3.99141219 0.965799932,4.23398844 1.00569009,4.48584641 L1.3726904,6.80299484 C1.45361024,7.31390187 1.92973462,7.66305266 2.44428712,7.58155578 L4.76143603,7.21455547 C5.01637274,7.17417734 5.19049181,6.93594453 5.14971103,6.67846531 C5.1092129,6.42276922 4.86759056,6.24855594 4.61767321,6.28813906 L2.91747665,6.55742375 L2.91747665,6.55742375 L2.91747665,6.55742375 Z M9,5.497699 C9,5.2228275 8.7780675,5 8.5,5 C8.2238575,5 8,5.2278805 8,5.5012365 L8,9.995735 C8,10.550375 8.450975,11 9.004265,11 L13.4987635,11 C13.7755885,11 14,10.7780675 14,10.5 C14,10.2238575 13.772168,10 13.502301,10 L9.497699,10 C9.2228275,10 9,9.772168 9,9.502301 L9,5.497699 L9,5.497699 L9,5.497699 Z" id="形状"></path>
                </g>
            </g>
        </g>
    </g>
</svg>