<?xml version="1.0" encoding="UTF-8"?>
<svg width="16px" height="15px" viewBox="0 0 16 15" version="1.1" xmlns="http://www.w3.org/2000/svg" xmlns:xlink="http://www.w3.org/1999/xlink">
    <title>memory_normal</title>
    <g id="科学计数模式" stroke="none" stroke-width="1" fill="none" fill-rule="evenodd" fill-opacity="0.8">
        <g id="计算器-切图dark" transform="translate(-102.000000, -552.000000)" fill="#FFFFFF" fill-rule="nonzero">
            <g id="编组-2" transform="translate(85.000000, 534.000000)">
                <g id="memory_normal" transform="translate(17.000000, 18.000000)">
                    <path d="M1.91747665,4.55742375 C2.01517774,4.3673625 2.14355056,4.12584328 2.23859712,3.97676859 C3.40365087,2.14944891 5.44834915,0.9375 7.7761129,0.9375 C11.4004813,0.9375 14.3386129,3.87563156 14.3386129,7.5 C14.3386129,11.1243684 11.4004813,14.0625 7.7761129,14.0625 C5.41954962,14.0625 3.35309993,12.8203772 2.19575993,10.9551272 C2.03773962,10.7004502 1.98424681,10.5743705 1.98424681,10.5743705 C1.86586259,10.342943 1.5798754,10.2376059 1.3402654,10.3360247 C1.09898431,10.4351292 0.99874587,10.7005416 1.11264509,10.930372 C1.11264509,10.930372 1.18841524,11.1025791 1.35636978,11.379885 C2.67062243,13.5498183 5.05401368,15 7.7761129,15 C11.9182485,15 15.2761129,11.6421356 15.2761129,7.5 C15.2761129,3.35786438 11.9182485,0 7.7761129,0 C5.09248024,0 2.73805024,1.40948578 1.41272431,3.52855688 C1.34567243,3.63576609 1.26321696,3.78584297 1.18446556,3.93541641 L0.93118962,2.33629453 C0.89106462,2.08295625 0.65303712,1.91013328 0.39555837,1.95091359 C0.139861807,1.99141219 -0.0342000676,2.23398844 0.00569008869,2.48584641 L0.372690401,4.80299484 C0.453610245,5.31390187 0.92973462,5.66305266 1.44428712,5.58155578 L3.76143603,5.21455547 C4.01637274,5.17417734 4.19049181,4.93594453 4.14971103,4.67846531 C4.1092129,4.42276922 3.86759056,4.24855594 3.61767321,4.28813906 L1.91747665,4.55742375 L1.91747665,4.55742375 L1.91747665,4.55742375 Z M7.7761129,3.27909281 C7.7761129,3.02140078 7.56805118,2.8125 7.3073629,2.8125 C7.04847931,2.8125 6.8386129,3.02613797 6.8386129,3.28240922 L6.8386129,7.49600156 C6.8386129,8.01597656 7.26140196,8.4375 7.78011134,8.4375 L11.9937037,8.4375 C12.2532271,8.4375 12.4636129,8.22943828 12.4636129,7.96875 C12.4636129,7.70986641 12.2500204,7.5 11.9970201,7.5 L8.24270571,7.5 C7.98501368,7.5 7.7761129,7.2864075 7.7761129,7.03340719 L7.7761129,3.27909281 L7.7761129,3.27909281 L7.7761129,3.27909281 Z" id="形状"></path>
                </g>
            </g>
        </g>
    </g>
</svg>