<?xml version="1.0" encoding="UTF-8"?>
<svg width="34px" height="34px" viewBox="0 0 34 34" version="1.1" xmlns="http://www.w3.org/2000/svg" xmlns:xlink="http://www.w3.org/1999/xlink">
    <title>rad_normal_hover</title>
    <g id="科学计数模式" stroke="none" stroke-width="1" fill="none" fill-rule="evenodd">
        <g id="计算器-切图dark" transform="translate(-279.000000, -958.000000)" fill="#FFFFFF" fill-rule="nonzero" stroke="#FFFFFF" stroke-width="0.1">
            <g id="rad_normal_hover" transform="translate(279.000000, 958.000000)">
                <path d="M10.6087466,20.9664947 C10.9329462,20.9664947 11.2304136,21.0288313 11.4643319,21.102165 L11.4643319,21.102165 L14.0689087,21.1475173 L14.0689087,22.1474518 L12.708237,22.1474518 C13.0060348,22.4792439 13.2067168,22.9698493 13.2067168,23.5387279 C13.2067168,24.2818915 12.9311474,24.8903061 12.4820375,25.3190019 C12.0109537,25.7686727 11.34797,26.0208812 10.6087466,26.0208812 C10.2649717,26.0208812 9.88420797,25.9345203 9.57393184,25.7858163 C9.34062149,25.9884166 9.16599633,26.2059579 9.16599633,26.5628339 C9.16599633,26.7696008 9.22902615,26.9452017 9.40125435,27.0686839 C9.56026378,27.1826886 9.80766176,27.2524397 10.1700858,27.2684993 L10.1700858,27.2684993 L11.7025722,27.2720776 C12.5334456,27.2720776 13.1536939,27.4074296 13.5652509,27.6883337 C13.9768297,27.9692525 14.1847256,28.3948331 14.1847256,28.9821188 C14.1847256,29.6685541 13.814592,30.3071985 13.1495657,30.7634939 C12.5344477,31.1855456 11.6661982,31.4514036 10.6087466,31.4514036 C9.72317396,31.4514036 8.97767512,31.2731043 8.45968297,30.936985 C7.95462348,30.6092575 7.66332586,30.1323099 7.66332586,29.5225973 C7.66332586,28.9779463 7.97903921,28.4525986 8.53149665,28.0353486 C8.2549473,27.5622855 8.06225049,27.2172495 8.06225049,26.7429934 C8.06225049,26.2200635 8.39618363,25.787175 8.72944366,25.5095177 C8.36572978,25.0065807 7.93356513,24.3399353 7.93356513,23.5129908 C7.93356513,22.7566232 8.22321014,22.1359139 8.68528682,21.696488 C9.17697551,21.2289017 9.86475585,20.9664947 10.6087466,20.9664947 Z M9.47406003,28.2383819 C9.00244624,28.58306 8.79280878,28.9746254 8.79280878,29.3681749 C8.79280878,29.7276015 8.97885287,30.0233013 9.31721508,30.2288885 C9.65986868,30.4370831 10.1562145,30.5535544 10.7760375,30.5535544 C11.4062181,30.5535544 11.9351018,30.3946227 12.3147494,30.1488393 C12.7172868,29.8882371 12.9522943,29.5297905 12.9522943,29.1622783 C12.9522943,28.8859778 12.854435,28.6925203 12.6432629,28.565056 C12.415042,28.4273011 12.0620157,28.3644478 11.5724186,28.3500648 L10.3642444,28.3500863 C10.1097177,28.3500863 9.78066854,28.3128926 9.47406003,28.2383819 Z M10.6087466,21.9286867 C10.1980694,21.9286867 9.826824,22.0839171 9.5640451,22.3716147 C9.31666126,22.6424574 9.16599633,23.029886 9.16599633,23.5129908 C9.16599633,23.9918951 9.32090965,24.3860569 9.57141523,24.6646364 C9.83561736,24.9584474 10.2057488,25.123032 10.6087466,25.123032 C11.0058894,25.123032 11.3733039,24.9578315 11.6359704,24.6631882 C11.8842605,24.3846715 12.0386283,23.991055 12.0386283,23.5129908 C12.0386283,23.0332627 11.8892088,22.6443939 11.6424477,22.3718837 C11.3832311,22.0856184 11.0171549,21.9286867 10.6087466,21.9286867 Z M22.756645,21.0255802 C23.5613029,21.0255802 24.1499639,21.2789178 24.5509977,21.7237994 C24.9810098,22.2008276 25.1956367,22.9009202 25.2229512,23.7560443 L25.2229512,23.7560443 L25.225963,28.293355 L24.1665662,28.293355 L24.0689513,27.5002343 C23.3701535,28.0356978 22.5976465,28.460646 21.7528991,28.460646 C21.1374857,28.460646 20.6026369,28.2650408 20.2272765,27.9014842 C19.8706704,27.5560922 19.6568018,27.0585481 19.6568018,26.4288914 C19.6568018,25.6573836 19.9900984,25.0766458 20.6988696,24.6458657 C21.3988699,24.2204164 22.4703579,23.942112 23.9546481,23.77193 C23.949463,23.3024284 23.8610384,22.8464969 23.601776,22.5293635 C23.3878083,22.2676352 23.0567637,22.103589 22.5636169,22.103589 C21.8274788,22.103589 21.1563077,22.4165487 20.628575,22.7531064 L20.628575,22.7531064 L19.9261333,21.9791983 C20.5738803,21.5578009 21.5971252,21.0255802 22.756645,21.0255802 Z M23.954893,24.6451533 C22.8572264,24.7807267 22.1060353,24.9814821 21.6215606,25.2523925 C21.3711344,25.3924267 21.1930869,25.5508473 21.0768352,25.7291793 C20.9555246,25.9152718 20.9021016,26.1227057 20.9021016,26.3516802 C20.9021016,26.7097729 21.0144453,26.9685207 21.2048669,27.1410902 C21.4206877,27.3366779 21.7338815,27.4212428 22.0874811,27.4212428 C22.6931205,27.4212428 23.1943519,27.1601046 23.954893,26.5214336 L23.954893,24.6451533 Z M33.05,17.95 L33.05,28.293355 L32.0042676,28.293355 L31.8956375,27.5208744 C31.3187217,28.0406092 30.5985038,28.460646 29.7828659,28.460646 C28.8804592,28.460646 28.139788,28.1139875 27.6278834,27.4649657 C27.13167,26.835838 26.8503137,25.9202891 26.8503137,24.7559816 C26.8503137,23.6533143 27.1857023,22.7500102 27.7124392,22.1089602 C28.2841904,21.4131269 29.0815609,21.0255802 29.9244198,21.0255802 C30.6528806,21.0255802 31.1540355,21.2622952 31.6856404,21.6687079 L31.6856404,21.6687079 L31.7789632,20.6895241 L31.7789632,17.95 L33.05,17.95 Z M30.1303164,22.1164575 C29.5708594,22.1164575 29.0733523,22.388489 28.7186908,22.858359 C28.3706258,23.3194898 28.1599561,23.9701956 28.1599561,24.7431131 C28.1599561,25.5774461 28.3309884,26.2430198 28.6575933,26.6980894 C28.9762691,27.1421109 29.4435576,27.3826372 30.0402366,27.3826372 C30.614994,27.3826372 31.1252788,27.1173795 31.7789632,26.4471907 L31.7789632,22.8224483 C31.2053857,22.3161156 30.6929649,22.1164575 30.1303164,22.1164575 Z M18.5872392,21.0255802 C17.8266508,21.0255802 17.1339146,21.5427166 16.6044063,22.3733586 L16.5100532,21.2057397 L15.4487904,21.2057397 L15.4487904,28.293355 L16.7189369,28.293355 L16.8039797,23.5601981 C17.0109095,23.0983517 17.2590298,22.7724798 17.5188859,22.5549155 C17.8249347,22.2986766 18.1465589,22.1936687 18.4328167,22.1936687 C18.733164,22.1936687 18.8996704,22.2230539 19.1592871,22.3313323 L19.2543834,21.1369319 C19.0610373,21.0550492 18.8577924,21.0255802 18.5872392,21.0255802 Z M0.900093677,8.11655284 L-0.0707045788,9.0873511 L3.22906647,12.388261 L-0.0707106453,15.6880442 L0.900093677,16.6588485 L5.17124151,12.3877007 L0.900093677,8.11655284 Z M22.756645,8.02558021 C23.5613029,8.02558021 24.1499639,8.27891778 24.5509977,8.72379941 C24.9810098,9.2008276 25.1956367,9.90092019 25.2229512,10.7560443 L25.2229512,10.7560443 L25.225963,15.293355 L24.1665662,15.293355 L24.0689513,14.5002343 C23.3701535,15.0356978 22.5976465,15.460646 21.7528991,15.460646 C21.1374857,15.460646 20.6026369,15.2650408 20.2272765,14.9014842 C19.8706704,14.5560922 19.6568018,14.0585481 19.6568018,13.4288914 C19.6568018,12.6573836 19.9900984,12.0766458 20.6988696,11.6458657 C21.3988699,11.2204164 22.4703579,10.942112 23.9546481,10.77193 C23.949463,10.3024284 23.8610384,9.84649692 23.601776,9.52936351 C23.3878083,9.26763515 23.0567637,9.10358898 22.5636169,9.10358898 C21.8274788,9.10358898 21.1563077,9.41654868 20.628575,9.75310638 L20.628575,9.75310638 L19.9261333,8.97919827 C20.5738803,8.55780092 21.5971252,8.02558021 22.756645,8.02558021 Z M23.954893,11.6451533 C22.8572264,11.7807267 22.1060353,11.9814821 21.6215606,12.2523925 C21.3711344,12.3924267 21.1930869,12.5508473 21.0768352,12.7291793 C20.9555246,12.9152718 20.9021016,13.1227057 20.9021016,13.3516802 C20.9021016,13.7097729 21.0144453,13.9685207 21.2048669,14.1410902 C21.4206877,14.3366779 21.7338815,14.4212428 22.0874811,14.4212428 C22.6931205,14.4212428 23.1943519,14.1601046 23.954893,13.5214336 L23.954893,11.6451533 Z M33.05,4.95 L33.05,15.293355 L32.0042676,15.293355 L31.8956375,14.5208744 C31.3187217,15.0406092 30.5985038,15.460646 29.7828659,15.460646 C28.8804592,15.460646 28.139788,15.1139875 27.6278834,14.4649657 C27.13167,13.835838 26.8503137,12.9202891 26.8503137,11.7559816 C26.8503137,10.6533143 27.1857023,9.75001024 27.7124392,9.1089602 C28.2841904,8.41312687 29.0815609,8.02558021 29.9244198,8.02558021 C30.6528806,8.02558021 31.1540355,8.26229517 31.6856404,8.66870787 L31.6856404,8.66870787 L31.7789632,7.68952412 L31.7789632,4.95 L33.05,4.95 Z M30.1303164,9.11645752 C29.5708594,9.11645752 29.0733523,9.38848898 28.7186908,9.858359 C28.3706258,10.3194898 28.1599561,10.9701956 28.1599561,11.7431131 C28.1599561,12.5774461 28.3309884,13.2430198 28.6575933,13.6980894 C28.9762691,14.1421109 29.4435576,14.3826372 30.0402366,14.3826372 C30.614994,14.3826372 31.1252788,14.1173795 31.7789632,13.4471907 L31.7789632,9.82244832 C31.2053857,9.31611564 30.6929649,9.11645752 30.1303164,9.11645752 Z M18.5872392,8.02558021 C17.8266508,8.02558021 17.1339146,8.54271662 16.6044063,9.37335862 L16.5100532,8.20573972 L15.4487904,8.20573972 L15.4487904,15.293355 L16.7189369,15.293355 L16.8039797,10.5601981 C17.0109095,10.0983517 17.2590298,9.7724798 17.5188859,9.55491555 C17.8249347,9.29867659 18.1465589,9.19366874 18.4328167,9.19366874 C18.733164,9.19366874 18.8996704,9.22305387 19.1592871,9.33133227 L19.2543834,8.13693187 C19.0610373,8.05504918 18.8577924,8.02558021 18.5872392,8.02558021 Z" id="形状结合"></path>
            </g>
        </g>
    </g>
</svg>