<?xml version="1.0" encoding="UTF-8"?>
<svg width="34px" height="34px" viewBox="0 0 34 34" version="1.1" xmlns="http://www.w3.org/2000/svg" xmlns:xlink="http://www.w3.org/1999/xlink">
    <title>rad_normal</title>
    <g id="科学计数模式" stroke="none" stroke-width="1" fill="none" fill-rule="evenodd">
        <g id="计算器-切图dark" transform="translate(-94.000000, -958.000000)">
            <g id="rad_normal" transform="translate(94.000000, 958.000000)">
                <path d="M11.504,21.266 C11.8064859,21.266 12.0840487,21.3241149 12.3023843,21.3925225 L12.3023843,21.3925225 L14.734,21.434863 L14.734,22.374 L13.4693277,22.374 C13.7447385,22.6838473 13.93,23.1397869 13.93,23.668 C13.93,24.3620399 13.6726009,24.9302094 13.2531869,25.330559 C12.8133121,25.7504396 12.1942673,25.986 11.504,25.986 C11.1836885,25.986 10.8289936,25.905719 10.539609,25.7673914 C10.3236272,25.9552454 10.162,26.1571535 10.162,26.488 C10.162,26.678761 10.2197455,26.8409935 10.3777715,26.9553812 C10.5241339,27.0613262 10.7518874,27.1263763 11.0849887,27.1422064 L11.0849887,27.1422064 L12.524,27.146 C13.2996868,27.146 13.8786632,27.2725172 14.2628634,27.5347491 C14.6475501,27.797313 14.842,28.195033 14.842,28.744 C14.842,29.3851319 14.4964213,29.9817159 13.8752408,30.4079274 C13.3011768,30.8018107 12.4908937,31.05 11.504,31.05 C10.6774163,31.05 9.98162033,30.8834782 9.49814628,30.5697572 C9.0261639,30.2634931 8.754,29.8177616 8.754,29.248 C8.754,28.739958 9.04785507,28.2497675 9.56250416,27.860211 C9.30508074,27.4197903 9.126,27.0979651 9.126,26.656 C9.126,26.1686027 9.43628769,25.7648033 9.74699546,25.5052532 C9.40785577,25.0360564 9.006,24.4145494 9.006,23.644 C9.006,22.9376524 9.27652304,22.3580123 9.70803483,21.9476531 C10.1671324,21.5110602 10.8093113,21.266 11.504,21.266 Z M10.4466026,28.0541042 C10.0088641,28.3744761 9.814,28.7382479 9.814,29.104 C9.814,29.4380098 9.98699885,29.7127148 10.3013902,29.9037374 C10.6205055,30.0976302 11.0827781,30.206 11.66,30.206 C12.2468832,30.206 12.739454,30.058044 13.0930256,29.8291422 C13.4672386,29.5868771 13.686,29.2537359 13.686,28.912 C13.686,28.6565949 13.5959522,28.4774251 13.4000029,28.3591494 C13.1879554,28.2311567 12.8594947,28.1722957 12.4024342,28.1579755 L11.276,28.158 C11.0388403,28.158 10.7323639,28.1234089 10.4466026,28.0541042 Z M11.504,22.17 C11.1220326,22.17 10.7767167,22.3143409 10.5323003,22.5819347 C10.3021064,22.8339573 10.162,23.1944909 10.162,23.644 C10.162,24.0896231 10.3060832,24.4564296 10.5391906,24.7156611 C10.7849218,24.9889312 11.1291794,25.142 11.504,25.142 C11.8733641,25.142 12.2150801,24.9883559 12.4593744,24.7143215 C12.6904219,24.4551465 12.834,24.0888452 12.834,23.644 C12.834,23.1976276 12.6950487,22.8357515 12.465432,22.5821749 C12.224338,22.3159232 11.8838444,22.17 11.504,22.17 Z M22.832,21.266 C23.5824431,21.266 24.1316477,21.5020567 24.50614,21.9164223 C24.907526,22.360545 25.1085518,23.0123239 25.1350041,23.8088523 L25.1350041,23.8088523 L25.1380358,28.05 L24.1437766,28.05 L24.0531055,27.3132979 C23.4020833,27.8114001 22.682562,28.206 21.896,28.206 C21.3211496,28.206 20.8216022,28.0232057 20.4709984,27.6836271 C20.1378738,27.3609781 19.938,26.8962235 19.938,26.308 C19.938,25.5873388 20.249277,25.0448345 20.9113574,24.6424323 C21.5639638,24.2457883 22.5626411,23.9861374 23.9457366,23.8273061 C23.9405621,23.3914158 23.8582342,22.9682955 23.6174779,22.673799 C23.41849,22.4303941 23.110557,22.278 22.652,22.278 C21.9651037,22.278 21.3389578,22.5705761 20.8469747,22.8846813 L20.8469747,22.8846813 L20.1873659,22.1579639 C20.7916382,21.7643902 21.7480193,21.266 22.832,21.266 Z M23.946,24.6484693 C22.9250779,24.7748106 22.2261343,24.9616817 21.7751729,25.213852 C21.5422122,25.3441198 21.3765408,25.4914556 21.2683927,25.6573565 C21.1556288,25.8303381 21.106,26.0231637 21.106,26.236 C21.106,26.5687371 21.210256,26.8092542 21.3872222,26.9696298 C21.5879225,27.1515145 21.8792175,27.23 22.208,27.23 C22.7717904,27.23 23.2383523,26.9868107 23.946,26.3927233 L23.946,24.6484693 Z M32.434,18.398 L32.434,28.05 L31.4525393,28.05 L31.3517158,27.3330329 C30.8139146,27.8162788 30.1432043,28.206 29.384,28.206 C28.5413696,28.206 27.8497982,27.8822518 27.3718142,27.2762364 C26.9087089,26.6890851 26.646,25.8346576 26.646,24.748 C26.646,23.7188437 26.9590931,22.8757941 27.4507053,22.2774916 C27.9845412,21.627802 28.7290477,21.266 29.516,21.266 C30.19392,21.266 30.6610127,21.4855229 31.1555691,21.8627257 L31.1555691,21.8627257 L31.242,20.956 L31.242,18.398 L32.434,18.398 Z M29.708,22.29 C29.187347,22.29 28.7243904,22.5432262 28.3943428,22.9804867 C28.0701452,23.409997 27.874,24.0161026 27.874,24.736 C27.874,25.5131473 28.0331845,26.1331638 28.3374171,26.5570613 C28.6339526,26.970234 29.0687934,27.194 29.624,27.194 C30.1545916,27.194 30.6260414,26.9509012 31.242,26.3235983 L31.242,22.9464895 C30.7083746,22.4757602 30.2315637,22.29 29.708,22.29 Z M18.944,21.266 C18.236352,21.266 17.5913896,21.7451072 17.0975506,22.515922 L17.0101226,21.434 L16.014,21.434 L16.014,28.05 L17.2051097,28.05 L17.2844598,23.633674 C17.4771107,23.2039034 17.7080367,22.9005941 17.9499195,22.698078 C18.2345867,22.4597408 18.5337275,22.362 18.8,22.362 C19.0811862,22.362 19.2363292,22.389648 19.480433,22.491908 L19.5696736,21.371055 C19.3883232,21.293815 19.1978801,21.266 18.944,21.266 Z M2.45979797,7.93395744 L1.54056526,8.85319016 L4.65129545,11.9649939 L1.54055919,15.075736 L2.45979797,15.9949747 L6.49030663,11.9644661 L2.45979797,7.93395744 Z M22.832,8.266 C23.5824431,8.266 24.1316477,8.50205669 24.50614,8.91642234 C24.907526,9.36054502 25.1085518,10.0123239 25.1350041,10.8088523 L25.1350041,10.8088523 L25.1380358,15.05 L24.1437766,15.05 L24.0531055,14.3132979 C23.4020833,14.8114001 22.682562,15.206 21.896,15.206 C21.3211496,15.206 20.8216022,15.0232057 20.4709984,14.6836271 C20.1378738,14.3609781 19.938,13.8962235 19.938,13.308 C19.938,12.5873388 20.249277,12.0448345 20.9113574,11.6424323 C21.5639638,11.2457883 22.5626411,10.9861374 23.9457366,10.8273061 C23.9405621,10.3914158 23.8582342,9.96829551 23.6174779,9.67379898 C23.41849,9.43039414 23.110557,9.278 22.652,9.278 C21.9651037,9.278 21.3389578,9.57057614 20.8469747,9.8846813 L20.8469747,9.8846813 L20.1873659,9.15796389 C20.7916382,8.76439016 21.7480193,8.266 22.832,8.266 Z M23.946,11.6484693 C22.9250779,11.7748106 22.2261343,11.9616817 21.7751729,12.213852 C21.5422122,12.3441198 21.3765408,12.4914556 21.2683927,12.6573565 C21.1556288,12.8303381 21.106,13.0231637 21.106,13.236 C21.106,13.5687371 21.210256,13.8092542 21.3872222,13.9696298 C21.5879225,14.1515145 21.8792175,14.23 22.208,14.23 C22.7717904,14.23 23.2383523,13.9868107 23.946,13.3927233 L23.946,11.6484693 Z M32.434,5.398 L32.434,15.05 L31.4525393,15.05 L31.3517158,14.3330329 C30.8139146,14.8162788 30.1432043,15.206 29.384,15.206 C28.5413696,15.206 27.8497982,14.8822518 27.3718142,14.2762364 C26.9087089,13.6890851 26.646,12.8346576 26.646,11.748 C26.646,10.7188437 26.9590931,9.87579412 27.4507053,9.27749164 C27.9845412,8.62780199 28.7290477,8.266 29.516,8.266 C30.19392,8.266 30.6610127,8.48552291 31.1555691,8.86272565 L31.1555691,8.86272565 L31.242,7.956 L31.242,5.398 L32.434,5.398 Z M29.708,9.29 C29.187347,9.29 28.7243904,9.5432262 28.3943428,9.98048673 C28.0701452,10.409997 27.874,11.0161026 27.874,11.736 C27.874,12.5131473 28.0331845,13.1331638 28.3374171,13.5570613 C28.6339526,13.970234 29.0687934,14.194 29.624,14.194 C30.1545916,14.194 30.6260414,13.9509012 31.242,13.3235983 L31.242,9.94648946 C30.7083746,9.47576024 30.2315637,9.29 29.708,9.29 Z M18.944,8.266 C18.236352,8.266 17.5913896,8.74510723 17.0975506,9.51592198 L17.0101226,8.434 L16.014,8.434 L16.014,15.05 L17.2051097,15.05 L17.2844598,10.633674 C17.4771107,10.2039034 17.7080367,9.90059413 17.9499195,9.69807801 C18.2345867,9.45974078 18.5337275,9.362 18.8,9.362 C19.0811862,9.362 19.2363292,9.38964804 19.480433,9.49190797 L19.5696736,8.37105503 C19.3883232,8.29381498 19.1978801,8.266 18.944,8.266 Z" id="形状结合" stroke="#E0E0E0" stroke-width="0.1" fill="#E0E0E0" fill-rule="nonzero"></path>
                <g id="arrow/down/light" transform="translate(4.000000, 12.000000) rotate(-90.000000) translate(-4.000000, -12.000000) translate(0.000000, 9.500000)"></g>
            </g>
        </g>
    </g>
</svg>