<?xml version="1.0" encoding="UTF-8"?>
<svg width="34px" height="34px" viewBox="0 0 34 34" version="1.1" xmlns="http://www.w3.org/2000/svg" xmlns:xlink="http://www.w3.org/1999/xlink">
    <title>sin-1_press</title>
    <g id="科学计数模式" stroke="none" stroke-width="1" fill="none" fill-rule="evenodd">
        <g id="计算器-切图dark" transform="translate(-453.000000, -1073.000000)">
            <g id="sin-1_press" transform="translate(453.000000, 1073.000000)">
                <path d="M6.088,16.038 C5.15882883,16.038 4.4174296,16.2989113 3.89959803,16.7253609 C3.34555662,17.1816303 3.046,17.8277103 3.046,18.552 C3.046,19.1884996 3.29693633,19.6645127 3.68084303,20.0365704 C4.19867817,20.538423 4.96124326,20.8495329 5.67071473,21.1109172 C6.22102715,21.3218748 6.79386663,21.5427771 7.17775992,21.8616562 C7.44681975,22.0851494 7.622,22.3573726 7.622,22.712 C7.622,23.0906034 7.47469778,23.4315461 7.17448761,23.6700308 C6.89804325,23.8896361 6.49382545,24.022 5.96,24.022 C4.90981776,24.022 4.12443366,23.5914193 3.36661476,22.9693421 L2.78465192,24.1676989 C3.61368309,24.8005677 4.74145807,25.258 5.912,25.258 C6.90733437,25.258 7.68580456,24.9846046 8.22725448,24.5443348 C8.81975906,24.0625507 9.13,23.3805442 9.13,22.632 C9.13,21.9326903 8.88445998,21.4336468 8.50556818,21.0537075 C7.98736355,20.5340704 7.21589615,20.2391312 6.27891453,19.8841818 C5.75935926,19.6898277 5.26334605,19.5055554 4.93527915,19.2361609 C4.70086134,19.043667 4.554,18.80696 4.554,18.488 C4.554,18.1473026 4.68680259,17.8320857 4.96713711,17.6112161 C5.21994118,17.4120371 5.59084346,17.29 6.088,17.29 C6.88113005,17.29 7.49082152,17.6238384 8.10575236,18.0834416 L8.69281793,16.9280173 C8.01021004,16.4370442 7.10606596,16.038 6.088,16.038 Z M12.634,16.262 L11.078,16.262 L11.078,25.05 L12.634,25.05 L12.634,16.262 Z M19.816,16.038 C18.6522477,16.038 17.7622727,16.662132 16.895551,17.4555651 L16.7731341,16.262 L15.478,16.262 L15.478,25.05 L17.0325971,25.05 L17.2180129,18.535815 C17.9819849,17.7973674 18.5533628,17.418 19.368,17.418 C19.9249158,17.418 20.3252232,17.5817284 20.5845031,17.9467341 C20.8472585,18.3166325 20.966,18.8874162 20.966,19.688 L20.966,25.05 L22.522026,25.05 L22.5190255,19.2696209 C22.4904946,18.2024159 22.2569273,17.3907673 21.8044052,16.8480792 C21.3598295,16.3149207 20.7037811,16.038 19.816,16.038 Z M11.864,12.582 C11.5551995,12.582 11.2865855,12.6797361 11.0974137,12.856897 C10.9156454,13.0271245 10.806,13.2710635 10.806,13.576 C10.806,13.8621945 10.919671,14.1104186 11.108684,14.2874307 C11.2972936,14.4640652 11.5615049,14.57 11.864,14.57 C12.1664951,14.57 12.4307064,14.4640652 12.619316,14.2874307 C12.808329,14.1104186 12.922,13.8621945 12.922,13.576 C12.922,13.2710635 12.8123546,13.0271245 12.6305863,12.856897 C12.4414145,12.6797361 12.1728005,12.582 11.864,12.582 Z M30.44,6.61487241 L29.522119,6.70462516 C29.1484558,6.89763927 28.7077239,7.04289899 28.12,7.14827643 L28.12,7.82 L29.42,7.82 L29.42,13.19 L27.79,13.19 L27.79,14.05 L31.91,14.05 L31.91,13.19 L30.44,13.19 L30.44,6.61487241 Z M26.56,10.8 L23.9,10.8 L23.9,11.6 L26.56,11.6 L26.56,10.8 Z" id="形状结合" stroke="#0081FF" stroke-width="0.01" fill="#0081FF" fill-rule="nonzero"></path>
                <rect id="矩形" x="0" y="0" width="34" height="34"></rect>
            </g>
        </g>
    </g>
</svg>
