<?xml version="1.0" encoding="UTF-8"?>
<svg width="34px" height="34px" viewBox="0 0 34 34" version="1.1" xmlns="http://www.w3.org/2000/svg" xmlns:xlink="http://www.w3.org/1999/xlink">
    <title>sin-1_hover</title>
    <g id="科学计数模式" stroke="none" stroke-width="1" fill="none" fill-rule="evenodd">
        <g id="计算器-切图dark" transform="translate(-273.000000, -1073.000000)">
            <g id="sin-1_hover" transform="translate(273.000000, 1073.000000)">
                <path d="M5.63556652,15.9499315 C4.64984079,15.9499315 3.86327202,16.2266425 3.31390874,16.6790593 C2.72635687,17.1629255 2.40869297,17.8480863 2.40869297,18.6161803 C2.40869297,19.2910604 2.6747688,19.7957718 3.08182311,20.1902627 C3.63136564,20.722844 4.44066394,21.0529273 5.19356553,21.3303121 C5.77825268,21.5544468 6.38679491,21.78919 6.79463598,22.1279612 C7.08107279,22.3658886 7.26744075,22.6557319 7.26744075,23.0332237 C7.26744075,23.4361886 7.1106271,23.7990469 6.79110911,24.0528696 C6.49714603,24.2863917 6.06734451,24.4272572 5.49965749,24.4272572 C4.38550286,24.4272572 3.55181044,23.9712232 2.74772429,23.3118541 L2.1182913,24.5674643 C2.99912414,25.2436865 4.20100912,25.7334498 5.4486916,25.7334498 C6.50466344,25.7334498 7.33060499,25.4434833 7.90505489,24.9763801 C8.53342723,24.4654309 8.86244006,23.7421358 8.86244006,22.9482806 C8.86244006,22.2067399 8.60210645,21.6775384 8.20032691,21.2746481 C7.650367,20.7231679 6.83156324,20.410259 5.83718306,20.0335657 C5.28517862,19.8270732 4.758218,19.6312242 4.40965925,19.3450026 C4.16000882,19.1400003 4.00369229,18.8878838 4.00369229,18.5482258 C4.00369229,18.1855235 4.14510223,17.8499676 4.44353432,17.6148393 C4.71239021,17.4030134 5.10681024,17.2731128 5.63556652,17.2731128 C6.47714127,17.2731128 7.12441087,17.6267076 7.77690276,18.1139981 L8.39738,16.892815 C7.67331927,16.3725543 6.7147723,15.9499315 5.63556652,15.9499315 Z M12.5829497,16.1877723 L10.9369845,16.1877723 L10.9369845,25.5125976 L12.5829497,25.5125976 L12.5829497,16.1877723 Z M20.2118098,15.9499315 C18.9749007,15.9499315 18.0295458,16.6145571 17.1084621,17.4584267 L16.9781386,16.1877723 L15.6088574,16.1877723 L15.6088574,25.5125976 L17.2535078,25.5125976 L17.4374625,18.610019 C18.2562523,17.8164958 18.865532,17.4090218 19.7361282,17.4090218 C20.3286908,17.4090218 20.7544794,17.5834115 21.0303169,17.9717263 C21.3095778,18.3648606 21.435957,18.9714485 21.435957,19.8223729 L21.435957,25.5125976 L23.0819481,25.5125976 L23.0787639,19.378144 C23.0484948,18.2459592 22.8008323,17.3847484 22.3207044,16.808954 C21.8491892,16.2434883 21.153335,15.9499315 20.2118098,15.9499315 Z M11.7684614,12.2803877 C11.4414529,12.2803877 11.1569596,12.3838165 10.9566201,12.571436 C10.7641905,12.7516478 10.6481778,13.009915 10.6481778,13.3327168 C10.6481778,13.6356826 10.768494,13.8984629 10.9685868,14.0858513 C11.1683232,14.2729061 11.4481335,14.3850459 11.7684614,14.3850459 C12.0887894,14.3850459 12.3685997,14.2729061 12.5683361,14.0858513 C12.7684289,13.8984629 12.888745,13.6356826 12.888745,13.3327168 C12.888745,13.009915 12.7727324,12.7516478 12.5803028,12.571436 C12.3799633,12.3838165 12.09547,12.2803877 11.7684614,12.2803877 Z M31.4891697,5.94487241 L30.5185538,6.03978172 C30.1222204,6.24442865 29.6548572,6.3985452 29.0319975,6.5104132 L29.0319975,7.21796821 L30.4123236,7.21796821 L30.4123236,12.9259556 L28.6816071,12.9259556 L28.6816071,13.8329155 L33.05,13.8329155 L33.05,12.9259556 L31.4891697,12.9259556 L31.4891697,5.94487241 Z M27.3694273,10.3882792 L24.5512467,10.3882792 L24.5512467,11.2315317 L27.3694273,11.2315317 L27.3694273,10.3882792 Z" id="形状结合" stroke="#FFFFFF" stroke-width="0.01" fill="#FFFFFF" fill-rule="nonzero"></path>
                <rect id="矩形" x="0" y="0" width="34" height="34"></rect>
            </g>
        </g>
    </g>
</svg>
