<?xml version="1.0" encoding="UTF-8"?>
<svg width="30px" height="30px" viewBox="0 0 30 30" version="1.1" xmlns="http://www.w3.org/2000/svg" xmlns:xlink="http://www.w3.org/1999/xlink">
    <title>square root_hover</title>
    <g id="科学计数模式" stroke="none" stroke-width="1" fill="none" fill-rule="evenodd">
        <g id="计算器-切图dark" transform="translate(-303.000000, -703.000000)">
            <g id="square-root_hover" transform="translate(303.000000, 703.000000)">
                <path d="M24.2727273,6.81090909 L24.2727273,7.59636364 L16.2218182,7.59636364 L9.89890909,25.76 L9.30981818,25.76 L7.20872727,20.2421818 L5.83418182,22.2058182 L5.32363636,21.8327273 L7.97454545,18.1018182 L9.93818182,23.2465455 L15.6523636,6.81090909 L24.2727273,6.81090909 Z M19.0712727,13.4872727 L20.5636364,15.9025455 C20.8974545,16.4916364 21.2705455,17.0807273 21.6436364,17.6698182 L21.6436364,17.6698182 L21.7221818,17.6698182 L22.704,15.9025455 L24.0981818,13.4872727 L25.7476364,13.4872727 L22.5272727,18.7105455 L26.0225455,24.0909091 L24.2749091,24.0909091 L22.6450909,21.5185455 C22.272,20.8705455 21.8792727,20.2225455 21.4865455,19.5941818 L21.4865455,19.5941818 L21.3883636,19.5941818 C20.9956364,20.2225455 20.6421818,20.8705455 20.2690909,21.5185455 L20.2690909,21.5185455 L18.7570909,24.0909091 L17.0683636,24.0909091 L20.5832727,18.5534545 L17.3432727,13.4872727 L19.0712727,13.4872727 Z M7.10563636,4.24181818 C8.66563636,4.24181818 9.62563636,5.24981818 9.62563636,6.80981818 C9.62563636,8.58581818 8.23363636,10.3978182 6.08563636,12.4138182 C6.55363636,12.3658182 7.08163636,12.3418182 7.52563636,12.3418182 L7.52563636,12.3418182 L10.0456364,12.3418182 L10.0456364,13.1818182 L4.60963636,13.1818182 L4.60963636,12.5938182 C7.41763636,10.1458182 8.66563636,8.36981818 8.66563636,6.84581818 C8.66563636,5.81381818 8.12563636,5.03381818 6.99763636,5.03381818 C6.26563636,5.03381818 5.62963636,5.48981818 5.12563636,6.07781818 L5.12563636,6.07781818 L4.54963636,5.52581818 C5.25763636,4.75781818 6.01363636,4.24181818 7.10563636,4.24181818 Z" id="形状结合" fill="#FFFFFF" fill-rule="nonzero"></path>
                <rect id="矩形" x="0" y="0" width="30" height="30"></rect>
            </g>
        </g>
    </g>
</svg>