<?xml version="1.0" encoding="UTF-8"?>
<svg width="30px" height="30px" viewBox="0 0 30 30" version="1.1" xmlns="http://www.w3.org/2000/svg" xmlns:xlink="http://www.w3.org/1999/xlink">
    <title>square root_normal</title>
    <g id="科学计数模式" stroke="none" stroke-width="1" fill="none" fill-rule="evenodd">
        <g id="计算器-切图dark" transform="translate(-460.000000, -722.000000)">
            <g id="square-root_normal备份" transform="translate(460.000000, 722.000000)">
                <path d="M22.55,7.11 L14.5444636,7.11 L9.35789676,22.0079661 L7.59141511,17.3687213 L5.04268198,20.9592724 L5.59150443,21.3603349 L6.82693926,19.6130771 L8.74969524,24.598 L9.35957378,24.598 L15.1375738,7.948 L22.55,7.948 L22.55,7.11 Z M17.8321086,13.176 L15.9490506,13.176 L18.9508096,17.9060445 L15.6972123,23.05 L17.5449313,23.05 L18.873349,20.7389171 L19.2107875,20.1460665 C19.4216195,19.7736391 19.6297941,19.4059682 20.1552176,19.4194734 C20.4228124,19.8486376 20.6855668,20.2932888 20.9281052,20.7379426 L22.3844017,23.05 L24.3043882,23.05 L21.0491735,18.0671573 L24.0493257,13.176 L22.2206511,13.176 L21.0003437,15.3616252 L20.7112383,15.9024282 C20.5296519,16.2405545 20.3457841,16.5788432 20.0944814,16.9170653 L19.4767344,15.9000428 C19.3690893,15.720633 19.2632984,15.5409916 19.1615011,15.3613494 L17.8321086,13.176 Z M7.7635,4.733 C6.70449704,4.733 5.99277105,5.23044828 5.31036812,5.98118499 L6.09203729,6.4785575 C6.50976592,6.01022017 7.03757856,5.658 7.6425,5.658 C8.10736468,5.658 8.45778275,5.80630154 8.69545395,6.06157802 C8.95293858,6.33813558 9.0775,6.73806594 9.0775,7.203 C9.0775,8.58371496 7.90499414,10.1805704 5.3815,12.3832842 L5.3815,13.05 L10.5525,13.05 L10.5525,12.080855 L7.95018333,12.0883908 C7.70043029,12.0988768 7.43743194,12.1188792 7.08660524,12.1468693 C8.93473649,10.3788888 10.1565,8.75702542 10.1565,7.17 C10.1565,6.43112605 9.92281857,5.82056995 9.50538648,5.39529876 C9.09150284,4.97364266 8.49609103,4.733 7.7635,4.733 Z" id="形状结合" stroke="#0081FF" stroke-width="0.1" fill="#0081FF" fill-rule="nonzero"></path>
                <rect id="矩形" x="0" y="0" width="30" height="30"></rect>
            </g>
        </g>
    </g>
</svg>