<?xml version="1.0" encoding="UTF-8"?>
<svg width="30px" height="30px" viewBox="0 0 30 30" version="1.1" xmlns="http://www.w3.org/2000/svg" xmlns:xlink="http://www.w3.org/1999/xlink">
    <title>y root_normal</title>
    <g id="科学计数模式" stroke="none" stroke-width="1" fill="none" fill-rule="evenodd">
        <g id="计算器-切图dark" transform="translate(-460.000000, -849.000000)">
            <g id="y-root_normal备份" transform="translate(460.000000, 849.000000)">
                <path d="M22.55,7.11 L14.5444636,7.11 L9.35789676,22.0079661 L7.59141511,17.3687213 L5.04268198,20.9592724 L5.59150443,21.3603349 L6.82693926,19.6130771 L8.74969524,24.598 L9.35957378,24.598 L15.1375738,7.948 L22.55,7.948 L22.55,7.11 Z M17.8321086,13.176 L15.9490506,13.176 L18.9508096,17.9060445 L15.6972123,23.05 L17.5449313,23.05 L18.873349,20.7389171 L19.2107875,20.1460665 C19.4216195,19.7736391 19.6297941,19.4059682 20.1552176,19.4194734 C20.4228124,19.8486376 20.6855668,20.2932888 20.9281052,20.7379426 L22.3844017,23.05 L24.3043882,23.05 L21.0491735,18.0671573 L24.0493257,13.176 L22.2206511,13.176 L21.0003437,15.3616252 L20.7112383,15.9024282 C20.5296519,16.2405545 20.3457841,16.5788432 20.0944814,16.9170653 L19.4767344,15.9000428 C19.3690893,15.720633 19.2632984,15.5409916 19.1615011,15.3613494 L17.8321086,13.176 Z M6.35739304,4.977 L5.20791022,4.977 L7.43949318,11.6057991 C7.30853295,11.9484411 7.13128289,12.2403452 6.82932761,12.4200282 C6.56326344,12.5783537 6.20161835,12.6487402 5.69447616,12.5953383 L5.60549282,13.5303449 C5.78171882,13.5901667 5.99260799,13.624 6.2455,13.624 C6.80388307,13.624 7.23900927,13.4296094 7.58795461,13.103121 C7.99556059,12.7217471 8.28507246,12.158082 8.51461691,11.5117331 L10.7928836,4.977 L9.70704379,4.977 L8.62889529,8.33370975 L8.45846887,8.89059316 C8.39884437,9.08836717 8.33811408,9.28856677 7.99809705,9.52694141 C7.88589059,9.20005282 7.76769414,8.85266368 7.59083482,8.33289364 L6.35739304,4.977 Z" id="形状结合" stroke="#0081FF" stroke-width="0.1" fill="#0081FF" fill-rule="nonzero"></path>
                <rect id="矩形" x="0" y="0" width="30" height="30"></rect>
            </g>
        </g>
    </g>
</svg>