<?xml version="1.0" encoding="UTF-8"?>
<svg width="30px" height="30px" viewBox="0 0 30 30" version="1.1" xmlns="http://www.w3.org/2000/svg" xmlns:xlink="http://www.w3.org/1999/xlink">
    <title>y root_hover</title>
    <g id="科学计数模式" stroke="none" stroke-width="1" fill="none" fill-rule="evenodd">
        <g id="计算器-切图dark" transform="translate(-287.000000, -849.000000)">
            <g id="y-root_hover" transform="translate(287.000000, 849.000000)">
                <path d="M23.2573298,7.25890052 L14.8785997,7.25890052 L9.4460643,22.8633901 L7.59561407,18.0036219 L4.93068198,21.7578692 L5.50155678,22.175047 L6.79636335,20.3438206 L8.81072142,25.5662304 L9.44604498,25.5662304 L15.4963068,8.13167539 L23.2573298,8.13167539 L23.2573298,7.25890052 Z M18.318161,13.610733 L16.3519826,13.610733 L19.4936892,18.561301 L16.0882699,23.945288 L18.017413,23.945288 L19.4077469,21.5264878 L19.7610807,20.9057105 C19.9824084,20.5147428 20.200952,20.1287823 20.7540498,20.1447832 C21.0342875,20.594224 21.3094464,21.0598673 21.5634351,21.5255133 L23.087585,23.945288 L25.0923882,23.945288 L21.6853515,18.7300474 L24.8254514,13.610733 L22.9162009,13.610733 L21.6390662,15.8981383 L21.3363587,16.4643863 C21.1456583,16.8194834 20.9525517,17.1747438 20.688265,17.5299366 L20.3830485,17.027446 C20.1529004,16.6508397 19.9228146,16.2743535 19.7094697,15.8978625 L18.318161,13.610733 Z M6.3024323,3.95 L5.10370865,3.95 L7.43966851,10.8888452 C7.30230353,11.248506 7.11632001,11.5548594 6.79945361,11.7434155 C6.5209266,11.9091572 6.14250948,11.9830749 5.61204272,11.9275531 L5.51926849,12.902393 C5.70323353,12.9645902 5.92324827,12.9997382 6.18691099,12.9997382 C6.77093262,12.9997382 7.22604356,12.796432 7.59101295,12.4549508 C8.01758169,12.0558345 8.32050966,11.4659164 8.56072947,10.789508 L10.9452527,3.95 L9.81328201,3.95 L8.68485603,7.46324378 L8.50640877,8.04633673 C8.44371233,8.25430043 8.37986267,8.46484097 8.0208747,8.71570862 C7.90307486,8.37252809 7.77913084,8.00824625 7.59340812,7.46242767 L6.3024323,3.95 Z" id="形状结合" stroke="#FFFFFF" stroke-width="0.1" fill="#FFFFFF" fill-rule="nonzero"></path>
                <rect id="矩形" x="0" y="0" width="30" height="30"></rect>
            </g>
        </g>
    </g>
</svg>