<?xml version="1.0" encoding="UTF-8"?>
<svg width="30px" height="30px" viewBox="0 0 30 30" version="1.1" xmlns="http://www.w3.org/2000/svg" xmlns:xlink="http://www.w3.org/1999/xlink">
    <!-- Generator: Sketch 58 (84663) - https://sketch.com -->
    <title>clear_hover</title>
    <desc>Created with Sketch.</desc>
    <g id="计算器" stroke="none" stroke-width="1" fill="none" fill-rule="evenodd">
        <g id="计算器dark" transform="translate(-352.000000, -990.000000)">
            <g id="clear_hover" transform="translate(352.000000, 990.000000)">
                <g transform="translate(4.000000, 6.000000)">
                    <path d="M4.51735033,0.666666667 L0.600683661,8.5 L4.51735033,16.3333333 L22.4583333,16.3333333 L22.4583333,0.666666667 L4.51735033,0.666666667 Z" id="Rectangle" stroke="#E0E0E0"></path>
                    <polygon id="Combined-Shape" fill="#E0E0E0" fill-rule="nonzero" points="10.2164239 12.0673138 9.84813913 12.4355985 9.11156956 11.699029 9.47985435 11.3307442 12.0578478 8.75275072 9.47985435 6.17475724 9.11156956 5.80647246 9.84813913 5.0699029 10.2164239 5.43818768 12.7944174 8.01618115 15.3724109 5.43818768 15.7406956 5.0699029 16.4772652 5.80647246 16.1089804 6.17475724 13.5309869 8.75275072 16.1089804 11.3307442 16.4772652 11.699029 15.7406956 12.4355985 15.3724109 12.0673138 12.7944174 9.48932028"></polygon>
                </g>
            </g>
        </g>
    </g>
</svg>