<?xml version="1.0" encoding="UTF-8"?>
<svg width="30px" height="30px" viewBox="0 0 30 30" version="1.1" xmlns="http://www.w3.org/2000/svg" xmlns:xlink="http://www.w3.org/1999/xlink">
    <!-- Generator: Sketch 58 (84663) - https://sketch.com -->
    <title>clear_press</title>
    <desc>Created with Sketch.</desc>
    <g id="计算器" stroke="none" stroke-width="1" fill="none" fill-rule="evenodd">
        <g id="计算器dark" transform="translate(-352.000000, -914.000000)">
            <g id="clear_press" transform="translate(352.000000, 914.000000)">
                <g id="clear_normal" transform="translate(4.000000, 7.000000)">
                    <path d="M4.30901699,0.5 L0.559016994,8 L4.30901699,15.5 L21.5,15.5 L21.5,0.5 L4.30901699,0.5 Z" id="Rectangle" stroke="#0C2E7A"></path>
                    <polygon id="Combined-Shape" fill="#0C2E7A" fill-rule="nonzero" points="9.76776695 11.4246212 9.41421356 11.7781746 8.70710678 11.0710678 9.06066017 10.7175144 11.5355339 8.24264069 9.06066017 5.76776695 8.70710678 5.41421356 9.41421356 4.70710678 9.76776695 5.06066017 12.2426407 7.53553391 14.7175144 5.06066017 15.0710678 4.70710678 15.7781746 5.41421356 15.4246212 5.76776695 12.9497475 8.24264069 15.4246212 10.7175144 15.7781746 11.0710678 15.0710678 11.7781746 14.7175144 11.4246212 12.2426407 8.94974747"></polygon>
                </g>
                <rect id="矩形" x="0" y="0" width="30" height="30"></rect>
            </g>
        </g>
    </g>
</svg>