<?xml version="1.0" encoding="UTF-8"?>
<svg width="23px" height="24px" viewBox="0 0 23 24" version="1.1" xmlns="http://www.w3.org/2000/svg" xmlns:xlink="http://www.w3.org/1999/xlink">
    <title>编组 11</title>
    <g id="科学计数模式" stroke="none" stroke-width="1" fill="none" fill-rule="evenodd">
        <g id="首页-切换" transform="translate(-168.000000, -303.000000)" fill="#0081FF">
            <g id="Calculator" transform="translate(62.000000, 101.000000)">
                <g id="Text" transform="translate(27.000000, -4.000000)">
                    <g id="编组-2备份" transform="translate(79.000000, 206.000000)">
                        <g id="编组-11">
                            <text id="2" font-family="SourceHanSansSC-Normal, Source Han Sans SC" font-size="16" font-weight="normal">
                                <tspan x="0.108" y="19">2</tspan>
                            </text>
                            <path d="M10.792,11 L10.792,6.26 C11.464,5.564 11.956,5.204 12.64,5.204 C13.54,5.204 13.924,5.756 13.924,7.004 L13.924,11 L14.908,11 L14.908,6.884 C14.908,5.228 14.284,4.352 12.928,4.352 C12.04,4.352 11.368,4.856 10.744,5.468 L10.708,5.468 L10.612,4.52 L9.82,4.52 L9.82,11 L10.792,11 Z M19.264,11.156 C20.056,11.156 20.752,10.736 21.268,10.22 L21.292,10.22 L21.388,11 L22.192,11 L22.192,1.448 L21.22,1.448 L21.22,3.992 L21.268,5.12 C20.68,4.64 20.176,4.352 19.408,4.352 C17.92,4.352 16.588,5.672 16.588,7.772 C16.588,9.932 17.632,11.156 19.264,11.156 Z M19.468,10.328 C18.28,10.328 17.608,9.356 17.608,7.76 C17.608,6.248 18.46,5.18 19.564,5.18 C20.128,5.18 20.632,5.384 21.22,5.9 L21.22,9.404 C20.644,10.016 20.092,10.328 19.468,10.328 Z" id="nd" fill-rule="nonzero"></path>
                        </g>
                    </g>
                </g>
            </g>
        </g>
    </g>
</svg>