<?xml version="1.0" encoding="UTF-8"?>
<svg width="34px" height="34px" viewBox="0 0 34 34" version="1.1" xmlns="http://www.w3.org/2000/svg" xmlns:xlink="http://www.w3.org/1999/xlink">
    <title>icon_as_normal</title>
    <g id="程序员" stroke="none" stroke-width="1" fill="none" fill-rule="evenodd">
        <g id="切图" transform="translate(-97.000000, -205.000000)">
            <g id="icon_as_normal" transform="translate(97.000000, 205.000000)">
                <g id="箭头" transform="translate(9.000000, 11.000000)" fill="#000000">
                    <path d="M5.8027267,1.4127061 C5.62544784,1.23534038 5.35018172,1.21563308 5.15102693,1.35361654 L5.08025164,1.41275216 L0.408108645,6.08474956 C0.310947659,6.1820059 0.258550083,6.31124127 0.258550083,6.4460213 C0.258550083,6.55391637 0.292029364,6.65809403 0.355165847,6.74524285 L0.408019215,6.80720357 L5.0802544,11.4792932 C5.27983413,11.6788729 5.60328798,11.6788729 5.80276999,11.4792932 C5.98005123,11.302012 5.99974915,11.0266042 5.86186374,10.827517 L5.80276999,10.7567776 L1.49201369,6.4460213 L5.8027267,2.1353083 C5.98005284,1.95789528 5.99975574,1.68256148 5.86186582,1.48348734 L5.8027267,1.4127061 Z M10.5391477,1.4127061 C10.3618689,1.23534038 10.0866028,1.21563308 9.88744798,1.35361654 L9.81667269,1.41275216 L5.1445296,6.08474965 C5.0472825,6.18209209 4.99497113,6.31115246 4.99497113,6.4460213 C4.99497113,6.55384532 5.02850557,6.65812077 5.09161999,6.74526742 L5.14444026,6.80720357 L9.81667544,11.4792932 C10.0162552,11.6788729 10.339709,11.6788729 10.539191,11.4792932 C10.7164723,11.302012 10.7361702,11.0266042 10.5982848,10.827517 L10.539191,10.7567776 L6.22843473,6.4460213 L10.5391477,2.1353083 C10.7386396,1.93571865 10.7386396,1.61219802 10.5391477,1.4127061 Z" id="形状" fill-rule="nonzero"></path>
                    <rect id="矩形" x="14" y="0" width="1" height="13"></rect>
                </g>
                <rect id="矩形" x="0" y="0" width="34" height="34"></rect>
            </g>
        </g>
    </g>
</svg>