<?xml version="1.0" encoding="UTF-8"?>
<svg width="25px" height="25px" viewBox="0 0 25 25" version="1.1" xmlns="http://www.w3.org/2000/svg" xmlns:xlink="http://www.w3.org/1999/xlink">
    <title>apps/128/deepin-calculator</title>
    <defs>
        <filter x="-10.1%" y="-5.2%" width="120.1%" height="123.5%" filterUnits="objectBoundingBox" id="filter-1">
            <feOffset dx="0" dy="1" in="SourceAlpha" result="shadowOffsetOuter1"></feOffset>
            <feGaussianBlur stdDeviation="0.5" in="shadowOffsetOuter1" result="shadowBlurOuter1"></feGaussianBlur>
            <feColorMatrix values="0 0 0 0 0   0 0 0 0 0   0 0 0 0 0  0 0 0 0.20036604 0" type="matrix" in="shadowBlurOuter1" result="shadowMatrixOuter1"></feColorMatrix>
            <feMerge>
                <feMergeNode in="shadowMatrixOuter1"></feMergeNode>
                <feMergeNode in="SourceGraphic"></feMergeNode>
            </feMerge>
        </filter>
        <linearGradient x1="50%" y1="2.37536127%" x2="50%" y2="94.5953062%" id="linearGradient-2">
            <stop stop-color="#E9E9E9" offset="0%"></stop>
            <stop stop-color="#CAD7E9" offset="100%"></stop>
        </linearGradient>
        <path d="M3.84702942,0 L16.0279706,2.26708535e-16 C17.3656665,-1.31724187e-16 17.8507474,0.139281921 18.339789,0.400824253 C18.8288307,0.662366585 19.2126334,1.04616933 19.4741757,1.53521097 C19.7357181,2.02425261 19.875,2.50933348 19.875,3.84702942 L19.875,15.2779706 C19.875,16.6156665 19.7357181,17.1007474 19.4741757,17.589789 C19.2126334,18.0788307 18.8288307,18.4626334 18.339789,18.7241757 C17.8507474,18.9857181 17.3656665,19.125 16.0279706,19.125 L3.84702942,19.125 C2.50933348,19.125 2.02425261,18.9857181 1.53521097,18.7241757 C1.04616933,18.4626334 0.662366585,18.0788307 0.400824253,17.589789 C0.139281921,17.1007474 -4.4408921e-16,16.6156665 -4.4408921e-16,15.2779706 L0,3.84702942 C0,2.50933348 0.139281921,2.02425261 0.400824253,1.53521097 C0.662366585,1.04616933 1.04616933,0.662366585 1.53521097,0.400824253 C2.02425261,0.139281921 2.50933348,0 3.84702942,0 Z" id="path-3"></path>
        <filter x="-7.5%" y="-7.8%" width="115.1%" height="115.7%" filterUnits="objectBoundingBox" id="filter-4">
            <feGaussianBlur stdDeviation="1" in="SourceAlpha" result="shadowBlurInner1"></feGaussianBlur>
            <feOffset dx="0" dy="-1" in="shadowBlurInner1" result="shadowOffsetInner1"></feOffset>
            <feComposite in="shadowOffsetInner1" in2="SourceAlpha" operator="arithmetic" k2="-1" k3="1" result="shadowInnerInner1"></feComposite>
            <feColorMatrix values="0 0 0 0 0   0 0 0 0 0.108032992   0 0 0 0 0.378311821  0 0 0 0.2 0" type="matrix" in="shadowInnerInner1"></feColorMatrix>
        </filter>
        <linearGradient x1="40.7675756%" y1="0%" x2="40.7675756%" y2="100%" id="linearGradient-5">
            <stop stop-color="#FFFFFF" stop-opacity="0.2" offset="0%"></stop>
            <stop stop-color="#000000" stop-opacity="0.2" offset="100%"></stop>
        </linearGradient>
        <linearGradient x1="50%" y1="2.79169295%" x2="50%" y2="98.7615748%" id="linearGradient-6">
            <stop stop-color="#1762FC" offset="0%"></stop>
            <stop stop-color="#132CE7" offset="100%"></stop>
        </linearGradient>
        <path d="M12.6110147,1.5 L16.6389853,1.5 C17.3078333,1.5 17.5503737,1.56964096 17.7948945,1.70041213 C18.0394153,1.83118329 18.2313167,2.02308466 18.3620879,2.26760548 C18.492859,2.5121263 18.5625,2.75466674 18.5625,3.42351471 L18.5625,15.7014853 C18.5625,16.3703333 18.492859,16.6128737 18.3620879,16.8573945 C18.2313167,17.1019153 18.0394153,17.2938167 17.7948945,17.4245879 C17.5503737,17.555359 17.3078333,17.625 16.6389853,17.625 L12.6110147,17.625 C11.9421667,17.625 11.6996263,17.555359 11.4551055,17.4245879 C11.2105847,17.2938167 11.0186833,17.1019153 10.8879121,16.8573945 C10.757141,16.6128737 10.6875,16.3703333 10.6875,15.7014853 L10.6875,3.42351471 C10.6875,2.75466674 10.757141,2.5121263 10.8879121,2.26760548 C11.0186833,2.02308466 11.2105847,1.83118329 11.4551055,1.70041213 C11.6996263,1.56964096 11.9421667,1.5 12.6110147,1.5 Z" id="path-7"></path>
        <filter x="-25.4%" y="-6.2%" width="150.8%" height="124.8%" filterUnits="objectBoundingBox" id="filter-8">
            <feOffset dx="0" dy="1" in="SourceAlpha" result="shadowOffsetOuter1"></feOffset>
            <feGaussianBlur stdDeviation="0.5" in="shadowOffsetOuter1" result="shadowBlurOuter1"></feGaussianBlur>
            <feColorMatrix values="0 0 0 0 0   0 0 0 0 0   0 0 0 0 0  0 0 0 0.2 0" type="matrix" in="shadowBlurOuter1"></feColorMatrix>
        </filter>
        <filter x="-31.7%" y="-9.3%" width="163.5%" height="131.0%" filterUnits="objectBoundingBox" id="filter-9">
            <feGaussianBlur stdDeviation="1" in="SourceAlpha" result="shadowBlurInner1"></feGaussianBlur>
            <feOffset dx="0" dy="-1" in="shadowBlurInner1" result="shadowOffsetInner1"></feOffset>
            <feComposite in="shadowOffsetInner1" in2="SourceAlpha" operator="arithmetic" k2="-1" k3="1" result="shadowInnerInner1"></feComposite>
            <feColorMatrix values="0 0 0 0 0   0 0 0 0 0.108032992   0 0 0 0 0.378311821  0 0 0 0.2 0" type="matrix" in="shadowInnerInner1"></feColorMatrix>
        </filter>
        <linearGradient x1="40.7675756%" y1="0%" x2="40.7675756%" y2="100%" id="linearGradient-10">
            <stop stop-color="#FFFFFF" stop-opacity="0.2" offset="0%"></stop>
            <stop stop-color="#000000" stop-opacity="0.2" offset="100%"></stop>
        </linearGradient>
        <linearGradient x1="50%" y1="2.37536127%" x2="50%" y2="94.5953062%" id="linearGradient-11">
            <stop stop-color="#F9F9F9" offset="0%"></stop>
            <stop stop-color="#E7F0F5" offset="100%"></stop>
        </linearGradient>
        <path d="M3.42351471,1.5 L7.63898529,1.5 C8.30783326,1.5 8.5503737,1.56964096 8.79489452,1.70041213 C9.03941534,1.83118329 9.23131671,2.02308466 9.36208787,2.26760548 C9.49285904,2.5121263 9.5625,2.75466674 9.5625,3.42351471 L9.5625,7.26398529 C9.5625,7.93283326 9.49285904,8.1753737 9.36208787,8.41989452 C9.23131671,8.66441534 9.03941534,8.85631671 8.79489452,8.98708787 C8.5503737,9.11785904 8.30783326,9.1875 7.63898529,9.1875 L3.42351471,9.1875 C2.75466674,9.1875 2.5121263,9.11785904 2.26760548,8.98708787 C2.02308466,8.85631671 1.83118329,8.66441534 1.70041213,8.41989452 C1.56964096,8.1753737 1.5,7.93283326 1.5,7.26398529 L1.5,3.42351471 C1.5,2.75466674 1.56964096,2.5121263 1.70041213,2.26760548 C1.83118329,2.02308466 2.02308466,1.83118329 2.26760548,1.70041213 C2.5121263,1.56964096 2.75466674,1.5 3.42351471,1.5 Z" id="path-12"></path>
        <filter x="-24.8%" y="-13.0%" width="149.6%" height="152.0%" filterUnits="objectBoundingBox" id="filter-13">
            <feOffset dx="0" dy="1" in="SourceAlpha" result="shadowOffsetOuter1"></feOffset>
            <feGaussianBlur stdDeviation="0.5" in="shadowOffsetOuter1" result="shadowBlurOuter1"></feGaussianBlur>
            <feColorMatrix values="0 0 0 0 0   0 0 0 0 0   0 0 0 0 0  0 0 0 0.1 0" type="matrix" in="shadowBlurOuter1"></feColorMatrix>
        </filter>
        <path d="M3.42351471,9.9375 L7.63898529,9.9375 C8.30783326,9.9375 8.5503737,10.007141 8.79489452,10.1379121 C9.03941534,10.2686833 9.23131671,10.4605847 9.36208787,10.7051055 C9.49285904,10.9496263 9.5625,11.1921667 9.5625,11.8610147 L9.5625,15.7014853 C9.5625,16.3703333 9.49285904,16.6128737 9.36208787,16.8573945 C9.23131671,17.1019153 9.03941534,17.2938167 8.79489452,17.4245879 C8.5503737,17.555359 8.30783326,17.625 7.63898529,17.625 L3.42351471,17.625 C2.75466674,17.625 2.5121263,17.555359 2.26760548,17.4245879 C2.02308466,17.2938167 1.83118329,17.1019153 1.70041213,16.8573945 C1.56964096,16.6128737 1.5,16.3703333 1.5,15.7014853 L1.5,11.8610147 C1.5,11.1921667 1.56964096,10.9496263 1.70041213,10.7051055 C1.83118329,10.4605847 2.02308466,10.2686833 2.26760548,10.1379121 C2.5121263,10.007141 2.75466674,9.9375 3.42351471,9.9375 Z" id="path-14"></path>
        <filter x="-24.8%" y="-13.0%" width="149.6%" height="152.0%" filterUnits="objectBoundingBox" id="filter-15">
            <feOffset dx="0" dy="1" in="SourceAlpha" result="shadowOffsetOuter1"></feOffset>
            <feGaussianBlur stdDeviation="0.5" in="shadowOffsetOuter1" result="shadowBlurOuter1"></feGaussianBlur>
            <feColorMatrix values="0 0 0 0 0   0 0 0 0 0   0 0 0 0 0  0 0 0 0.1 0" type="matrix" in="shadowBlurOuter1"></feColorMatrix>
        </filter>
    </defs>
    <g id="apps/128/deepin-calculator" stroke="none" fill="none" transform="translate(0.25, 0)">
        <g id="编组" filter="url(#filter-1)" stroke-width="1" fill-rule="evenodd" transform="translate(2.0625, 2.4375)">
            <g id="Rectangle-245">
                <use fill="url(#linearGradient-2)" fill-rule="evenodd" xlink:href="#path-3"></use>
                <use fill="black" fill-opacity="1" filter="url(#filter-4)" xlink:href="#path-3"></use>
            </g>
            <path d="M16.0279706,0 C17.3656665,0 17.8507474,0.139281921 18.339789,0.400824253 C18.8288307,0.662366585 19.2126334,1.04616933 19.4741757,1.53521097 C19.7357181,2.02425261 19.875,2.50933348 19.875,3.84702942 L19.875,15.2779706 C19.875,16.6156665 19.7357181,17.1007474 19.4741757,17.589789 C19.2126334,18.0788307 18.8288307,18.4626334 18.339789,18.7241757 C17.8507474,18.9857181 17.3656665,19.125 16.0279706,19.125 L3.84702942,19.125 C2.50933348,19.125 2.02425261,18.9857181 1.53521097,18.7241757 C1.04616933,18.4626334 0.662366585,18.0788307 0.400824253,17.589789 C0.139281921,17.1007474 -1.33226763e-15,16.6156665 -1.33226763e-15,15.2779706 L-1.33226763e-15,3.84702942 C-1.33226763e-15,2.50933348 0.139281921,2.02425261 0.400824253,1.53521097 C0.662366585,1.04616933 1.04616933,0.662366585 1.53521097,0.400824253 C2.02425261,0.139281921 2.50933348,0 3.84702942,0 L16.0279706,0 Z M3.84702942,0.1875 C2.65572942,0.1875 2.14853874,0.285443038 1.62363575,0.566164228 C1.16726945,0.810231597 0.810231597,1.16726945 0.566164228,1.62363575 C0.285443038,2.14853874 0.1875,2.65572942 0.1875,3.84702942 L0.1875,15.2779706 C0.1875,16.4692706 0.285443038,16.9764613 0.566164228,17.5013642 C0.810231597,17.9577305 1.16726945,18.3147684 1.62363575,18.5588358 C2.14853874,18.839557 2.65572942,18.9375 3.84702942,18.9375 L16.0279706,18.9375 C17.2192706,18.9375 17.7264613,18.839557 18.2513642,18.5588358 C18.7077305,18.3147684 19.0647684,17.9577305 19.3088358,17.5013642 C19.589557,16.9764613 19.6875,16.4692706 19.6875,15.2779706 L19.6875,3.84702942 C19.6875,2.65572942 19.589557,2.14853874 19.3088358,1.62363575 C19.0647684,1.16726945 18.7077305,0.810231597 18.2513642,0.566164228 C17.7264613,0.285443038 17.2192706,0.1875 16.0279706,0.1875 L3.84702942,0.1875 Z" id="Rectangle-245" fill="url(#linearGradient-5)" fill-rule="nonzero"></path>
            <g id="矩形">
                <use fill="black" fill-opacity="1" filter="url(#filter-8)" xlink:href="#path-7"></use>
                <use fill="url(#linearGradient-6)" fill-rule="evenodd" xlink:href="#path-7"></use>
                <use fill="black" fill-opacity="1" filter="url(#filter-9)" xlink:href="#path-7"></use>
            </g>
            <path d="M16.6389853,1.5 C17.3078333,1.5 17.5503737,1.56964096 17.7948945,1.70041213 C18.0394153,1.83118329 18.2313167,2.02308466 18.3620879,2.26760548 C18.492859,2.5121263 18.5625,2.75466674 18.5625,3.42351471 L18.5625,15.7014853 C18.5625,16.3703333 18.492859,16.6128737 18.3620879,16.8573945 C18.2313167,17.1019153 18.0394153,17.2938167 17.7948945,17.4245879 C17.5503737,17.555359 17.3078333,17.625 16.6389853,17.625 L12.6110147,17.625 C11.9421667,17.625 11.6996263,17.555359 11.4551055,17.4245879 C11.2105847,17.2938167 11.0186833,17.1019153 10.8879121,16.8573945 C10.757141,16.6128737 10.6875,16.3703333 10.6875,15.7014853 L10.6875,3.42351471 C10.6875,2.75466674 10.757141,2.5121263 10.8879121,2.26760548 C11.0186833,2.02308466 11.2105847,1.83118329 11.4551055,1.70041213 C11.6996263,1.56964096 11.9421667,1.5 12.6110147,1.5 L16.6389853,1.5 Z M12.6110147,1.6875 C12.0295177,1.6875 11.7905433,1.73364807 11.5435303,1.8657521 C11.3316848,1.9790483 11.1665483,2.14418479 11.0532521,2.35603027 C10.9211481,2.60304333 10.875,2.84201765 10.875,3.42351471 L10.875,15.7014853 C10.875,16.2829823 10.9211481,16.5219567 11.0532521,16.7689697 C11.1665483,16.9808152 11.3316848,17.1459517 11.5435303,17.2592479 C11.7905433,17.3913519 12.0295177,17.4375 12.6110147,17.4375 L16.6389853,17.4375 C17.2204823,17.4375 17.4594567,17.3913519 17.7064697,17.2592479 C17.9183152,17.1459517 18.0834517,16.9808152 18.1967479,16.7689697 C18.3288519,16.5219567 18.375,16.2829823 18.375,15.7014853 L18.375,3.42351471 C18.375,2.84201765 18.3288519,2.60304333 18.1967479,2.35603027 C18.0834517,2.14418479 17.9183152,1.9790483 17.7064697,1.8657521 C17.4594567,1.73364807 17.2204823,1.6875 16.6389853,1.6875 L12.6110147,1.6875 Z" id="矩形" fill="url(#linearGradient-10)" fill-rule="nonzero"></path>
            <g id="矩形">
                <use fill="black" fill-opacity="1" filter="url(#filter-13)" xlink:href="#path-12"></use>
                <use fill="url(#linearGradient-11)" fill-rule="evenodd" xlink:href="#path-12"></use>
            </g>
            <g id="矩形">
                <use fill="black" fill-opacity="1" filter="url(#filter-15)" xlink:href="#path-14"></use>
                <use fill="url(#linearGradient-11)" fill-rule="evenodd" xlink:href="#path-14"></use>
            </g>
            <path d="M12.75,8.625 L16.5,8.625 L16.5,9 L12.75,9 Z M12.75,9.9375 L16.5,9.9375 L16.5,10.3125 L12.75,10.3125 Z" id="Combined-Shape" fill="#FFFFFF"></path>
            <path d="M6.58180196,12.4390165 L6.86961713,12.7278433 L5.81788287,13.7810165 L6.86961713,14.8346567 L6.58180196,15.1234835 L5.53088287,14.0690165 L4.48069804,15.1234835 L4.19288287,14.8346567 L5.24288287,13.7810165 L4.19288287,12.7278433 L4.48069804,12.4390165 L5.53088287,13.4920165 L6.58180196,12.4390165 Z" id="Combined-Shape" fill="#1C1C1C"></path>
            <path d="M4.96875,4.12642045 L4.96875,4.12357955 C4.96875,3.87411001 5.17098501,3.671875 5.42045455,3.671875 C5.66992408,3.671875 5.87215909,3.87411001 5.87215909,4.12357955 L5.87215909,4.12642045 C5.87215909,4.37588999 5.66992408,4.578125 5.42045455,4.578125 C5.17098501,4.578125 4.96875,4.37588999 4.96875,4.12642045 Z M4.96875,6.39204545 L4.96875,6.38920455 C4.96875,6.13973501 5.17098501,5.9375 5.42045455,5.9375 C5.66992408,5.9375 5.87215909,6.13973501 5.87215909,6.38920455 L5.87215909,6.39204545 C5.87215909,6.64151499 5.66992408,6.84375 5.42045455,6.84375 C5.17098501,6.84375 4.96875,6.64151499 4.96875,6.39204545 Z M3.75,5.0625 L7.125,5.0625 L7.125,5.4375 L3.75,5.4375 L3.75,5.0625 Z" id="形状结合" fill="#1C1C1C"></path>
        </g>
        <g id="Guide/128"></g>
    </g>
</svg>